# MagicaVoxel @ Ephtracy

# group
o 

# material
mtllib elec_doors-3.mtl
usemtl palette

# normals
vn -1 0 0
vn 1 0 0
vn 0 0 1
vn 0 0 -1
vn 0 -1 0
vn 0 1 0

# texcoords
vt 0.185547 0.5
vt 0.966797 0.5
vt 0.978516 0.5

# verts
v -0.65 -0.5 0
v -0.65 -0.5 -0.1
v -0.65 0.5 0
v -0.65 0.5 -0.1
v -0.55 -0.6 0
v -0.55 -0.6 -0.1
v -0.55 -0.5 0
v -0.55 -0.5 -0.1
v -0.55 0.5 0
v -0.55 0.5 -0.1
v -0.55 0.6 0
v -0.55 0.6 -0.1
v 0.45 -0.1 0.1
v 0.45 -0.1 0
v 0.45 0.2 0.1
v 0.45 0.2 0
v 0.55 -0.6 0
v 0.55 -0.6 -0.1
v 0.55 -0.5 0
v 0.55 -0.5 -0.1
v 0.55 -0.1 0.1
v 0.55 -0.1 0
v 0.55 0.2 0.1
v 0.55 0.2 0
v 0.55 0.5 0
v 0.55 0.5 -0.1
v 0.55 0.6 0
v 0.55 0.6 -0.1
v 0.65 -0.5 0
v 0.65 -0.5 -0.1
v 0.65 0.5 0
v 0.65 0.5 -0.1
v 0.45 -0.1 0.1
v 0.45 0.2 0.1
v 0.55 -0.1 0.1
v 0.55 0.2 0.1
v -0.65 -0.5 0
v -0.65 0.5 0
v -0.55 -0.6 0
v -0.55 -0.5 0
v -0.55 0.5 0
v -0.55 0.6 0
v -0.25 -0.4 0
v -0.25 -0.2 0
v -0.25 0 0
v -0.25 0.1 0
v -0.15 -0.4 0
v -0.15 -0.3 0
v -0.15 -0.2 0
v -0.15 -0.1 0
v -0.15 0.1 0
v -0.15 0.2 0
v -0.05 -0.3 0
v -0.05 -0.2 0
v -0.05 -0.1 0
v -0.05 0 0
v -0.05 0.2 0
v -0.05 0.3 0
v 0.05 -0.2 0
v 0.05 -0.1 0
v 0.05 0.1 0
v 0.05 0.2 0
v 0.05 0.3 0
v 0.05 0.4 0
v 0.15 -0.1 0
v 0.15 0 0
v 0.15 0.2 0
v 0.15 0.3 0
v 0.15 0.4 0
v 0.15 0.5 0
v 0.25 0 0
v 0.25 0.1 0
v 0.25 0.3 0
v 0.25 0.4 0
v 0.35 0.4 0
v 0.35 0.5 0
v 0.45 -0.1 0
v 0.45 0.2 0
v 0.55 -0.6 0
v 0.55 -0.5 0
v 0.55 -0.1 0
v 0.55 0.2 0
v 0.55 0.5 0
v 0.55 0.6 0
v 0.65 -0.5 0
v 0.65 0.5 0
v -0.65 -0.5 -0.1
v -0.65 0.5 -0.1
v -0.55 -0.6 -0.1
v -0.55 -0.5 -0.1
v -0.55 0.5 -0.1
v -0.55 0.6 -0.1
v -0.25 -0.4 -0.1
v -0.25 -0.2 -0.1
v -0.25 0 -0.1
v -0.25 0.1 -0.1
v -0.15 -0.4 -0.1
v -0.15 -0.3 -0.1
v -0.15 -0.2 -0.1
v -0.15 -0.1 -0.1
v -0.15 0.1 -0.1
v -0.15 0.2 -0.1
v -0.05 -0.3 -0.1
v -0.05 -0.2 -0.1
v -0.05 -0.1 -0.1
v -0.05 0 -0.1
v -0.05 0.2 -0.1
v -0.05 0.3 -0.1
v 0.05 -0.2 -0.1
v 0.05 -0.1 -0.1
v 0.05 0.1 -0.1
v 0.05 0.2 -0.1
v 0.05 0.3 -0.1
v 0.05 0.4 -0.1
v 0.15 -0.1 -0.1
v 0.15 0 -0.1
v 0.15 0.2 -0.1
v 0.15 0.3 -0.1
v 0.15 0.4 -0.1
v 0.15 0.5 -0.1
v 0.25 0 -0.1
v 0.25 0.1 -0.1
v 0.25 0.3 -0.1
v 0.25 0.4 -0.1
v 0.35 0.4 -0.1
v 0.35 0.5 -0.1
v 0.45 -0.1 -0.1
v 0.45 0.2 -0.1
v 0.55 -0.6 -0.1
v 0.55 -0.5 -0.1
v 0.55 -0.1 -0.1
v 0.55 0.2 -0.1
v 0.55 0.5 -0.1
v 0.55 0.6 -0.1
v 0.65 -0.5 -0.1
v 0.65 0.5 -0.1
v -0.55 -0.6 0
v 0.55 -0.6 0
v -0.55 -0.6 -0.1
v 0.55 -0.6 -0.1
v -0.65 -0.5 0
v -0.55 -0.5 0
v 0.55 -0.5 0
v 0.65 -0.5 0
v -0.65 -0.5 -0.1
v -0.55 -0.5 -0.1
v 0.55 -0.5 -0.1
v 0.65 -0.5 -0.1
v 0.45 -0.1 0.1
v 0.55 -0.1 0.1
v 0.45 -0.1 0
v 0.55 -0.1 0
v 0.45 0.2 0.1
v 0.55 0.2 0.1
v 0.45 0.2 0
v 0.55 0.2 0
v -0.65 0.5 0
v -0.55 0.5 0
v 0.55 0.5 0
v 0.65 0.5 0
v -0.65 0.5 -0.1
v -0.55 0.5 -0.1
v 0.55 0.5 -0.1
v 0.65 0.5 -0.1
v -0.55 0.6 0
v 0.55 0.6 0
v -0.55 0.6 -0.1
v 0.55 0.6 -0.1

# faces
f 3/3/1 2/3/1 1/3/1
f 4/3/1 2/3/1 3/3/1
f 7/3/1 6/3/1 5/3/1
f 8/3/1 6/3/1 7/3/1
f 11/3/1 10/3/1 9/3/1
f 12/3/1 10/3/1 11/3/1
f 15/2/1 14/2/1 13/2/1
f 16/2/1 14/2/1 15/2/1
f 17/3/2 18/3/2 19/3/2
f 19/3/2 18/3/2 20/3/2
f 21/2/2 22/2/2 23/2/2
f 23/2/2 22/2/2 24/2/2
f 25/3/2 26/3/2 27/3/2
f 27/3/2 26/3/2 28/3/2
f 29/3/2 30/3/2 31/3/2
f 31/3/2 30/3/2 32/3/2
f 35/2/3 34/2/3 33/2/3
f 36/2/3 34/2/3 35/2/3
f 40/3/3 38/3/3 37/3/3
f 41/3/3 38/3/3 40/3/3
f 43/3/3 40/3/3 39/3/3
f 43/3/3 42/3/3 41/3/3
f 43/3/3 41/3/3 40/3/3
f 44/3/3 42/3/3 43/3/3
f 45/3/3 42/3/3 44/3/3
f 46/3/3 42/3/3 45/3/3
f 47/3/3 43/3/3 39/3/3
f 47/1/3 44/1/3 43/1/3
f 48/1/3 44/1/3 47/1/3
f 49/3/3 45/3/3 44/3/3
f 49/1/3 44/1/3 48/1/3
f 50/3/3 45/3/3 49/3/3
f 51/3/3 42/3/3 46/3/3
f 51/1/3 46/1/3 45/1/3
f 52/3/3 42/3/3 51/3/3
f 53/1/3 50/1/3 49/1/3
f 53/3/3 48/3/3 47/3/3
f 53/1/3 49/1/3 48/1/3
f 54/1/3 50/1/3 53/1/3
f 55/3/3 45/3/3 50/3/3
f 55/1/3 50/1/3 54/1/3
f 56/1/3 52/1/3 51/1/3
f 56/3/3 45/3/3 55/3/3
f 56/1/3 51/1/3 45/1/3
f 57/3/3 42/3/3 52/3/3
f 57/1/3 52/1/3 56/1/3
f 58/3/3 42/3/3 57/3/3
f 59/3/3 54/3/3 53/3/3
f 59/1/3 56/1/3 55/1/3
f 59/1/3 58/1/3 57/1/3
f 59/1/3 57/1/3 56/1/3
f 59/1/3 55/1/3 54/1/3
f 60/1/3 58/1/3 59/1/3
f 61/1/3 58/1/3 60/1/3
f 62/1/3 58/1/3 61/1/3
f 63/3/3 42/3/3 58/3/3
f 63/1/3 58/1/3 62/1/3
f 64/3/3 42/3/3 63/3/3
f 65/3/3 60/3/3 59/3/3
f 65/1/3 61/1/3 60/1/3
f 66/1/3 61/1/3 65/1/3
f 67/3/3 62/3/3 61/3/3
f 67/1/3 64/1/3 63/1/3
f 67/1/3 63/1/3 62/1/3
f 68/1/3 64/1/3 67/1/3
f 69/3/3 42/3/3 64/3/3
f 69/1/3 64/1/3 68/1/3
f 70/3/3 42/3/3 69/3/3
f 71/1/3 61/1/3 66/1/3
f 71/3/3 66/3/3 65/3/3
f 72/3/3 68/3/3 67/3/3
f 72/1/3 61/1/3 71/1/3
f 72/3/3 67/3/3 61/3/3
f 73/1/3 70/1/3 69/1/3
f 73/3/3 68/3/3 72/3/3
f 73/1/3 69/1/3 68/1/3
f 74/1/3 70/1/3 73/1/3
f 75/3/3 72/3/3 71/3/3
f 75/1/3 70/1/3 74/1/3
f 75/3/3 74/3/3 73/3/3
f 75/3/3 73/3/3 72/3/3
f 76/3/3 42/3/3 70/3/3
f 76/1/3 70/1/3 75/1/3
f 77/3/3 75/3/3 71/3/3
f 77/3/3 71/3/3 65/3/3
f 77/3/3 76/3/3 75/3/3
f 77/3/3 65/3/3 59/3/3
f 78/3/3 76/3/3 77/3/3
f 79/3/3 53/3/3 47/3/3
f 79/3/3 47/3/3 39/3/3
f 79/3/3 77/3/3 59/3/3
f 79/3/3 59/3/3 53/3/3
f 80/3/3 77/3/3 79/3/3
f 81/3/3 77/3/3 80/3/3
f 82/3/3 76/3/3 78/3/3
f 83/3/3 42/3/3 76/3/3
f 83/3/3 76/3/3 82/3/3
f 84/3/3 42/3/3 83/3/3
f 85/3/3 82/3/3 81/3/3
f 85/3/3 81/3/3 80/3/3
f 85/3/3 83/3/3 82/3/3
f 86/3/3 83/3/3 85/3/3
f 87/3/4 88/3/4 90/3/4
f 90/3/4 88/3/4 91/3/4
f 89/3/4 90/3/4 93/3/4
f 91/3/4 92/3/4 93/3/4
f 90/3/4 91/3/4 93/3/4
f 93/3/4 92/3/4 94/3/4
f 94/3/4 92/3/4 95/3/4
f 95/3/4 92/3/4 96/3/4
f 89/3/4 93/3/4 97/3/4
f 93/1/4 94/1/4 97/1/4
f 97/1/4 94/1/4 98/1/4
f 94/3/4 95/3/4 99/3/4
f 98/1/4 94/1/4 99/1/4
f 99/3/4 95/3/4 100/3/4
f 96/3/4 92/3/4 101/3/4
f 95/1/4 96/1/4 101/1/4
f 101/3/4 92/3/4 102/3/4
f 99/1/4 100/1/4 103/1/4
f 97/3/4 98/3/4 103/3/4
f 98/1/4 99/1/4 103/1/4
f 103/1/4 100/1/4 104/1/4
f 100/3/4 95/3/4 105/3/4
f 104/1/4 100/1/4 105/1/4
f 101/1/4 102/1/4 106/1/4
f 105/3/4 95/3/4 106/3/4
f 95/1/4 101/1/4 106/1/4
f 102/3/4 92/3/4 107/3/4
f 106/1/4 102/1/4 107/1/4
f 107/3/4 92/3/4 108/3/4
f 103/3/4 104/3/4 109/3/4
f 105/1/4 106/1/4 109/1/4
f 107/1/4 108/1/4 109/1/4
f 106/1/4 107/1/4 109/1/4
f 104/1/4 105/1/4 109/1/4
f 109/1/4 108/1/4 110/1/4
f 110/1/4 108/1/4 111/1/4
f 111/1/4 108/1/4 112/1/4
f 108/3/4 92/3/4 113/3/4
f 112/1/4 108/1/4 113/1/4
f 113/3/4 92/3/4 114/3/4
f 109/3/4 110/3/4 115/3/4
f 110/1/4 111/1/4 115/1/4
f 115/1/4 111/1/4 116/1/4
f 111/3/4 112/3/4 117/3/4
f 113/1/4 114/1/4 117/1/4
f 112/1/4 113/1/4 117/1/4
f 117/1/4 114/1/4 118/1/4
f 114/3/4 92/3/4 119/3/4
f 118/1/4 114/1/4 119/1/4
f 119/3/4 92/3/4 120/3/4
f 116/1/4 111/1/4 121/1/4
f 115/3/4 116/3/4 121/3/4
f 117/3/4 118/3/4 122/3/4
f 121/1/4 111/1/4 122/1/4
f 111/3/4 117/3/4 122/3/4
f 119/1/4 120/1/4 123/1/4
f 122/3/4 118/3/4 123/3/4
f 118/1/4 119/1/4 123/1/4
f 123/1/4 120/1/4 124/1/4
f 121/3/4 122/3/4 125/3/4
f 124/1/4 120/1/4 125/1/4
f 123/3/4 124/3/4 125/3/4
f 122/3/4 123/3/4 125/3/4
f 120/3/4 92/3/4 126/3/4
f 125/1/4 120/1/4 126/1/4
f 121/3/4 125/3/4 127/3/4
f 115/3/4 121/3/4 127/3/4
f 125/3/4 126/3/4 127/3/4
f 109/3/4 115/3/4 127/3/4
f 127/3/4 126/3/4 128/3/4
f 97/3/4 103/3/4 129/3/4
f 89/3/4 97/3/4 129/3/4
f 103/3/4 109/3/4 129/3/4
f 109/3/4 127/3/4 129/3/4
f 129/3/4 127/3/4 130/3/4
f 127/2/4 128/2/4 131/2/4
f 130/3/4 127/3/4 131/3/4
f 128/3/4 126/3/4 132/3/4
f 131/2/4 128/2/4 132/2/4
f 126/3/4 92/3/4 133/3/4
f 132/3/4 126/3/4 133/3/4
f 133/3/4 92/3/4 134/3/4
f 131/3/4 132/3/4 135/3/4
f 130/3/4 131/3/4 135/3/4
f 132/3/4 133/3/4 135/3/4
f 135/3/4 133/3/4 136/3/4
f 139/3/5 138/3/5 137/3/5
f 140/3/5 138/3/5 139/3/5
f 145/3/5 142/3/5 141/3/5
f 146/3/5 142/3/5 145/3/5
f 147/3/5 144/3/5 143/3/5
f 148/3/5 144/3/5 147/3/5
f 151/2/5 150/2/5 149/2/5
f 152/2/5 150/2/5 151/2/5
f 153/2/6 154/2/6 155/2/6
f 155/2/6 154/2/6 156/2/6
f 157/3/6 158/3/6 161/3/6
f 161/3/6 158/3/6 162/3/6
f 159/3/6 160/3/6 163/3/6
f 163/3/6 160/3/6 164/3/6
f 165/3/6 166/3/6 167/3/6
f 167/3/6 166/3/6 168/3/6
