# MagicaVoxel @ Ephtracy

# group
o 

# material
mtllib elec_doors-1.mtl
usemtl palette

# normals
vn -1 0 0
vn 1 0 0
vn 0 0 1
vn 0 0 -1
vn 0 -1 0
vn 0 1 0

# texcoords
vt 0.185547 0.5
vt 0.966797 0.5
vt 0.978516 0.5

# verts
v -0.1 -0.05 0.5
v -0.1 -0.05 0.4
v -0.1 0.15 0.5
v -0.1 0.15 0.4
v 0 -0.55 0.5
v 0 -0.55 -0.5
v 0 -0.45 0.6
v 0 -0.45 0.5
v 0 -0.45 -0.2
v 0 -0.45 -0.3
v 0 -0.45 -0.5
v 0 -0.45 -0.6
v 0 -0.35 -0.1
v 0 -0.35 -0.2
v 0 -0.25 0
v 0 -0.25 -0.1
v 0 -0.25 -0.2
v 0 -0.25 -0.3
v 0 -0.15 0.1
v 0 -0.15 0
v 0 -0.15 -0.1
v 0 -0.15 -0.2
v 0 -0.05 0.5
v 0 -0.05 0.4
v 0 -0.05 0.2
v 0 -0.05 0.1
v 0 -0.05 -0.1
v 0 -0.05 -0.3
v 0 0.05 0.2
v 0 0.05 0
v 0 0.05 -0.2
v 0 0.05 -0.3
v 0 0.15 0.5
v 0 0.15 0.4
v 0 0.15 0.1
v 0 0.15 0
v 0 0.15 -0.1
v 0 0.15 -0.2
v 0 0.25 0.2
v 0 0.25 0.1
v 0 0.25 0
v 0 0.25 -0.1
v 0 0.35 0.3
v 0 0.35 0.2
v 0 0.35 0.1
v 0 0.35 0
v 0 0.45 0.6
v 0 0.45 0.5
v 0 0.45 0.3
v 0 0.45 0.1
v 0 0.45 -0.5
v 0 0.45 -0.6
v 0 0.55 0.5
v 0 0.55 -0.5
v 0.1 -0.55 0.5
v 0.1 -0.55 -0.5
v 0.1 -0.45 0.6
v 0.1 -0.45 0.5
v 0.1 -0.45 -0.2
v 0.1 -0.45 -0.3
v 0.1 -0.45 -0.5
v 0.1 -0.45 -0.6
v 0.1 -0.35 -0.1
v 0.1 -0.35 -0.2
v 0.1 -0.25 0
v 0.1 -0.25 -0.1
v 0.1 -0.25 -0.2
v 0.1 -0.25 -0.3
v 0.1 -0.15 0.1
v 0.1 -0.15 0
v 0.1 -0.15 -0.1
v 0.1 -0.15 -0.2
v 0.1 -0.05 0.5
v 0.1 -0.05 0.4
v 0.1 -0.05 0.2
v 0.1 -0.05 0.1
v 0.1 -0.05 -0.1
v 0.1 -0.05 -0.3
v 0.1 0.05 0.2
v 0.1 0.05 0
v 0.1 0.05 -0.2
v 0.1 0.05 -0.3
v 0.1 0.15 0.5
v 0.1 0.15 0.4
v 0.1 0.15 0.1
v 0.1 0.15 0
v 0.1 0.15 -0.1
v 0.1 0.15 -0.2
v 0.1 0.25 0.2
v 0.1 0.25 0.1
v 0.1 0.25 0
v 0.1 0.25 -0.1
v 0.1 0.35 0.3
v 0.1 0.35 0.2
v 0.1 0.35 0.1
v 0.1 0.35 0
v 0.1 0.45 0.6
v 0.1 0.45 0.5
v 0.1 0.45 0.3
v 0.1 0.45 0.1
v 0.1 0.45 -0.5
v 0.1 0.45 -0.6
v 0.1 0.55 0.5
v 0.1 0.55 -0.5
v 0 -0.45 0.6
v 0 0.45 0.6
v 0.1 -0.45 0.6
v 0.1 0.45 0.6
v -0.1 -0.05 0.5
v -0.1 0.15 0.5
v 0 -0.55 0.5
v 0 -0.45 0.5
v 0 -0.05 0.5
v 0 0.15 0.5
v 0 0.45 0.5
v 0 0.55 0.5
v 0.1 -0.55 0.5
v 0.1 -0.45 0.5
v 0.1 0.45 0.5
v 0.1 0.55 0.5
v -0.1 -0.05 0.4
v -0.1 0.15 0.4
v 0 -0.05 0.4
v 0 0.15 0.4
v 0 -0.55 -0.5
v 0 -0.45 -0.5
v 0 0.45 -0.5
v 0 0.55 -0.5
v 0.1 -0.55 -0.5
v 0.1 -0.45 -0.5
v 0.1 0.45 -0.5
v 0.1 0.55 -0.5
v 0 -0.45 -0.6
v 0 0.45 -0.6
v 0.1 -0.45 -0.6
v 0.1 0.45 -0.6
v 0 -0.55 0.5
v 0.1 -0.55 0.5
v 0 -0.55 -0.5
v 0.1 -0.55 -0.5
v 0 -0.45 0.6
v 0.1 -0.45 0.6
v 0 -0.45 0.5
v 0.1 -0.45 0.5
v 0 -0.45 -0.5
v 0.1 -0.45 -0.5
v 0 -0.45 -0.6
v 0.1 -0.45 -0.6
v -0.1 -0.05 0.5
v 0 -0.05 0.5
v -0.1 -0.05 0.4
v 0 -0.05 0.4
v -0.1 0.15 0.5
v 0 0.15 0.5
v -0.1 0.15 0.4
v 0 0.15 0.4
v 0 0.45 0.6
v 0.1 0.45 0.6
v 0 0.45 0.5
v 0.1 0.45 0.5
v 0 0.45 -0.5
v 0.1 0.45 -0.5
v 0 0.45 -0.6
v 0.1 0.45 -0.6
v 0 0.55 0.5
v 0.1 0.55 0.5
v 0 0.55 -0.5
v 0.1 0.55 -0.5

# faces
f 3/2/1 2/2/1 1/2/1
f 4/2/1 2/2/1 3/2/1
f 8/3/1 6/3/1 5/3/1
f 9/3/1 6/3/1 8/3/1
f 10/3/1 6/3/1 9/3/1
f 11/3/1 6/3/1 10/3/1
f 13/3/1 8/3/1 7/3/1
f 13/3/1 9/3/1 8/3/1
f 14/1/1 10/1/1 9/1/1
f 14/3/1 9/3/1 13/3/1
f 15/3/1 13/3/1 7/3/1
f 16/1/1 14/1/1 13/1/1
f 16/3/1 13/3/1 15/3/1
f 17/1/1 10/1/1 14/1/1
f 17/1/1 14/1/1 16/1/1
f 18/3/1 12/3/1 11/3/1
f 18/1/1 10/1/1 17/1/1
f 18/3/1 11/3/1 10/3/1
f 19/3/1 15/3/1 7/3/1
f 20/1/1 17/1/1 16/1/1
f 20/3/1 15/3/1 19/3/1
f 20/1/1 16/1/1 15/1/1
f 21/1/1 17/1/1 20/1/1
f 22/3/1 18/3/1 17/3/1
f 22/1/1 17/1/1 21/1/1
f 23/3/1 19/3/1 7/3/1
f 24/3/1 19/3/1 23/3/1
f 25/3/1 19/3/1 24/3/1
f 26/1/1 21/1/1 20/1/1
f 26/3/1 19/3/1 25/3/1
f 26/1/1 20/1/1 19/1/1
f 27/3/1 22/3/1 21/3/1
f 27/1/1 21/1/1 26/1/1
f 28/3/1 18/3/1 22/3/1
f 28/3/1 22/3/1 27/3/1
f 28/3/1 12/3/1 18/3/1
f 29/1/1 27/1/1 26/1/1
f 29/3/1 25/3/1 24/3/1
f 29/1/1 28/1/1 27/1/1
f 29/1/1 26/1/1 25/1/1
f 30/1/1 28/1/1 29/1/1
f 31/1/1 28/1/1 30/1/1
f 32/3/1 12/3/1 28/3/1
f 32/1/1 28/1/1 31/1/1
f 33/3/1 23/3/1 7/3/1
f 34/3/1 29/3/1 24/3/1
f 34/3/1 30/3/1 29/3/1
f 35/3/1 30/3/1 34/3/1
f 36/1/1 31/1/1 30/1/1
f 36/3/1 30/3/1 35/3/1
f 37/1/1 31/1/1 36/1/1
f 38/3/1 32/3/1 31/3/1
f 38/1/1 31/1/1 37/1/1
f 39/3/1 35/3/1 34/3/1
f 39/3/1 34/3/1 33/3/1
f 40/1/1 37/1/1 36/1/1
f 40/3/1 35/3/1 39/3/1
f 40/1/1 36/1/1 35/1/1
f 41/1/1 37/1/1 40/1/1
f 42/3/1 38/3/1 37/3/1
f 42/1/1 37/1/1 41/1/1
f 43/3/1 39/3/1 33/3/1
f 44/1/1 41/1/1 40/1/1
f 44/3/1 39/3/1 43/3/1
f 44/1/1 40/1/1 39/1/1
f 45/1/1 41/1/1 44/1/1
f 46/3/1 42/3/1 41/3/1
f 46/1/1 41/1/1 45/1/1
f 47/3/1 33/3/1 7/3/1
f 47/3/1 43/3/1 33/3/1
f 48/3/1 43/3/1 47/3/1
f 49/1/1 45/1/1 44/1/1
f 49/3/1 43/3/1 48/3/1
f 49/1/1 44/1/1 43/1/1
f 50/3/1 46/3/1 45/3/1
f 50/1/1 45/1/1 49/1/1
f 51/3/1 32/3/1 38/3/1
f 51/3/1 46/3/1 50/3/1
f 51/3/1 12/3/1 32/3/1
f 51/3/1 42/3/1 46/3/1
f 51/3/1 38/3/1 42/3/1
f 52/3/1 12/3/1 51/3/1
f 53/3/1 50/3/1 49/3/1
f 53/3/1 51/3/1 50/3/1
f 53/3/1 49/3/1 48/3/1
f 54/3/1 51/3/1 53/3/1
f 55/3/2 56/3/2 58/3/2
f 58/3/2 56/3/2 59/3/2
f 59/3/2 56/3/2 60/3/2
f 60/3/2 56/3/2 61/3/2
f 57/3/2 58/3/2 63/3/2
f 58/3/2 59/3/2 63/3/2
f 59/1/2 60/1/2 64/1/2
f 63/3/2 59/3/2 64/3/2
f 57/3/2 63/3/2 65/3/2
f 63/1/2 64/1/2 66/1/2
f 65/3/2 63/3/2 66/3/2
f 64/1/2 60/1/2 67/1/2
f 66/1/2 64/1/2 67/1/2
f 61/3/2 62/3/2 68/3/2
f 67/1/2 60/1/2 68/1/2
f 60/3/2 61/3/2 68/3/2
f 57/3/2 65/3/2 69/3/2
f 66/1/2 67/1/2 70/1/2
f 69/3/2 65/3/2 70/3/2
f 65/1/2 66/1/2 70/1/2
f 70/1/2 67/1/2 71/1/2
f 67/3/2 68/3/2 72/3/2
f 71/1/2 67/1/2 72/1/2
f 57/3/2 69/3/2 73/3/2
f 73/3/2 69/3/2 74/3/2
f 74/3/2 69/3/2 75/3/2
f 70/1/2 71/1/2 76/1/2
f 75/3/2 69/3/2 76/3/2
f 69/1/2 70/1/2 76/1/2
f 71/3/2 72/3/2 77/3/2
f 76/1/2 71/1/2 77/1/2
f 72/3/2 68/3/2 78/3/2
f 77/3/2 72/3/2 78/3/2
f 68/3/2 62/3/2 78/3/2
f 76/1/2 77/1/2 79/1/2
f 74/3/2 75/3/2 79/3/2
f 77/1/2 78/1/2 79/1/2
f 75/1/2 76/1/2 79/1/2
f 79/1/2 78/1/2 80/1/2
f 80/1/2 78/1/2 81/1/2
f 78/3/2 62/3/2 82/3/2
f 81/1/2 78/1/2 82/1/2
f 57/3/2 73/3/2 83/3/2
f 73/2/2 74/2/2 83/2/2
f 74/3/2 79/3/2 84/3/2
f 83/2/2 74/2/2 84/2/2
f 79/3/2 80/3/2 84/3/2
f 84/3/2 80/3/2 85/3/2
f 80/1/2 81/1/2 86/1/2
f 85/3/2 80/3/2 86/3/2
f 86/1/2 81/1/2 87/1/2
f 81/3/2 82/3/2 88/3/2
f 87/1/2 81/1/2 88/1/2
f 84/3/2 85/3/2 89/3/2
f 83/3/2 84/3/2 89/3/2
f 86/1/2 87/1/2 90/1/2
f 89/3/2 85/3/2 90/3/2
f 85/1/2 86/1/2 90/1/2
f 90/1/2 87/1/2 91/1/2
f 87/3/2 88/3/2 92/3/2
f 91/1/2 87/1/2 92/1/2
f 83/3/2 89/3/2 93/3/2
f 90/1/2 91/1/2 94/1/2
f 93/3/2 89/3/2 94/3/2
f 89/1/2 90/1/2 94/1/2
f 94/1/2 91/1/2 95/1/2
f 91/3/2 92/3/2 96/3/2
f 95/1/2 91/1/2 96/1/2
f 57/3/2 83/3/2 97/3/2
f 83/3/2 93/3/2 97/3/2
f 97/3/2 93/3/2 98/3/2
f 94/1/2 95/1/2 99/1/2
f 98/3/2 93/3/2 99/3/2
f 93/1/2 94/1/2 99/1/2
f 95/3/2 96/3/2 100/3/2
f 99/1/2 95/1/2 100/1/2
f 88/3/2 82/3/2 101/3/2
f 100/3/2 96/3/2 101/3/2
f 82/3/2 62/3/2 101/3/2
f 92/3/2 88/3/2 101/3/2
f 96/3/2 92/3/2 101/3/2
f 101/3/2 62/3/2 102/3/2
f 99/3/2 100/3/2 103/3/2
f 100/3/2 101/3/2 103/3/2
f 98/3/2 99/3/2 103/3/2
f 103/3/2 101/3/2 104/3/2
f 107/3/3 106/3/3 105/3/3
f 108/3/3 106/3/3 107/3/3
f 113/2/3 110/2/3 109/2/3
f 114/2/3 110/2/3 113/2/3
f 117/3/3 112/3/3 111/3/3
f 118/3/3 112/3/3 117/3/3
f 119/3/3 116/3/3 115/3/3
f 120/3/3 116/3/3 119/3/3
f 121/2/4 122/2/4 123/2/4
f 123/2/4 122/2/4 124/2/4
f 125/3/4 126/3/4 129/3/4
f 129/3/4 126/3/4 130/3/4
f 127/3/4 128/3/4 131/3/4
f 131/3/4 128/3/4 132/3/4
f 133/3/4 134/3/4 135/3/4
f 135/3/4 134/3/4 136/3/4
f 139/3/5 138/3/5 137/3/5
f 140/3/5 138/3/5 139/3/5
f 143/3/5 142/3/5 141/3/5
f 144/3/5 142/3/5 143/3/5
f 147/3/5 146/3/5 145/3/5
f 148/3/5 146/3/5 147/3/5
f 151/2/5 150/2/5 149/2/5
f 152/2/5 150/2/5 151/2/5
f 153/2/6 154/2/6 155/2/6
f 155/2/6 154/2/6 156/2/6
f 157/3/6 158/3/6 159/3/6
f 159/3/6 158/3/6 160/3/6
f 161/3/6 162/3/6 163/3/6
f 163/3/6 162/3/6 164/3/6
f 165/3/6 166/3/6 167/3/6
f 167/3/6 166/3/6 168/3/6
