# MagicaVoxel @ Ephtracy

# group
o 

# material
mtllib case.mtl
usemtl palette

# normals
vn -1 0 0
vn 1 0 0
vn 0 0 1
vn 0 0 -1
vn 0 -1 0
vn 0 1 0

# texcoords
vt 0.00976563 0.5
vt 0.931641 0.5
vt 0.935547 0.5

# verts
v -0.25 -0.5 0.85
v -0.25 -0.5 -0.85
v -0.25 -0.4 0.75
v -0.25 -0.4 -0.75
v -0.25 0.2 0.75
v -0.25 0.2 -0.75
v -0.25 0.3 0.85
v -0.25 0.3 -0.85
v -0.05 0.3 0.35
v -0.05 0.3 0.25
v -0.05 0.3 -0.15
v -0.05 0.3 -0.25
v -0.05 0.4 0.35
v -0.05 0.4 0.25
v -0.05 0.4 -0.15
v -0.05 0.4 -0.25
v -0.05 0.5 0.25
v -0.05 0.5 -0.15
v 0.05 0.3 0.35
v 0.05 0.3 0.25
v 0.05 0.3 -0.15
v 0.05 0.3 -0.25
v 0.05 0.4 0.35
v 0.05 0.4 0.25
v 0.05 0.4 -0.15
v 0.05 0.4 -0.25
v 0.05 0.5 0.25
v 0.05 0.5 -0.15
v 0.25 -0.5 0.85
v 0.25 -0.5 -0.85
v 0.25 -0.4 0.75
v 0.25 -0.4 -0.75
v 0.25 0.2 0.75
v 0.25 0.2 -0.75
v 0.25 0.3 0.85
v 0.25 0.3 -0.85
v -0.25 -0.5 0.85
v -0.25 0.3 0.85
v -0.15 -0.4 0.85
v -0.15 0.2 0.85
v 0.15 -0.4 0.85
v 0.15 0.2 0.85
v 0.25 -0.5 0.85
v 0.25 0.3 0.85
v -0.05 0.3 0.35
v -0.05 0.4 0.35
v 0.05 0.3 0.35
v 0.05 0.4 0.35
v -0.05 0.4 0.25
v -0.05 0.5 0.25
v 0.05 0.4 0.25
v 0.05 0.5 0.25
v -0.05 0.3 -0.15
v -0.05 0.4 -0.15
v 0.05 0.3 -0.15
v 0.05 0.4 -0.15
v -0.05 0.3 0.25
v -0.05 0.4 0.25
v 0.05 0.3 0.25
v 0.05 0.4 0.25
v -0.05 0.4 -0.15
v -0.05 0.5 -0.15
v 0.05 0.4 -0.15
v 0.05 0.5 -0.15
v -0.05 0.3 -0.25
v -0.05 0.4 -0.25
v 0.05 0.3 -0.25
v 0.05 0.4 -0.25
v -0.25 -0.5 -0.85
v -0.25 0.3 -0.85
v -0.15 -0.4 -0.85
v -0.15 0.2 -0.85
v 0.15 -0.4 -0.85
v 0.15 0.2 -0.85
v 0.25 -0.5 -0.85
v 0.25 0.3 -0.85
v -0.25 -0.5 0.85
v 0.25 -0.5 0.85
v -0.15 -0.5 0.75
v 0.15 -0.5 0.75
v -0.15 -0.5 -0.75
v 0.15 -0.5 -0.75
v -0.25 -0.5 -0.85
v 0.25 -0.5 -0.85
v -0.05 0.4 0.25
v 0.05 0.4 0.25
v -0.05 0.4 -0.15
v 0.05 0.4 -0.15
v -0.25 0.3 0.85
v 0.25 0.3 0.85
v -0.15 0.3 0.75
v 0.15 0.3 0.75
v -0.05 0.3 0.35
v 0.05 0.3 0.35
v -0.05 0.3 0.25
v 0.05 0.3 0.25
v -0.05 0.3 -0.15
v 0.05 0.3 -0.15
v -0.05 0.3 -0.25
v 0.05 0.3 -0.25
v -0.15 0.3 -0.75
v 0.15 0.3 -0.75
v -0.25 0.3 -0.85
v 0.25 0.3 -0.85
v -0.05 0.4 0.35
v 0.05 0.4 0.35
v -0.05 0.4 0.25
v 0.05 0.4 0.25
v -0.05 0.4 -0.15
v 0.05 0.4 -0.15
v -0.05 0.4 -0.25
v 0.05 0.4 -0.25
v -0.05 0.5 0.25
v 0.05 0.5 0.25
v -0.05 0.5 -0.15
v 0.05 0.5 -0.15

# faces
f 3/3/1 2/3/1 1/3/1
f 4/3/1 2/3/1 3/3/1
f 5/3/1 3/3/1 1/3/1
f 5/2/1 4/2/1 3/2/1
f 6/3/1 2/3/1 4/3/1
f 6/2/1 4/2/1 5/2/1
f 7/3/1 5/3/1 1/3/1
f 7/3/1 6/3/1 5/3/1
f 8/3/1 2/3/1 6/3/1
f 8/3/1 6/3/1 7/3/1
f 13/1/1 10/1/1 9/1/1
f 14/1/1 10/1/1 13/1/1
f 15/1/1 12/1/1 11/1/1
f 16/1/1 12/1/1 15/1/1
f 17/1/1 15/1/1 14/1/1
f 18/1/1 15/1/1 17/1/1
f 19/1/2 20/1/2 23/1/2
f 23/1/2 20/1/2 24/1/2
f 21/1/2 22/1/2 25/1/2
f 25/1/2 22/1/2 26/1/2
f 24/1/2 25/1/2 27/1/2
f 27/1/2 25/1/2 28/1/2
f 29/3/2 30/3/2 31/3/2
f 31/3/2 30/3/2 32/3/2
f 29/3/2 31/3/2 33/3/2
f 31/2/2 32/2/2 33/2/2
f 32/3/2 30/3/2 34/3/2
f 33/2/2 32/2/2 34/2/2
f 29/3/2 33/3/2 35/3/2
f 33/3/2 34/3/2 35/3/2
f 34/3/2 30/3/2 36/3/2
f 35/3/2 34/3/2 36/3/2
f 39/3/3 38/3/3 37/3/3
f 40/3/3 38/3/3 39/3/3
f 41/3/3 39/3/3 37/3/3
f 41/2/3 40/2/3 39/2/3
f 42/3/3 38/3/3 40/3/3
f 42/2/3 40/2/3 41/2/3
f 43/3/3 41/3/3 37/3/3
f 43/3/3 42/3/3 41/3/3
f 44/3/3 38/3/3 42/3/3
f 44/3/3 42/3/3 43/3/3
f 47/1/3 46/1/3 45/1/3
f 48/1/3 46/1/3 47/1/3
f 51/1/3 50/1/3 49/1/3
f 52/1/3 50/1/3 51/1/3
f 55/1/3 54/1/3 53/1/3
f 56/1/3 54/1/3 55/1/3
f 57/1/4 58/1/4 59/1/4
f 59/1/4 58/1/4 60/1/4
f 61/1/4 62/1/4 63/1/4
f 63/1/4 62/1/4 64/1/4
f 65/1/4 66/1/4 67/1/4
f 67/1/4 66/1/4 68/1/4
f 69/3/4 70/3/4 71/3/4
f 71/3/4 70/3/4 72/3/4
f 69/3/4 71/3/4 73/3/4
f 71/2/4 72/2/4 73/2/4
f 72/3/4 70/3/4 74/3/4
f 73/2/4 72/2/4 74/2/4
f 69/3/4 73/3/4 75/3/4
f 73/3/4 74/3/4 75/3/4
f 74/3/4 70/3/4 76/3/4
f 75/3/4 74/3/4 76/3/4
f 79/3/5 78/3/5 77/3/5
f 80/3/5 78/3/5 79/3/5
f 81/3/5 79/3/5 77/3/5
f 81/2/5 80/2/5 79/2/5
f 82/3/5 78/3/5 80/3/5
f 82/2/5 80/2/5 81/2/5
f 83/3/5 81/3/5 77/3/5
f 83/3/5 82/3/5 81/3/5
f 84/3/5 78/3/5 82/3/5
f 84/3/5 82/3/5 83/3/5
f 87/1/5 86/1/5 85/1/5
f 88/1/5 86/1/5 87/1/5
f 89/3/6 90/3/6 91/3/6
f 91/3/6 90/3/6 92/3/6
f 91/2/6 92/2/6 93/2/6
f 93/2/6 92/2/6 94/2/6
f 91/2/6 93/2/6 95/2/6
f 94/2/6 92/2/6 96/2/6
f 91/2/6 95/2/6 97/2/6
f 95/2/6 96/2/6 97/2/6
f 96/2/6 92/2/6 98/2/6
f 97/2/6 96/2/6 98/2/6
f 91/2/6 97/2/6 99/2/6
f 98/2/6 92/2/6 100/2/6
f 89/3/6 91/3/6 101/3/6
f 99/2/6 100/2/6 101/2/6
f 91/2/6 99/2/6 101/2/6
f 100/2/6 92/2/6 102/2/6
f 101/2/6 100/2/6 102/2/6
f 92/3/6 90/3/6 102/3/6
f 89/3/6 101/3/6 103/3/6
f 101/3/6 102/3/6 103/3/6
f 102/3/6 90/3/6 104/3/6
f 103/3/6 102/3/6 104/3/6
f 105/1/6 106/1/6 107/1/6
f 107/1/6 106/1/6 108/1/6
f 109/1/6 110/1/6 111/1/6
f 111/1/6 110/1/6 112/1/6
f 113/1/6 114/1/6 115/1/6
f 115/1/6 114/1/6 116/1/6
