# MagicaVoxel @ Ephtracy

# group
o 

# material
mtllib tablichka.mtl
usemtl palette

# normals
vn -1 0 0
vn 1 0 0
vn 0 0 1
vn 0 0 -1
vn 0 -1 0
vn 0 1 0

# texcoords
vt 0.162109 0.5
vt 0.525391 0.5
vt 0.529297 0.5

# verts
v -0.6 -0.3 0.05
v -0.6 -0.3 -0.05
v -0.6 0.3 0.05
v -0.6 0.3 -0.05
v 0.6 -0.3 0.05
v 0.6 -0.3 -0.05
v 0.6 0.3 0.05
v 0.6 0.3 -0.05
v -0.6 -0.3 0.05
v -0.6 0.3 0.05
v -0.5 -0.3 0.05
v -0.5 0.2 0.05
v -0.3 -0.2 0.05
v -0.3 0.1 0.05
v -0.2 -0.3 0.05
v -0.2 -0.2 0.05
v -0.2 0.1 0.05
v -0.2 0.2 0.05
v -0.1 -0.3 0.05
v -0.1 -0.2 0.05
v -0.1 0.1 0.05
v -0.1 0.2 0.05
v 0 -0.2 0.05
v 0 0.1 0.05
v 0.1 0 0.05
v 0.1 0.1 0.05
v 0.2 -0.3 0.05
v 0.2 0 0.05
v 0.2 0.1 0.05
v 0.2 0.2 0.05
v 0.3 -0.3 0.05
v 0.3 0.2 0.05
v 0.5 -0.3 0.05
v 0.5 0.2 0.05
v 0.6 -0.3 0.05
v 0.6 0.3 0.05
v -0.6 -0.3 -0.05
v -0.6 0.3 -0.05
v -0.5 -0.3 -0.05
v -0.5 0.2 -0.05
v -0.3 -0.2 -0.05
v -0.3 0.1 -0.05
v -0.2 -0.3 -0.05
v -0.2 -0.2 -0.05
v -0.2 0.1 -0.05
v -0.2 0.2 -0.05
v -0.1 -0.3 -0.05
v -0.1 -0.2 -0.05
v -0.1 0.1 -0.05
v -0.1 0.2 -0.05
v 0 -0.2 -0.05
v 0 0.1 -0.05
v 0.1 0 -0.05
v 0.1 0.1 -0.05
v 0.2 -0.3 -0.05
v 0.2 0 -0.05
v 0.2 0.1 -0.05
v 0.2 0.2 -0.05
v 0.3 -0.3 -0.05
v 0.3 0.2 -0.05
v 0.5 -0.3 -0.05
v 0.5 0.2 -0.05
v 0.6 -0.3 -0.05
v 0.6 0.3 -0.05
v -0.6 -0.3 0.05
v -0.5 -0.3 0.05
v -0.2 -0.3 0.05
v -0.1 -0.3 0.05
v 0.2 -0.3 0.05
v 0.3 -0.3 0.05
v 0.5 -0.3 0.05
v 0.6 -0.3 0.05
v -0.6 -0.3 -0.05
v -0.5 -0.3 -0.05
v -0.2 -0.3 -0.05
v -0.1 -0.3 -0.05
v 0.2 -0.3 -0.05
v 0.3 -0.3 -0.05
v 0.5 -0.3 -0.05
v 0.6 -0.3 -0.05
v -0.6 0.3 0.05
v 0.6 0.3 0.05
v -0.6 0.3 -0.05
v 0.6 0.3 -0.05

# faces
f 3/2/1 2/2/1 1/2/1
f 4/2/1 2/2/1 3/2/1
f 5/2/2 6/2/2 7/2/2
f 7/2/2 6/2/2 8/2/2
f 11/2/3 10/2/3 9/2/3
f 12/2/3 10/2/3 11/2/3
f 13/3/3 12/3/3 11/3/3
f 14/3/3 12/3/3 13/3/3
f 15/3/3 13/3/3 11/3/3
f 16/1/3 14/1/3 13/1/3
f 16/3/3 13/3/3 15/3/3
f 17/3/3 12/3/3 14/3/3
f 17/1/3 14/1/3 16/1/3
f 18/2/3 10/2/3 12/2/3
f 18/3/3 12/3/3 17/3/3
f 19/1/3 16/1/3 15/1/3
f 20/3/3 17/3/3 16/3/3
f 20/1/3 16/1/3 19/1/3
f 21/1/3 18/1/3 17/1/3
f 21/3/3 17/3/3 20/3/3
f 22/2/3 10/2/3 18/2/3
f 22/1/3 18/1/3 21/1/3
f 23/1/3 21/1/3 20/1/3
f 23/3/3 20/3/3 19/3/3
f 24/3/3 22/3/3 21/3/3
f 24/1/3 21/1/3 23/1/3
f 25/3/3 24/3/3 23/3/3
f 26/3/3 22/3/3 24/3/3
f 26/3/3 24/3/3 25/3/3
f 27/3/3 23/3/3 19/3/3
f 27/3/3 25/3/3 23/3/3
f 28/1/3 26/1/3 25/1/3
f 28/3/3 25/3/3 27/3/3
f 29/3/3 22/3/3 26/3/3
f 29/1/3 26/1/3 28/1/3
f 30/2/3 10/2/3 22/2/3
f 30/3/3 22/3/3 29/3/3
f 31/1/3 29/1/3 28/1/3
f 31/1/3 28/1/3 27/1/3
f 31/1/3 30/1/3 29/1/3
f 32/2/3 10/2/3 30/2/3
f 32/1/3 30/1/3 31/1/3
f 33/3/3 32/3/3 31/3/3
f 34/2/3 10/2/3 32/2/3
f 34/3/3 32/3/3 33/3/3
f 35/2/3 34/2/3 33/2/3
f 36/2/3 10/2/3 34/2/3
f 36/2/3 34/2/3 35/2/3
f 37/2/4 38/2/4 39/2/4
f 39/2/4 38/2/4 40/2/4
f 39/3/4 40/3/4 41/3/4
f 41/3/4 40/3/4 42/3/4
f 39/3/4 41/3/4 43/3/4
f 41/1/4 42/1/4 44/1/4
f 43/3/4 41/3/4 44/3/4
f 42/3/4 40/3/4 45/3/4
f 44/1/4 42/1/4 45/1/4
f 40/2/4 38/2/4 46/2/4
f 45/3/4 40/3/4 46/3/4
f 43/1/4 44/1/4 47/1/4
f 44/3/4 45/3/4 48/3/4
f 47/1/4 44/1/4 48/1/4
f 45/1/4 46/1/4 49/1/4
f 48/3/4 45/3/4 49/3/4
f 46/2/4 38/2/4 50/2/4
f 49/1/4 46/1/4 50/1/4
f 48/1/4 49/1/4 51/1/4
f 47/3/4 48/3/4 51/3/4
f 49/3/4 50/3/4 52/3/4
f 51/1/4 49/1/4 52/1/4
f 51/3/4 52/3/4 53/3/4
f 52/3/4 50/3/4 54/3/4
f 53/3/4 52/3/4 54/3/4
f 47/3/4 51/3/4 55/3/4
f 51/3/4 53/3/4 55/3/4
f 53/1/4 54/1/4 56/1/4
f 55/3/4 53/3/4 56/3/4
f 54/3/4 50/3/4 57/3/4
f 56/1/4 54/1/4 57/1/4
f 50/2/4 38/2/4 58/2/4
f 57/3/4 50/3/4 58/3/4
f 56/1/4 57/1/4 59/1/4
f 55/1/4 56/1/4 59/1/4
f 57/1/4 58/1/4 59/1/4
f 58/2/4 38/2/4 60/2/4
f 59/1/4 58/1/4 60/1/4
f 59/3/4 60/3/4 61/3/4
f 60/2/4 38/2/4 62/2/4
f 61/3/4 60/3/4 62/3/4
f 61/2/4 62/2/4 63/2/4
f 62/2/4 38/2/4 64/2/4
f 63/2/4 62/2/4 64/2/4
f 73/2/5 66/2/5 65/2/5
f 74/3/5 67/3/5 66/3/5
f 74/2/5 66/2/5 73/2/5
f 75/1/5 68/1/5 67/1/5
f 75/3/5 67/3/5 74/3/5
f 76/3/5 69/3/5 68/3/5
f 76/1/5 68/1/5 75/1/5
f 77/1/5 70/1/5 69/1/5
f 77/3/5 69/3/5 76/3/5
f 78/3/5 71/3/5 70/3/5
f 78/1/5 70/1/5 77/1/5
f 79/2/5 72/2/5 71/2/5
f 79/3/5 71/3/5 78/3/5
f 80/2/5 72/2/5 79/2/5
f 81/2/6 82/2/6 83/2/6
f 83/2/6 82/2/6 84/2/6
