# MagicaVoxel @ Ephtracy

# group
o 

# material
mtllib stairs_shard-11.mtl
usemtl palette

# normals
vn 0 -1 0
vn 0 1 0
vn 0 0 -1
vn 0 0 1
vn 1 0 0
vn -1 0 0

# texcoords
vt 0.505859 0.5
vt 0.673828 0.5
vt 0.982422 0.5

# verts
v 0.5 0.5 0.1
v 0.5 0.5 0.4
v 0.4 0.5 0.1
v 0.4 0.5 0.2
v 0.4 0.5 0.4
v 0.3 0.5 0.2
v 0.3 0.5 0.4
v 0.2 0.5 0.5
v 0.2 0.5 0.6
v 0.1 0.5 0.5
v 0.1 0.5 0.6
v 0.1 0.5 0.8
v 0.1 0.5 0.9
v 0 0.5 0.6
v 0 0.5 0.8
v -0.1 0.5 0.8
v -0.1 0.5 0.9
v -0.4 0.5 0.4
v -0.4 0.5 0.8
v -0.4 0.5 0.9
v -0.5 0.5 0.4
v -0.5 0.5 0.8
v -0.6 0.5 0.4
v -0.6 0.5 0.9
v 0.5 0.6 -0.7
v 0.5 0.6 0.1
v 0.4 0.6 -0.7
v 0.4 0.6 0.1
v 0.4 0.6 0.2
v 0.3 0.6 -0.7
v 0.3 0.6 0.2
v 0.3 0.6 0.4
v 0.2 0.6 -0.7
v 0.2 0.6 -0.4
v 0.2 0.6 -0.2
v 0.2 0.6 0.4
v 0.2 0.6 0.5
v 0.1 0.6 -0.4
v 0.1 0.6 -0.3
v 0.1 0.6 0.5
v 0.1 0.6 0.6
v 0 0.6 -0.7
v 0 0.6 -0.3
v 0 0.6 -0.2
v 0 0.6 0
v 0 0.6 0.1
v 0 0.6 0.6
v 0 0.6 0.8
v -0.1 0.6 -0.7
v -0.1 0.6 -0.6
v -0.1 0.6 0
v -0.1 0.6 0.1
v -0.1 0.6 0.3
v -0.1 0.6 0.6
v -0.1 0.6 0.8
v -0.1 0.6 0.9
v -0.2 0.6 -0.6
v -0.2 0.6 -0.4
v -0.2 0.6 0.3
v -0.2 0.6 0.6
v -0.3 0.6 -0.4
v -0.3 0.6 0.1
v -0.3 0.6 0.2
v -0.3 0.6 0.8
v -0.4 0.6 -0.4
v -0.4 0.6 -0.2
v -0.4 0.6 0.1
v -0.4 0.6 0.2
v -0.4 0.6 0.3
v -0.4 0.6 0.4
v -0.4 0.6 0.8
v -0.4 0.6 0.9
v -0.5 0.6 -0.4
v -0.5 0.6 -0.2
v -0.5 0.6 0.3
v -0.5 0.6 0.4
v -0.6 0.6 0.3
v -0.6 0.6 0.4
v 0.5 0.6 0.1
v 0.5 0.6 0.4
v 0.4 0.6 0.1
v 0.4 0.6 0.2
v 0.4 0.6 0.4
v 0.3 0.6 0.2
v 0.3 0.6 0.4
v 0.2 0.6 0.5
v 0.2 0.6 0.6
v 0.1 0.6 0.5
v 0.1 0.6 0.6
v 0.1 0.6 0.8
v 0.1 0.6 0.9
v 0 0.6 0.6
v 0 0.6 0.8
v -0.1 0.6 0.8
v -0.1 0.6 0.9
v -0.4 0.6 0.4
v -0.4 0.6 0.8
v -0.4 0.6 0.9
v -0.5 0.6 0.4
v -0.5 0.6 0.8
v -0.6 0.6 0.4
v -0.6 0.6 0.9
v 0.5 0.7 -0.7
v 0.5 0.7 0.1
v 0.4 0.7 -0.7
v 0.4 0.7 0.1
v 0.4 0.7 0.2
v 0.3 0.7 -0.7
v 0.3 0.7 0.2
v 0.3 0.7 0.4
v 0.2 0.7 -0.7
v 0.2 0.7 -0.4
v 0.2 0.7 -0.2
v 0.2 0.7 0.4
v 0.2 0.7 0.5
v 0.1 0.7 -0.4
v 0.1 0.7 -0.3
v 0.1 0.7 0.5
v 0.1 0.7 0.6
v 0 0.7 -0.7
v 0 0.7 -0.3
v 0 0.7 -0.2
v 0 0.7 0
v 0 0.7 0.1
v 0 0.7 0.6
v 0 0.7 0.8
v -0.1 0.7 -0.7
v -0.1 0.7 -0.6
v -0.1 0.7 0
v -0.1 0.7 0.1
v -0.1 0.7 0.3
v -0.1 0.7 0.6
v -0.1 0.7 0.8
v -0.1 0.7 0.9
v -0.2 0.7 -0.6
v -0.2 0.7 -0.4
v -0.2 0.7 0.3
v -0.2 0.7 0.6
v -0.3 0.7 -0.4
v -0.3 0.7 0.1
v -0.3 0.7 0.2
v -0.3 0.7 0.8
v -0.4 0.7 -0.4
v -0.4 0.7 -0.2
v -0.4 0.7 0.1
v -0.4 0.7 0.2
v -0.4 0.7 0.3
v -0.4 0.7 0.4
v -0.4 0.7 0.8
v -0.4 0.7 0.9
v -0.5 0.7 -0.4
v -0.5 0.7 -0.2
v -0.5 0.7 0.3
v -0.5 0.7 0.4
v -0.6 0.7 0.3
v -0.6 0.7 0.4
v 0.5 0.6 -0.7
v 0.4 0.6 -0.7
v 0.3 0.6 -0.7
v 0.2 0.6 -0.7
v 0 0.6 -0.7
v -0.1 0.6 -0.7
v 0.5 0.7 -0.7
v 0.4 0.7 -0.7
v 0.3 0.7 -0.7
v 0.2 0.7 -0.7
v 0 0.7 -0.7
v -0.1 0.7 -0.7
v -0.1 0.6 -0.6
v -0.2 0.6 -0.6
v -0.1 0.7 -0.6
v -0.2 0.7 -0.6
v -0.2 0.6 -0.4
v -0.3 0.6 -0.4
v -0.4 0.6 -0.4
v -0.5 0.6 -0.4
v -0.2 0.7 -0.4
v -0.3 0.7 -0.4
v -0.4 0.7 -0.4
v -0.5 0.7 -0.4
v 0.2 0.6 -0.2
v 0 0.6 -0.2
v 0.2 0.7 -0.2
v 0 0.7 -0.2
v 0.5 0.5 0.1
v 0.4 0.5 0.1
v 0.5 0.6 0.1
v 0.4 0.6 0.1
v 0 0.6 0.1
v -0.1 0.6 0.1
v 0 0.7 0.1
v -0.1 0.7 0.1
v 0.4 0.5 0.2
v 0.3 0.5 0.2
v 0.4 0.6 0.2
v 0.3 0.6 0.2
v -0.3 0.6 0.2
v -0.4 0.6 0.2
v -0.3 0.7 0.2
v -0.4 0.7 0.2
v -0.4 0.6 0.3
v -0.5 0.6 0.3
v -0.6 0.6 0.3
v -0.4 0.7 0.3
v -0.5 0.7 0.3
v -0.6 0.7 0.3
v -0.4 0.5 0.4
v -0.5 0.5 0.4
v -0.6 0.5 0.4
v -0.4 0.6 0.4
v -0.5 0.6 0.4
v -0.6 0.6 0.4
v 0.2 0.5 0.5
v 0.1 0.5 0.5
v 0.2 0.6 0.5
v 0.1 0.6 0.5
v 0.1 0.5 0.6
v 0 0.5 0.6
v 0.1 0.6 0.6
v 0 0.6 0.6
v -0.1 0.6 0.6
v -0.2 0.6 0.6
v -0.1 0.7 0.6
v -0.2 0.7 0.6
v 0 0.5 0.8
v -0.1 0.5 0.8
v 0 0.6 0.8
v -0.1 0.6 0.8
v 0.2 0.6 -0.4
v 0.1 0.6 -0.4
v 0.2 0.7 -0.4
v 0.1 0.7 -0.4
v 0.1 0.6 -0.3
v 0 0.6 -0.3
v 0.1 0.7 -0.3
v 0 0.7 -0.3
v -0.4 0.6 -0.2
v -0.5 0.6 -0.2
v -0.4 0.7 -0.2
v -0.5 0.7 -0.2
v 0 0.6 0
v -0.1 0.6 0
v 0 0.7 0
v -0.1 0.7 0
v 0.5 0.6 0.1
v 0.4 0.6 0.1
v -0.3 0.6 0.1
v -0.4 0.6 0.1
v 0.5 0.7 0.1
v 0.4 0.7 0.1
v -0.3 0.7 0.1
v -0.4 0.7 0.1
v 0.4 0.6 0.2
v 0.3 0.6 0.2
v 0.4 0.7 0.2
v 0.3 0.7 0.2
v -0.1 0.6 0.3
v -0.2 0.6 0.3
v -0.1 0.7 0.3
v -0.2 0.7 0.3
v 0.5 0.5 0.4
v 0.4 0.5 0.4
v 0.3 0.5 0.4
v 0.5 0.6 0.4
v 0.4 0.6 0.4
v 0.3 0.6 0.4
v 0.2 0.6 0.4
v -0.4 0.6 0.4
v -0.5 0.6 0.4
v -0.6 0.6 0.4
v 0.3 0.7 0.4
v 0.2 0.7 0.4
v -0.4 0.7 0.4
v -0.5 0.7 0.4
v -0.6 0.7 0.4
v 0.2 0.6 0.5
v 0.1 0.6 0.5
v 0.2 0.7 0.5
v 0.1 0.7 0.5
v 0.2 0.5 0.6
v 0.1 0.5 0.6
v 0.2 0.6 0.6
v 0.1 0.6 0.6
v 0 0.6 0.6
v 0.1 0.7 0.6
v 0 0.7 0.6
v 0 0.6 0.8
v -0.1 0.6 0.8
v 0 0.7 0.8
v -0.1 0.7 0.8
v 0.1 0.5 0.9
v -0.1 0.5 0.9
v -0.4 0.5 0.9
v -0.6 0.5 0.9
v 0.1 0.6 0.9
v -0.1 0.6 0.9
v -0.4 0.6 0.9
v -0.6 0.6 0.9
v -0.1 0.7 0.9
v -0.4 0.7 0.9
v 0.5 0.6 -0.7
v 0.5 0.7 -0.7
v 0.5 0.5 0.1
v 0.5 0.6 0.1
v 0.5 0.7 0.1
v 0.5 0.5 0.4
v 0.5 0.6 0.4
v 0.4 0.6 0.1
v 0.4 0.7 0.1
v 0.4 0.6 0.2
v 0.4 0.7 0.2
v 0.3 0.6 0.2
v 0.3 0.7 0.2
v 0.3 0.6 0.4
v 0.3 0.7 0.4
v 0.2 0.6 0.4
v 0.2 0.7 0.4
v 0.2 0.5 0.5
v 0.2 0.6 0.5
v 0.2 0.7 0.5
v 0.2 0.5 0.6
v 0.2 0.6 0.6
v 0.1 0.6 -0.4
v 0.1 0.7 -0.4
v 0.1 0.6 -0.3
v 0.1 0.7 -0.3
v 0.1 0.6 0.5
v 0.1 0.7 0.5
v 0.1 0.5 0.6
v 0.1 0.6 0.6
v 0.1 0.7 0.6
v 0.1 0.5 0.8
v 0.1 0.6 0.8
v 0.1 0.5 0.9
v 0.1 0.6 0.9
v 0 0.6 -0.3
v 0 0.7 -0.3
v 0 0.6 -0.2
v 0 0.7 -0.2
v 0 0.6 0.6
v 0 0.7 0.6
v 0 0.6 0.8
v 0 0.7 0.8
v -0.1 0.6 0
v -0.1 0.7 0
v -0.1 0.6 0.1
v -0.1 0.7 0.1
v -0.1 0.6 0.8
v -0.1 0.7 0.8
v -0.1 0.6 0.9
v -0.1 0.7 0.9
v -0.2 0.6 0.3
v -0.2 0.7 0.3
v -0.2 0.6 0.6
v -0.2 0.7 0.6
v -0.4 0.5 0.4
v -0.4 0.6 0.4
v -0.4 0.5 0.8
v -0.4 0.6 0.8
v -0.4 0.5 0.9
v -0.4 0.6 0.9
v 0.4 0.5 0.1
v 0.4 0.6 0.1
v 0.4 0.5 0.2
v 0.4 0.6 0.2
v 0.3 0.5 0.2
v 0.3 0.6 0.2
v 0.3 0.5 0.4
v 0.3 0.6 0.4
v 0.2 0.6 -0.4
v 0.2 0.7 -0.4
v 0.2 0.6 -0.2
v 0.2 0.7 -0.2
v 0.1 0.5 0.5
v 0.1 0.6 0.5
v 0.1 0.5 0.6
v 0.1 0.6 0.6
v 0 0.6 0
v 0 0.7 0
v 0 0.6 0.1
v 0 0.7 0.1
v 0 0.5 0.6
v 0 0.6 0.6
v 0 0.5 0.8
v 0 0.6 0.8
v -0.1 0.6 -0.7
v -0.1 0.7 -0.7
v -0.1 0.6 -0.6
v -0.1 0.7 -0.6
v -0.1 0.6 0.3
v -0.1 0.7 0.3
v -0.1 0.6 0.6
v -0.1 0.7 0.6
v -0.1 0.5 0.8
v -0.1 0.6 0.8
v -0.1 0.5 0.9
v -0.1 0.6 0.9
v -0.2 0.6 -0.6
v -0.2 0.7 -0.6
v -0.2 0.6 -0.4
v -0.2 0.7 -0.4
v -0.3 0.6 0.1
v -0.3 0.7 0.1
v -0.3 0.6 0.2
v -0.3 0.7 0.2
v -0.4 0.6 -0.2
v -0.4 0.7 -0.2
v -0.4 0.6 0.1
v -0.4 0.7 0.1
v -0.4 0.6 0.2
v -0.4 0.7 0.2
v -0.4 0.6 0.3
v -0.4 0.7 0.3
v -0.4 0.6 0.4
v -0.4 0.7 0.4
v -0.4 0.6 0.8
v -0.4 0.7 0.8
v -0.4 0.6 0.9
v -0.4 0.7 0.9
v -0.5 0.6 -0.4
v -0.5 0.7 -0.4
v -0.5 0.6 -0.2
v -0.5 0.7 -0.2
v -0.6 0.6 0.3
v -0.6 0.7 0.3
v -0.6 0.5 0.4
v -0.6 0.6 0.4
v -0.6 0.7 0.4
v -0.6 0.5 0.9
v -0.6 0.6 0.9

# faces
f 1/2/1 2/2/1 3/2/1
f 3/2/1 2/2/1 4/2/1
f 4/2/1 2/2/1 5/2/1
f 4/1/1 5/1/1 6/1/1
f 6/1/1 5/1/1 7/1/1
f 8/1/1 9/1/1 10/1/1
f 10/1/1 9/1/1 11/1/1
f 11/1/1 12/1/1 14/1/1
f 12/2/1 13/2/1 15/2/1
f 14/1/1 12/1/1 15/1/1
f 15/2/1 13/2/1 16/2/1
f 16/2/1 13/2/1 17/2/1
f 18/1/1 19/1/1 21/1/1
f 19/2/1 20/2/1 22/2/1
f 21/1/1 19/1/1 22/1/1
f 21/2/1 22/2/1 23/2/1
f 22/2/1 20/2/1 24/2/1
f 23/2/1 22/2/1 24/2/1
f 25/2/1 26/2/1 27/2/1
f 27/2/1 26/2/1 28/2/1
f 27/1/1 28/1/1 30/1/1
f 28/1/1 29/1/1 30/1/1
f 30/1/1 29/1/1 31/1/1
f 30/3/1 31/3/1 33/3/1
f 31/3/1 32/3/1 33/3/1
f 33/3/1 32/3/1 34/3/1
f 34/3/1 32/3/1 35/3/1
f 35/3/1 32/3/1 36/3/1
f 33/1/1 34/1/1 38/1/1
f 36/1/1 37/1/1 40/1/1
f 35/1/1 36/1/1 40/1/1
f 38/1/1 39/1/1 42/1/1
f 33/1/1 38/1/1 42/1/1
f 42/1/1 39/1/1 43/1/1
f 40/1/1 41/1/1 44/1/1
f 35/1/1 40/1/1 44/1/1
f 44/1/1 41/1/1 45/1/1
f 45/1/1 41/1/1 46/1/1
f 46/1/1 41/1/1 47/1/1
f 42/3/1 43/3/1 49/3/1
f 43/3/1 44/3/1 49/3/1
f 44/3/1 45/3/1 49/3/1
f 49/3/1 45/3/1 50/3/1
f 50/3/1 45/3/1 51/3/1
f 47/3/1 48/3/1 52/3/1
f 46/3/1 47/3/1 52/3/1
f 52/3/1 48/3/1 53/3/1
f 53/3/1 48/3/1 54/3/1
f 54/3/1 48/3/1 55/3/1
f 50/1/1 51/1/1 57/1/1
f 51/1/1 52/1/1 57/1/1
f 52/1/1 53/1/1 57/1/1
f 57/1/1 53/1/1 58/1/1
f 58/1/1 53/1/1 59/1/1
f 54/1/1 55/1/1 60/1/1
f 58/1/1 59/1/1 61/1/1
f 59/1/1 60/1/1 61/1/1
f 61/1/1 60/1/1 62/1/1
f 62/1/1 60/1/1 63/1/1
f 55/2/1 56/2/1 64/2/1
f 63/1/1 60/1/1 64/1/1
f 60/1/1 55/1/1 64/1/1
f 61/3/1 62/3/1 65/3/1
f 65/3/1 62/3/1 66/3/1
f 66/3/1 62/3/1 67/3/1
f 63/3/1 64/3/1 68/3/1
f 68/3/1 64/3/1 69/3/1
f 69/3/1 64/3/1 70/3/1
f 64/2/1 56/2/1 71/2/1
f 70/3/1 64/3/1 71/3/1
f 71/2/1 56/2/1 72/2/1
f 65/1/1 66/1/1 73/1/1
f 73/1/1 66/1/1 74/1/1
f 69/1/1 70/1/1 75/1/1
f 75/1/1 70/1/1 76/1/1
f 75/2/1 76/2/1 77/2/1
f 77/2/1 76/2/1 78/2/1
f 81/2/2 80/2/2 79/2/2
f 82/2/2 80/2/2 81/2/2
f 83/2/2 80/2/2 82/2/2
f 84/1/2 83/1/2 82/1/2
f 85/1/2 83/1/2 84/1/2
f 88/1/2 87/1/2 86/1/2
f 89/1/2 87/1/2 88/1/2
f 92/1/2 90/1/2 89/1/2
f 93/2/2 91/2/2 90/2/2
f 93/1/2 90/1/2 92/1/2
f 94/2/2 91/2/2 93/2/2
f 95/2/2 91/2/2 94/2/2
f 99/1/2 97/1/2 96/1/2
f 100/2/2 98/2/2 97/2/2
f 100/1/2 97/1/2 99/1/2
f 101/2/2 100/2/2 99/2/2
f 102/2/2 98/2/2 100/2/2
f 102/2/2 100/2/2 101/2/2
f 105/2/2 104/2/2 103/2/2
f 106/2/2 104/2/2 105/2/2
f 108/1/2 106/1/2 105/1/2
f 108/1/2 107/1/2 106/1/2
f 109/1/2 107/1/2 108/1/2
f 111/3/2 109/3/2 108/3/2
f 111/3/2 110/3/2 109/3/2
f 112/3/2 110/3/2 111/3/2
f 113/3/2 110/3/2 112/3/2
f 114/3/2 110/3/2 113/3/2
f 116/1/2 112/1/2 111/1/2
f 118/1/2 115/1/2 114/1/2
f 118/1/2 114/1/2 113/1/2
f 120/1/2 117/1/2 116/1/2
f 120/1/2 116/1/2 111/1/2
f 121/1/2 117/1/2 120/1/2
f 122/1/2 119/1/2 118/1/2
f 122/1/2 118/1/2 113/1/2
f 123/1/2 119/1/2 122/1/2
f 124/1/2 119/1/2 123/1/2
f 125/1/2 119/1/2 124/1/2
f 127/3/2 121/3/2 120/3/2
f 127/3/2 122/3/2 121/3/2
f 127/3/2 123/3/2 122/3/2
f 128/3/2 123/3/2 127/3/2
f 129/3/2 123/3/2 128/3/2
f 130/3/2 126/3/2 125/3/2
f 130/3/2 125/3/2 124/3/2
f 131/3/2 126/3/2 130/3/2
f 132/3/2 126/3/2 131/3/2
f 133/3/2 126/3/2 132/3/2
f 135/1/2 129/1/2 128/1/2
f 135/1/2 130/1/2 129/1/2
f 135/1/2 131/1/2 130/1/2
f 136/1/2 131/1/2 135/1/2
f 137/1/2 131/1/2 136/1/2
f 138/1/2 133/1/2 132/1/2
f 139/1/2 137/1/2 136/1/2
f 139/1/2 138/1/2 137/1/2
f 140/1/2 138/1/2 139/1/2
f 141/1/2 138/1/2 140/1/2
f 142/2/2 134/2/2 133/2/2
f 142/1/2 138/1/2 141/1/2
f 142/1/2 133/1/2 138/1/2
f 143/3/2 140/3/2 139/3/2
f 144/3/2 140/3/2 143/3/2
f 145/3/2 140/3/2 144/3/2
f 146/3/2 142/3/2 141/3/2
f 147/3/2 142/3/2 146/3/2
f 148/3/2 142/3/2 147/3/2
f 149/2/2 134/2/2 142/2/2
f 149/3/2 142/3/2 148/3/2
f 150/2/2 134/2/2 149/2/2
f 151/1/2 144/1/2 143/1/2
f 152/1/2 144/1/2 151/1/2
f 153/1/2 148/1/2 147/1/2
f 154/1/2 148/1/2 153/1/2
f 155/2/2 154/2/2 153/2/2
f 156/2/2 154/2/2 155/2/2
f 157/2/3 158/2/3 163/2/3
f 158/1/3 159/1/3 164/1/3
f 163/2/3 158/2/3 164/2/3
f 159/3/3 160/3/3 165/3/3
f 164/1/3 159/1/3 165/1/3
f 160/1/3 161/1/3 166/1/3
f 165/3/3 160/3/3 166/3/3
f 161/3/3 162/3/3 167/3/3
f 166/1/3 161/1/3 167/1/3
f 167/3/3 162/3/3 168/3/3
f 169/1/3 170/1/3 171/1/3
f 171/1/3 170/1/3 172/1/3
f 173/1/3 174/1/3 177/1/3
f 174/3/3 175/3/3 178/3/3
f 177/1/3 174/1/3 178/1/3
f 175/1/3 176/1/3 179/1/3
f 178/3/3 175/3/3 179/3/3
f 179/1/3 176/1/3 180/1/3
f 181/1/3 182/1/3 183/1/3
f 183/1/3 182/1/3 184/1/3
f 185/2/3 186/2/3 187/2/3
f 187/2/3 186/2/3 188/2/3
f 189/3/3 190/3/3 191/3/3
f 191/3/3 190/3/3 192/3/3
f 193/1/3 194/1/3 195/1/3
f 195/1/3 194/1/3 196/1/3
f 197/3/3 198/3/3 199/3/3
f 199/3/3 198/3/3 200/3/3
f 201/1/3 202/1/3 204/1/3
f 202/2/3 203/2/3 205/2/3
f 204/1/3 202/1/3 205/1/3
f 205/2/3 203/2/3 206/2/3
f 207/1/3 208/1/3 210/1/3
f 208/2/3 209/2/3 211/2/3
f 210/1/3 208/1/3 211/1/3
f 211/2/3 209/2/3 212/2/3
f 213/1/3 214/1/3 215/1/3
f 215/1/3 214/1/3 216/1/3
f 217/1/3 218/1/3 219/1/3
f 219/1/3 218/1/3 220/1/3
f 221/1/3 222/1/3 223/1/3
f 223/1/3 222/1/3 224/1/3
f 225/2/3 226/2/3 227/2/3
f 227/2/3 226/2/3 228/2/3
f 231/1/4 230/1/4 229/1/4
f 232/1/4 230/1/4 231/1/4
f 235/1/4 234/1/4 233/1/4
f 236/1/4 234/1/4 235/1/4
f 239/1/4 238/1/4 237/1/4
f 240/1/4 238/1/4 239/1/4
f 243/3/4 242/3/4 241/3/4
f 244/3/4 242/3/4 243/3/4
f 249/2/4 246/2/4 245/2/4
f 250/2/4 246/2/4 249/2/4
f 251/3/4 248/3/4 247/3/4
f 252/3/4 248/3/4 251/3/4
f 255/1/4 254/1/4 253/1/4
f 256/1/4 254/1/4 255/1/4
f 259/1/4 258/1/4 257/1/4
f 260/1/4 258/1/4 259/1/4
f 264/2/4 262/2/4 261/2/4
f 265/1/4 263/1/4 262/1/4
f 265/2/4 262/2/4 264/2/4
f 266/1/4 263/1/4 265/1/4
f 271/3/4 267/3/4 266/3/4
f 272/3/4 267/3/4 271/3/4
f 273/1/4 269/1/4 268/1/4
f 274/2/4 270/2/4 269/2/4
f 274/1/4 269/1/4 273/1/4
f 275/2/4 270/2/4 274/2/4
f 278/1/4 277/1/4 276/1/4
f 279/1/4 277/1/4 278/1/4
f 282/1/4 281/1/4 280/1/4
f 283/1/4 281/1/4 282/1/4
f 285/1/4 284/1/4 283/1/4
f 286/1/4 284/1/4 285/1/4
f 289/3/4 288/3/4 287/3/4
f 290/3/4 288/3/4 289/3/4
f 295/2/4 292/2/4 291/2/4
f 296/2/4 292/2/4 295/2/4
f 297/2/4 294/2/4 293/2/4
f 298/2/4 294/2/4 297/2/4
f 299/2/4 297/2/4 296/2/4
f 300/2/4 297/2/4 299/2/4
f 301/2/5 302/2/5 304/2/5
f 304/2/5 302/2/5 305/2/5
f 303/2/5 304/2/5 306/2/5
f 306/2/5 304/2/5 307/2/5
f 308/1/5 309/1/5 310/1/5
f 310/1/5 309/1/5 311/1/5
f 312/3/5 313/3/5 314/3/5
f 314/3/5 313/3/5 315/3/5
f 316/1/5 317/1/5 319/1/5
f 319/1/5 317/1/5 320/1/5
f 318/1/5 319/1/5 321/1/5
f 321/1/5 319/1/5 322/1/5
f 323/1/5 324/1/5 325/1/5
f 325/1/5 324/1/5 326/1/5
f 327/1/5 328/1/5 330/1/5
f 330/1/5 328/1/5 331/1/5
f 329/1/5 330/1/5 332/1/5
f 332/1/5 330/1/5 333/1/5
f 332/2/5 333/2/5 334/2/5
f 334/2/5 333/2/5 335/2/5
f 336/3/5 337/3/5 338/3/5
f 338/3/5 337/3/5 339/3/5
f 340/3/5 341/3/5 342/3/5
f 342/3/5 341/3/5 343/3/5
f 344/1/5 345/1/5 346/1/5
f 346/1/5 345/1/5 347/1/5
f 348/2/5 349/2/5 350/2/5
f 350/2/5 349/2/5 351/2/5
f 352/1/5 353/1/5 354/1/5
f 354/1/5 353/1/5 355/1/5
f 356/1/5 357/1/5 358/1/5
f 358/1/5 357/1/5 359/1/5
f 358/2/5 359/2/5 360/2/5
f 360/2/5 359/2/5 361/2/5
f 364/2/6 363/2/6 362/2/6
f 365/2/6 363/2/6 364/2/6
f 368/1/6 367/1/6 366/1/6
f 369/1/6 367/1/6 368/1/6
f 372/3/6 371/3/6 370/3/6
f 373/3/6 371/3/6 372/3/6
f 376/1/6 375/1/6 374/1/6
f 377/1/6 375/1/6 376/1/6
f 380/1/6 379/1/6 378/1/6
f 381/1/6 379/1/6 380/1/6
f 384/1/6 383/1/6 382/1/6
f 385/1/6 383/1/6 384/1/6
f 388/3/6 387/3/6 386/3/6
f 389/3/6 387/3/6 388/3/6
f 392/3/6 391/3/6 390/3/6
f 393/3/6 391/3/6 392/3/6
f 396/2/6 395/2/6 394/2/6
f 397/2/6 395/2/6 396/2/6
f 400/1/6 399/1/6 398/1/6
f 401/1/6 399/1/6 400/1/6
f 404/1/6 403/1/6 402/1/6
f 405/1/6 403/1/6 404/1/6
f 408/3/6 407/3/6 406/3/6
f 409/3/6 407/3/6 408/3/6
f 412/3/6 411/3/6 410/3/6
f 413/3/6 411/3/6 412/3/6
f 416/3/6 415/3/6 414/3/6
f 417/3/6 415/3/6 416/3/6
f 418/2/6 417/2/6 416/2/6
f 419/2/6 417/2/6 418/2/6
f 422/1/6 421/1/6 420/1/6
f 423/1/6 421/1/6 422/1/6
f 427/2/6 425/2/6 424/2/6
f 428/2/6 425/2/6 427/2/6
f 429/2/6 427/2/6 426/2/6
f 430/2/6 427/2/6 429/2/6
