# MagicaVoxel @ Ephtracy

# group
o 

# material
mtllib stairs_shard-12.mtl
usemtl palette

# normals
vn 0 -1 0
vn 0 1 0
vn 0 0 -1
vn 0 0 1
vn 1 0 0
vn -1 0 0

# texcoords
vt 0.505859 0.5
vt 0.673828 0.5
vt 0.982422 0.5

# verts
v 0.4 0.6 -0.7
v 0.4 0.6 0.9
v 0.3 0.6 -0.7
v 0.3 0.6 0.8
v 0.2 0.6 -0.7
v 0.2 0.6 0.8
v 0.1 0.6 -0.7
v 0.1 0.6 0.8
v -0.1 0.6 -0.7
v -0.1 0.6 0.8
v -0.2 0.6 -0.7
v -0.2 0.6 0.8
v -0.4 0.6 -0.7
v -0.4 0.6 0.8
v -0.5 0.6 -0.7
v -0.5 0.6 0.8
v -0.6 0.6 -0.7
v -0.6 0.6 0.8
v -0.7 0.6 -0.7
v -0.7 0.6 0.9
v 0.4 0.7 -0.7
v 0.4 0.7 0.9
v 0.3 0.7 -0.7
v 0.3 0.7 0.8
v 0.2 0.7 -0.7
v 0.2 0.7 0.8
v 0.1 0.7 -0.7
v 0.1 0.7 0.8
v -0.1 0.7 -0.7
v -0.1 0.7 0.8
v -0.2 0.7 -0.7
v -0.2 0.7 0.8
v -0.4 0.7 -0.7
v -0.4 0.7 0.8
v -0.5 0.7 -0.7
v -0.5 0.7 0.8
v -0.6 0.7 -0.7
v -0.6 0.7 0.8
v -0.7 0.7 -0.7
v -0.7 0.7 0.9
v 0.4 0.6 -0.7
v 0.3 0.6 -0.7
v 0.2 0.6 -0.7
v 0.1 0.6 -0.7
v -0.1 0.6 -0.7
v -0.2 0.6 -0.7
v -0.4 0.6 -0.7
v -0.5 0.6 -0.7
v -0.6 0.6 -0.7
v -0.7 0.6 -0.7
v 0.4 0.7 -0.7
v 0.3 0.7 -0.7
v 0.2 0.7 -0.7
v 0.1 0.7 -0.7
v -0.1 0.7 -0.7
v -0.2 0.7 -0.7
v -0.4 0.7 -0.7
v -0.5 0.7 -0.7
v -0.6 0.7 -0.7
v -0.7 0.7 -0.7
v 0.4 0.6 0.9
v -0.7 0.6 0.9
v 0.4 0.7 0.9
v -0.7 0.7 0.9
v 0.4 0.6 -0.7
v 0.4 0.7 -0.7
v 0.4 0.6 0.9
v 0.4 0.7 0.9
v -0.7 0.6 -0.7
v -0.7 0.7 -0.7
v -0.7 0.6 0.9
v -0.7 0.7 0.9

# faces
f 1/2/1 2/2/1 3/2/1
f 3/2/1 2/2/1 4/2/1
f 3/1/1 4/1/1 5/1/1
f 4/2/1 2/2/1 6/2/1
f 5/1/1 4/1/1 6/1/1
f 5/3/1 6/3/1 7/3/1
f 6/2/1 2/2/1 8/2/1
f 7/3/1 6/3/1 8/3/1
f 7/1/1 8/1/1 9/1/1
f 8/2/1 2/2/1 10/2/1
f 9/1/1 8/1/1 10/1/1
f 9/3/1 10/3/1 11/3/1
f 10/2/1 2/2/1 12/2/1
f 11/3/1 10/3/1 12/3/1
f 11/1/1 12/1/1 13/1/1
f 12/2/1 2/2/1 14/2/1
f 13/1/1 12/1/1 14/1/1
f 13/3/1 14/3/1 15/3/1
f 14/2/1 2/2/1 16/2/1
f 15/3/1 14/3/1 16/3/1
f 15/1/1 16/1/1 17/1/1
f 16/2/1 2/2/1 18/2/1
f 17/1/1 16/1/1 18/1/1
f 17/2/1 18/2/1 19/2/1
f 18/2/1 2/2/1 20/2/1
f 19/2/1 18/2/1 20/2/1
f 23/2/2 22/2/2 21/2/2
f 24/2/2 22/2/2 23/2/2
f 25/1/2 24/1/2 23/1/2
f 26/2/2 22/2/2 24/2/2
f 26/1/2 24/1/2 25/1/2
f 27/3/2 26/3/2 25/3/2
f 28/2/2 22/2/2 26/2/2
f 28/3/2 26/3/2 27/3/2
f 29/1/2 28/1/2 27/1/2
f 30/2/2 22/2/2 28/2/2
f 30/1/2 28/1/2 29/1/2
f 31/3/2 30/3/2 29/3/2
f 32/2/2 22/2/2 30/2/2
f 32/3/2 30/3/2 31/3/2
f 33/1/2 32/1/2 31/1/2
f 34/2/2 22/2/2 32/2/2
f 34/1/2 32/1/2 33/1/2
f 35/3/2 34/3/2 33/3/2
f 36/2/2 22/2/2 34/2/2
f 36/3/2 34/3/2 35/3/2
f 37/1/2 36/1/2 35/1/2
f 38/2/2 22/2/2 36/2/2
f 38/1/2 36/1/2 37/1/2
f 39/2/2 38/2/2 37/2/2
f 40/2/2 22/2/2 38/2/2
f 40/2/2 38/2/2 39/2/2
f 41/2/3 42/2/3 51/2/3
f 42/1/3 43/1/3 52/1/3
f 51/2/3 42/2/3 52/2/3
f 43/3/3 44/3/3 53/3/3
f 52/1/3 43/1/3 53/1/3
f 44/1/3 45/1/3 54/1/3
f 53/3/3 44/3/3 54/3/3
f 45/3/3 46/3/3 55/3/3
f 54/1/3 45/1/3 55/1/3
f 46/1/3 47/1/3 56/1/3
f 55/3/3 46/3/3 56/3/3
f 47/3/3 48/3/3 57/3/3
f 56/1/3 47/1/3 57/1/3
f 48/1/3 49/1/3 58/1/3
f 57/3/3 48/3/3 58/3/3
f 49/2/3 50/2/3 59/2/3
f 58/1/3 49/1/3 59/1/3
f 59/2/3 50/2/3 60/2/3
f 63/2/4 62/2/4 61/2/4
f 64/2/4 62/2/4 63/2/4
f 65/2/5 66/2/5 67/2/5
f 67/2/5 66/2/5 68/2/5
f 71/2/6 70/2/6 69/2/6
f 72/2/6 70/2/6 71/2/6
