# MagicaVoxel @ Ephtracy

# group
o 

# material
mtllib stairs_shard-6.mtl
usemtl palette

# normals
vn 0 -1 0
vn 0 1 0
vn 0 0 -1
vn 0 0 1
vn 1 0 0
vn -1 0 0

# texcoords
vt 0.505859 0.5
vt 0.673828 0.5
vt 0.982422 0.5

# verts
v -0.1 0.5 0.4
v -0.1 0.5 0.6
v -0.2 0.5 0.1
v -0.2 0.5 0.4
v -0.2 0.5 0.6
v -0.3 0.5 -0.1
v -0.3 0.5 0.1
v -0.3 0.5 0.4
v -0.3 0.5 0.6
v -0.4 0.5 -0.3
v -0.4 0.5 -0.1
v -0.4 0.5 0.2
v -0.4 0.5 0.4
v -0.5 0.5 -0.4
v -0.5 0.5 -0.3
v -0.5 0.5 -0.1
v -0.5 0.5 0.2
v -0.6 0.5 -0.4
v -0.6 0.5 -0.3
v -0.6 0.5 -0.1
v -0.7 0.5 -0.4
v -0.7 0.5 -0.3
v 0.4 0.6 -0.7
v 0.4 0.6 -0.5
v 0.4 0.6 0.2
v 0.4 0.6 0.4
v 0.3 0.6 -0.7
v 0.3 0.6 -0.5
v 0.3 0.6 -0.3
v 0.3 0.6 0.2
v 0.3 0.6 0.4
v 0.3 0.6 0.5
v 0.2 0.6 -0.7
v 0.2 0.6 -0.3
v 0.2 0.6 -0.2
v 0.2 0.6 -0.1
v 0.2 0.6 0
v 0.2 0.6 0.1
v 0.2 0.6 0.2
v 0.2 0.6 0.5
v 0.1 0.6 -0.7
v 0.1 0.6 -0.2
v 0.1 0.6 -0.1
v 0.1 0.6 0
v 0.1 0.6 0.1
v 0.1 0.6 0.5
v 0.1 0.6 0.6
v -0.1 0.6 -0.7
v -0.1 0.6 0.4
v -0.1 0.6 0.6
v -0.2 0.6 -0.7
v -0.2 0.6 0.1
v -0.2 0.6 0.4
v -0.3 0.6 -0.1
v -0.3 0.6 0.1
v -0.4 0.6 -0.7
v -0.4 0.6 -0.3
v -0.4 0.6 -0.1
v -0.5 0.6 -0.7
v -0.5 0.6 -0.4
v -0.5 0.6 -0.3
v -0.6 0.6 -0.7
v -0.6 0.6 -0.4
v -0.7 0.6 -0.7
v -0.7 0.6 -0.4
v -0.1 0.6 0.4
v -0.1 0.6 0.6
v -0.2 0.6 0.1
v -0.2 0.6 0.4
v -0.2 0.6 0.6
v -0.3 0.6 -0.1
v -0.3 0.6 0.1
v -0.3 0.6 0.4
v -0.3 0.6 0.6
v -0.4 0.6 -0.3
v -0.4 0.6 -0.1
v -0.4 0.6 0.2
v -0.4 0.6 0.4
v -0.5 0.6 -0.4
v -0.5 0.6 -0.3
v -0.5 0.6 -0.1
v -0.5 0.6 0.2
v -0.6 0.6 -0.4
v -0.6 0.6 -0.3
v -0.6 0.6 -0.1
v -0.7 0.6 -0.4
v -0.7 0.6 -0.3
v 0.4 0.7 -0.7
v 0.4 0.7 -0.5
v 0.4 0.7 0.2
v 0.4 0.7 0.4
v 0.3 0.7 -0.7
v 0.3 0.7 -0.5
v 0.3 0.7 -0.3
v 0.3 0.7 0.2
v 0.3 0.7 0.4
v 0.3 0.7 0.5
v 0.2 0.7 -0.7
v 0.2 0.7 -0.3
v 0.2 0.7 -0.2
v 0.2 0.7 -0.1
v 0.2 0.7 0
v 0.2 0.7 0.1
v 0.2 0.7 0.2
v 0.2 0.7 0.5
v 0.1 0.7 -0.7
v 0.1 0.7 -0.2
v 0.1 0.7 -0.1
v 0.1 0.7 0
v 0.1 0.7 0.1
v 0.1 0.7 0.5
v 0.1 0.7 0.6
v -0.1 0.7 -0.7
v -0.1 0.7 0.4
v -0.1 0.7 0.6
v -0.2 0.7 -0.7
v -0.2 0.7 0.1
v -0.2 0.7 0.4
v -0.3 0.7 -0.1
v -0.3 0.7 0.1
v -0.4 0.7 -0.7
v -0.4 0.7 -0.3
v -0.4 0.7 -0.1
v -0.5 0.7 -0.7
v -0.5 0.7 -0.4
v -0.5 0.7 -0.3
v -0.6 0.7 -0.7
v -0.6 0.7 -0.4
v -0.7 0.7 -0.7
v -0.7 0.7 -0.4
v 0.4 0.6 -0.7
v 0.3 0.6 -0.7
v 0.2 0.6 -0.7
v 0.1 0.6 -0.7
v -0.1 0.6 -0.7
v -0.2 0.6 -0.7
v -0.4 0.6 -0.7
v -0.5 0.6 -0.7
v -0.6 0.6 -0.7
v -0.7 0.6 -0.7
v 0.4 0.7 -0.7
v 0.3 0.7 -0.7
v 0.2 0.7 -0.7
v 0.1 0.7 -0.7
v -0.1 0.7 -0.7
v -0.2 0.7 -0.7
v -0.4 0.7 -0.7
v -0.5 0.7 -0.7
v -0.6 0.7 -0.7
v -0.7 0.7 -0.7
v -0.5 0.5 -0.4
v -0.6 0.5 -0.4
v -0.7 0.5 -0.4
v -0.5 0.6 -0.4
v -0.6 0.6 -0.4
v -0.7 0.6 -0.4
v -0.4 0.5 -0.3
v -0.5 0.5 -0.3
v -0.4 0.6 -0.3
v -0.5 0.6 -0.3
v -0.3 0.5 -0.1
v -0.4 0.5 -0.1
v 0.2 0.6 -0.1
v 0.1 0.6 -0.1
v -0.3 0.6 -0.1
v -0.4 0.6 -0.1
v 0.2 0.7 -0.1
v 0.1 0.7 -0.1
v -0.2 0.5 0.1
v -0.3 0.5 0.1
v 0.2 0.6 0.1
v 0.1 0.6 0.1
v -0.2 0.6 0.1
v -0.3 0.6 0.1
v 0.2 0.7 0.1
v 0.1 0.7 0.1
v 0.4 0.6 0.2
v 0.3 0.6 0.2
v 0.2 0.6 0.2
v 0.4 0.7 0.2
v 0.3 0.7 0.2
v 0.2 0.7 0.2
v -0.1 0.5 0.4
v -0.2 0.5 0.4
v -0.1 0.6 0.4
v -0.2 0.6 0.4
v 0.4 0.6 -0.5
v 0.3 0.6 -0.5
v 0.4 0.7 -0.5
v 0.3 0.7 -0.5
v -0.5 0.6 -0.4
v -0.6 0.6 -0.4
v -0.7 0.6 -0.4
v -0.5 0.7 -0.4
v -0.6 0.7 -0.4
v -0.7 0.7 -0.4
v -0.6 0.5 -0.3
v -0.7 0.5 -0.3
v 0.3 0.6 -0.3
v 0.2 0.6 -0.3
v -0.4 0.6 -0.3
v -0.5 0.6 -0.3
v -0.6 0.6 -0.3
v -0.7 0.6 -0.3
v 0.3 0.7 -0.3
v 0.2 0.7 -0.3
v -0.4 0.7 -0.3
v -0.5 0.7 -0.3
v 0.2 0.6 -0.2
v 0.1 0.6 -0.2
v 0.2 0.7 -0.2
v 0.1 0.7 -0.2
v -0.5 0.5 -0.1
v -0.6 0.5 -0.1
v -0.3 0.6 -0.1
v -0.4 0.6 -0.1
v -0.5 0.6 -0.1
v -0.6 0.6 -0.1
v -0.3 0.7 -0.1
v -0.4 0.7 -0.1
v 0.2 0.6 0
v 0.1 0.6 0
v 0.2 0.7 0
v 0.1 0.7 0
v -0.2 0.6 0.1
v -0.3 0.6 0.1
v -0.2 0.7 0.1
v -0.3 0.7 0.1
v -0.4 0.5 0.2
v -0.5 0.5 0.2
v -0.4 0.6 0.2
v -0.5 0.6 0.2
v -0.3 0.5 0.4
v -0.4 0.5 0.4
v 0.4 0.6 0.4
v 0.3 0.6 0.4
v -0.1 0.6 0.4
v -0.2 0.6 0.4
v -0.3 0.6 0.4
v -0.4 0.6 0.4
v 0.4 0.7 0.4
v 0.3 0.7 0.4
v -0.1 0.7 0.4
v -0.2 0.7 0.4
v 0.3 0.6 0.5
v 0.2 0.6 0.5
v 0.1 0.6 0.5
v 0.3 0.7 0.5
v 0.2 0.7 0.5
v 0.1 0.7 0.5
v -0.1 0.5 0.6
v -0.2 0.5 0.6
v -0.3 0.5 0.6
v 0.1 0.6 0.6
v -0.1 0.6 0.6
v -0.2 0.6 0.6
v -0.3 0.6 0.6
v 0.1 0.7 0.6
v -0.1 0.7 0.6
v 0.4 0.6 -0.7
v 0.4 0.7 -0.7
v 0.4 0.6 -0.5
v 0.4 0.7 -0.5
v 0.4 0.6 0.2
v 0.4 0.7 0.2
v 0.4 0.6 0.4
v 0.4 0.7 0.4
v 0.3 0.6 -0.5
v 0.3 0.7 -0.5
v 0.3 0.6 -0.3
v 0.3 0.7 -0.3
v 0.3 0.6 0.4
v 0.3 0.7 0.4
v 0.3 0.6 0.5
v 0.3 0.7 0.5
v 0.2 0.6 -0.3
v 0.2 0.7 -0.3
v 0.2 0.6 -0.2
v 0.2 0.7 -0.2
v 0.2 0.6 -0.1
v 0.2 0.7 -0.1
v 0.2 0.6 0
v 0.2 0.7 0
v 0.2 0.6 0.1
v 0.2 0.7 0.1
v 0.2 0.6 0.2
v 0.2 0.7 0.2
v 0.1 0.6 -0.2
v 0.1 0.7 -0.2
v 0.1 0.6 -0.1
v 0.1 0.7 -0.1
v 0.1 0.6 0
v 0.1 0.7 0
v 0.1 0.6 0.1
v 0.1 0.7 0.1
v 0.1 0.6 0.5
v 0.1 0.7 0.5
v 0.1 0.6 0.6
v 0.1 0.7 0.6
v -0.1 0.5 0.4
v -0.1 0.6 0.4
v -0.1 0.5 0.6
v -0.1 0.6 0.6
v -0.2 0.5 0.1
v -0.2 0.6 0.1
v -0.2 0.5 0.4
v -0.2 0.6 0.4
v -0.3 0.5 -0.1
v -0.3 0.6 -0.1
v -0.3 0.5 0.1
v -0.3 0.6 0.1
v -0.4 0.5 -0.3
v -0.4 0.6 -0.3
v -0.4 0.5 -0.1
v -0.4 0.6 -0.1
v -0.5 0.5 -0.4
v -0.5 0.6 -0.4
v -0.5 0.5 -0.3
v -0.5 0.6 -0.3
v -0.1 0.6 0.4
v -0.1 0.7 0.4
v -0.1 0.6 0.6
v -0.1 0.7 0.6
v -0.2 0.6 0.1
v -0.2 0.7 0.1
v -0.2 0.6 0.4
v -0.2 0.7 0.4
v -0.3 0.6 -0.1
v -0.3 0.7 -0.1
v -0.3 0.6 0.1
v -0.3 0.7 0.1
v -0.3 0.5 0.4
v -0.3 0.6 0.4
v -0.3 0.5 0.6
v -0.3 0.6 0.6
v -0.4 0.6 -0.3
v -0.4 0.7 -0.3
v -0.4 0.6 -0.1
v -0.4 0.7 -0.1
v -0.4 0.5 0.2
v -0.4 0.6 0.2
v -0.4 0.5 0.4
v -0.4 0.6 0.4
v -0.5 0.6 -0.4
v -0.5 0.7 -0.4
v -0.5 0.6 -0.3
v -0.5 0.7 -0.3
v -0.5 0.5 -0.1
v -0.5 0.6 -0.1
v -0.5 0.5 0.2
v -0.5 0.6 0.2
v -0.6 0.5 -0.3
v -0.6 0.6 -0.3
v -0.6 0.5 -0.1
v -0.6 0.6 -0.1
v -0.7 0.6 -0.7
v -0.7 0.7 -0.7
v -0.7 0.5 -0.4
v -0.7 0.6 -0.4
v -0.7 0.7 -0.4
v -0.7 0.5 -0.3
v -0.7 0.6 -0.3

# faces
f 1/3/1 2/3/1 4/3/1
f 4/3/1 2/3/1 5/3/1
f 3/1/1 4/1/1 7/1/1
f 4/1/1 5/1/1 7/1/1
f 7/1/1 5/1/1 8/1/1
f 8/1/1 5/1/1 9/1/1
f 6/1/1 7/1/1 11/1/1
f 7/1/1 8/1/1 11/1/1
f 11/1/1 8/1/1 12/1/1
f 12/1/1 8/1/1 13/1/1
f 10/3/1 11/3/1 15/3/1
f 11/3/1 12/3/1 15/3/1
f 15/3/1 12/3/1 16/3/1
f 16/3/1 12/3/1 17/3/1
f 14/1/1 15/1/1 18/1/1
f 15/1/1 16/1/1 18/1/1
f 18/1/1 16/1/1 19/1/1
f 19/1/1 16/1/1 20/1/1
f 18/2/1 19/2/1 21/2/1
f 21/2/1 19/2/1 22/2/1
f 23/2/1 24/2/1 27/2/1
f 27/2/1 24/2/1 28/2/1
f 25/2/1 26/2/1 30/2/1
f 30/2/1 26/2/1 31/2/1
f 28/1/1 29/1/1 33/1/1
f 27/1/1 28/1/1 33/1/1
f 33/1/1 29/1/1 34/1/1
f 31/1/1 32/1/1 39/1/1
f 30/1/1 31/1/1 39/1/1
f 39/1/1 32/1/1 40/1/1
f 34/3/1 35/3/1 41/3/1
f 33/3/1 34/3/1 41/3/1
f 41/3/1 35/3/1 42/3/1
f 36/3/1 37/3/1 43/3/1
f 43/3/1 37/3/1 44/3/1
f 39/3/1 40/3/1 45/3/1
f 38/3/1 39/3/1 45/3/1
f 45/3/1 40/3/1 46/3/1
f 41/1/1 42/1/1 48/1/1
f 46/1/1 47/1/1 48/1/1
f 44/1/1 45/1/1 48/1/1
f 45/1/1 46/1/1 48/1/1
f 43/1/1 44/1/1 48/1/1
f 42/1/1 43/1/1 48/1/1
f 48/1/1 47/1/1 49/1/1
f 49/1/1 47/1/1 50/1/1
f 48/3/1 49/3/1 51/3/1
f 51/3/1 49/3/1 52/3/1
f 52/3/1 49/3/1 53/3/1
f 51/1/1 52/1/1 54/1/1
f 54/1/1 52/1/1 55/1/1
f 51/1/1 54/1/1 56/1/1
f 56/1/1 54/1/1 57/1/1
f 57/1/1 54/1/1 58/1/1
f 56/3/1 57/3/1 59/3/1
f 59/3/1 57/3/1 60/3/1
f 60/3/1 57/3/1 61/3/1
f 59/1/1 60/1/1 62/1/1
f 62/1/1 60/1/1 63/1/1
f 62/2/1 63/2/1 64/2/1
f 64/2/1 63/2/1 65/2/1
f 69/3/2 67/3/2 66/3/2
f 70/3/2 67/3/2 69/3/2
f 72/1/2 69/1/2 68/1/2
f 72/1/2 70/1/2 69/1/2
f 73/1/2 70/1/2 72/1/2
f 74/1/2 70/1/2 73/1/2
f 76/1/2 72/1/2 71/1/2
f 76/1/2 73/1/2 72/1/2
f 77/1/2 73/1/2 76/1/2
f 78/1/2 73/1/2 77/1/2
f 80/3/2 76/3/2 75/3/2
f 80/3/2 77/3/2 76/3/2
f 81/3/2 77/3/2 80/3/2
f 82/3/2 77/3/2 81/3/2
f 83/1/2 80/1/2 79/1/2
f 83/1/2 81/1/2 80/1/2
f 84/1/2 81/1/2 83/1/2
f 85/1/2 81/1/2 84/1/2
f 86/2/2 84/2/2 83/2/2
f 87/2/2 84/2/2 86/2/2
f 92/2/2 89/2/2 88/2/2
f 93/2/2 89/2/2 92/2/2
f 95/2/2 91/2/2 90/2/2
f 96/2/2 91/2/2 95/2/2
f 98/1/2 94/1/2 93/1/2
f 98/1/2 93/1/2 92/1/2
f 99/1/2 94/1/2 98/1/2
f 104/1/2 97/1/2 96/1/2
f 104/1/2 96/1/2 95/1/2
f 105/1/2 97/1/2 104/1/2
f 106/3/2 100/3/2 99/3/2
f 106/3/2 99/3/2 98/3/2
f 107/3/2 100/3/2 106/3/2
f 108/3/2 102/3/2 101/3/2
f 109/3/2 102/3/2 108/3/2
f 110/3/2 105/3/2 104/3/2
f 110/3/2 104/3/2 103/3/2
f 111/3/2 105/3/2 110/3/2
f 113/1/2 107/1/2 106/1/2
f 113/1/2 112/1/2 111/1/2
f 113/1/2 110/1/2 109/1/2
f 113/1/2 111/1/2 110/1/2
f 113/1/2 109/1/2 108/1/2
f 113/1/2 108/1/2 107/1/2
f 114/1/2 112/1/2 113/1/2
f 115/1/2 112/1/2 114/1/2
f 116/3/2 114/3/2 113/3/2
f 117/3/2 114/3/2 116/3/2
f 118/3/2 114/3/2 117/3/2
f 119/1/2 117/1/2 116/1/2
f 120/1/2 117/1/2 119/1/2
f 121/1/2 119/1/2 116/1/2
f 122/1/2 119/1/2 121/1/2
f 123/1/2 119/1/2 122/1/2
f 124/3/2 122/3/2 121/3/2
f 125/3/2 122/3/2 124/3/2
f 126/3/2 122/3/2 125/3/2
f 127/1/2 125/1/2 124/1/2
f 128/1/2 125/1/2 127/1/2
f 129/2/2 128/2/2 127/2/2
f 130/2/2 128/2/2 129/2/2
f 131/2/3 132/2/3 141/2/3
f 132/1/3 133/1/3 142/1/3
f 141/2/3 132/2/3 142/2/3
f 133/3/3 134/3/3 143/3/3
f 142/1/3 133/1/3 143/1/3
f 134/1/3 135/1/3 144/1/3
f 143/3/3 134/3/3 144/3/3
f 135/3/3 136/3/3 145/3/3
f 144/1/3 135/1/3 145/1/3
f 136/1/3 137/1/3 146/1/3
f 145/3/3 136/3/3 146/3/3
f 137/3/3 138/3/3 147/3/3
f 146/1/3 137/1/3 147/1/3
f 138/1/3 139/1/3 148/1/3
f 147/3/3 138/3/3 148/3/3
f 139/2/3 140/2/3 149/2/3
f 148/1/3 139/1/3 149/1/3
f 149/2/3 140/2/3 150/2/3
f 151/1/3 152/1/3 154/1/3
f 152/2/3 153/2/3 155/2/3
f 154/1/3 152/1/3 155/1/3
f 155/2/3 153/2/3 156/2/3
f 157/3/3 158/3/3 159/3/3
f 159/3/3 158/3/3 160/3/3
f 161/1/3 162/1/3 165/1/3
f 165/1/3 162/1/3 166/1/3
f 163/3/3 164/3/3 167/3/3
f 167/3/3 164/3/3 168/3/3
f 169/1/3 170/1/3 173/1/3
f 173/1/3 170/1/3 174/1/3
f 171/3/3 172/3/3 175/3/3
f 175/3/3 172/3/3 176/3/3
f 177/2/3 178/2/3 180/2/3
f 178/1/3 179/1/3 181/1/3
f 180/2/3 178/2/3 181/2/3
f 181/1/3 179/1/3 182/1/3
f 183/3/3 184/3/3 185/3/3
f 185/3/3 184/3/3 186/3/3
f 189/2/4 188/2/4 187/2/4
f 190/2/4 188/2/4 189/2/4
f 194/1/4 192/1/4 191/1/4
f 195/2/4 193/2/4 192/2/4
f 195/1/4 192/1/4 194/1/4
f 196/2/4 193/2/4 195/2/4
f 203/2/4 198/2/4 197/2/4
f 204/2/4 198/2/4 203/2/4
f 205/1/4 200/1/4 199/1/4
f 206/1/4 200/1/4 205/1/4
f 207/3/4 202/3/4 201/3/4
f 208/3/4 202/3/4 207/3/4
f 211/3/4 210/3/4 209/3/4
f 212/3/4 210/3/4 211/3/4
f 217/1/4 214/1/4 213/1/4
f 218/1/4 214/1/4 217/1/4
f 219/1/4 216/1/4 215/1/4
f 220/1/4 216/1/4 219/1/4
f 223/3/4 222/3/4 221/3/4
f 224/3/4 222/3/4 223/3/4
f 227/1/4 226/1/4 225/1/4
f 228/1/4 226/1/4 227/1/4
f 231/3/4 230/3/4 229/3/4
f 232/3/4 230/3/4 231/3/4
f 239/1/4 234/1/4 233/1/4
f 240/1/4 234/1/4 239/1/4
f 241/2/4 236/2/4 235/2/4
f 242/2/4 236/2/4 241/2/4
f 243/3/4 238/3/4 237/3/4
f 244/3/4 238/3/4 243/3/4
f 248/1/4 246/1/4 245/1/4
f 249/3/4 247/3/4 246/3/4
f 249/1/4 246/1/4 248/1/4
f 250/3/4 247/3/4 249/3/4
f 255/3/4 252/3/4 251/3/4
f 256/1/4 253/1/4 252/1/4
f 256/3/4 252/3/4 255/3/4
f 257/1/4 253/1/4 256/1/4
f 258/1/4 255/1/4 254/1/4
f 259/1/4 255/1/4 258/1/4
f 260/2/5 261/2/5 262/2/5
f 262/2/5 261/2/5 263/2/5
f 264/2/5 265/2/5 266/2/5
f 266/2/5 265/2/5 267/2/5
f 268/1/5 269/1/5 270/1/5
f 270/1/5 269/1/5 271/1/5
f 272/1/5 273/1/5 274/1/5
f 274/1/5 273/1/5 275/1/5
f 276/3/5 277/3/5 278/3/5
f 278/3/5 277/3/5 279/3/5
f 280/3/5 281/3/5 282/3/5
f 282/3/5 281/3/5 283/3/5
f 284/3/5 285/3/5 286/3/5
f 286/3/5 285/3/5 287/3/5
f 288/1/5 289/1/5 290/1/5
f 290/1/5 289/1/5 291/1/5
f 292/1/5 293/1/5 294/1/5
f 294/1/5 293/1/5 295/1/5
f 296/1/5 297/1/5 298/1/5
f 298/1/5 297/1/5 299/1/5
f 300/3/5 301/3/5 302/3/5
f 302/3/5 301/3/5 303/3/5
f 304/1/5 305/1/5 306/1/5
f 306/1/5 305/1/5 307/1/5
f 308/1/5 309/1/5 310/1/5
f 310/1/5 309/1/5 311/1/5
f 312/3/5 313/3/5 314/3/5
f 314/3/5 313/3/5 315/3/5
f 316/1/5 317/1/5 318/1/5
f 318/1/5 317/1/5 319/1/5
f 322/1/6 321/1/6 320/1/6
f 323/1/6 321/1/6 322/1/6
f 326/3/6 325/3/6 324/3/6
f 327/3/6 325/3/6 326/3/6
f 330/1/6 329/1/6 328/1/6
f 331/1/6 329/1/6 330/1/6
f 334/1/6 333/1/6 332/1/6
f 335/1/6 333/1/6 334/1/6
f 338/1/6 337/1/6 336/1/6
f 339/1/6 337/1/6 338/1/6
f 342/1/6 341/1/6 340/1/6
f 343/1/6 341/1/6 342/1/6
f 346/3/6 345/3/6 344/3/6
f 347/3/6 345/3/6 346/3/6
f 350/3/6 349/3/6 348/3/6
f 351/3/6 349/3/6 350/3/6
f 354/1/6 353/1/6 352/1/6
f 355/1/6 353/1/6 354/1/6
f 359/2/6 357/2/6 356/2/6
f 360/2/6 357/2/6 359/2/6
f 361/2/6 359/2/6 358/2/6
f 362/2/6 359/2/6 361/2/6
