# MagicaVoxel @ Ephtracy

# group
o 

# material
mtllib stairs_shard-9.mtl
usemtl palette

# normals
vn 0 -1 0
vn 0 1 0
vn 0 0 -1
vn 0 0 1
vn 1 0 0
vn -1 0 0

# texcoords
vt 0.505859 0.5
vt 0.673828 0.5
vt 0.982422 0.5

# verts
v 0.4 0.5 -0.4
v 0.4 0.5 0
v 0.3 0.5 -0.4
v 0.3 0.5 -0.2
v 0.3 0.5 0
v 0.2 0.5 -0.2
v 0.2 0.5 0
v 0.1 0.5 -0.2
v 0.1 0.5 0
v 0.1 0.5 0.3
v 0 0.5 0
v 0 0.5 0.1
v 0 0.5 0.2
v 0 0.5 0.3
v -0.1 0.5 0.1
v -0.1 0.5 0.2
v 0.4 0.6 -0.7
v 0.4 0.6 -0.4
v 0.3 0.6 -0.7
v 0.3 0.6 -0.4
v 0.2 0.6 -0.7
v 0.2 0.6 -0.4
v 0.1 0.6 -0.7
v 0.1 0.6 -0.4
v 0.1 0.6 -0.2
v 0.1 0.6 0
v 0 0.6 -0.1
v 0 0.6 0
v -0.1 0.6 -0.7
v -0.1 0.6 -0.1
v -0.1 0.6 0.1
v -0.1 0.6 0.2
v -0.2 0.6 -0.7
v -0.2 0.6 -0.2
v -0.2 0.6 0.2
v -0.2 0.6 0.3
v -0.3 0.6 -0.2
v -0.3 0.6 0.2
v -0.3 0.6 0.3
v -0.4 0.6 -0.7
v -0.4 0.6 -0.4
v -0.4 0.6 -0.2
v -0.4 0.6 0.1
v -0.4 0.6 0.2
v -0.5 0.6 -0.7
v -0.5 0.6 -0.4
v -0.5 0.6 -0.2
v -0.5 0.6 -0.1
v -0.5 0.6 0.1
v -0.6 0.6 -0.7
v -0.6 0.6 -0.4
v -0.6 0.6 -0.2
v -0.6 0.6 -0.1
v -0.6 0.6 0
v -0.7 0.6 -0.7
v -0.7 0.6 0
v 0.4 0.6 -0.4
v 0.4 0.6 0
v 0.3 0.6 -0.4
v 0.3 0.6 -0.2
v 0.3 0.6 0
v 0.2 0.6 -0.2
v 0.2 0.6 0
v 0.1 0.6 -0.2
v 0.1 0.6 0
v 0.1 0.6 0.3
v 0 0.6 0
v 0 0.6 0.1
v 0 0.6 0.2
v 0 0.6 0.3
v -0.1 0.6 0.1
v -0.1 0.6 0.2
v 0.4 0.7 -0.7
v 0.4 0.7 -0.4
v 0.3 0.7 -0.7
v 0.3 0.7 -0.4
v 0.2 0.7 -0.7
v 0.2 0.7 -0.4
v 0.1 0.7 -0.7
v 0.1 0.7 -0.4
v 0.1 0.7 0
v 0 0.7 -0.1
v 0 0.7 0
v -0.1 0.7 -0.7
v -0.1 0.7 -0.1
v -0.1 0.7 0.2
v -0.2 0.7 -0.7
v -0.2 0.7 -0.2
v -0.2 0.7 0.2
v -0.2 0.7 0.3
v -0.3 0.7 -0.2
v -0.3 0.7 0.2
v -0.3 0.7 0.3
v -0.4 0.7 -0.7
v -0.4 0.7 -0.4
v -0.4 0.7 -0.2
v -0.4 0.7 0.1
v -0.4 0.7 0.2
v -0.5 0.7 -0.7
v -0.5 0.7 -0.4
v -0.5 0.7 -0.2
v -0.5 0.7 -0.1
v -0.5 0.7 0.1
v -0.6 0.7 -0.7
v -0.6 0.7 -0.4
v -0.6 0.7 -0.2
v -0.6 0.7 -0.1
v -0.6 0.7 0
v -0.7 0.7 -0.7
v -0.7 0.7 0
v 0.4 0.6 -0.7
v 0.3 0.6 -0.7
v 0.2 0.6 -0.7
v 0.1 0.6 -0.7
v -0.1 0.6 -0.7
v -0.2 0.6 -0.7
v -0.4 0.6 -0.7
v -0.5 0.6 -0.7
v -0.6 0.6 -0.7
v -0.7 0.6 -0.7
v 0.4 0.7 -0.7
v 0.3 0.7 -0.7
v 0.2 0.7 -0.7
v 0.1 0.7 -0.7
v -0.1 0.7 -0.7
v -0.2 0.7 -0.7
v -0.4 0.7 -0.7
v -0.5 0.7 -0.7
v -0.6 0.7 -0.7
v -0.7 0.7 -0.7
v 0.4 0.5 -0.4
v 0.3 0.5 -0.4
v 0.4 0.6 -0.4
v 0.3 0.6 -0.4
v 0.3 0.5 -0.2
v 0.2 0.5 -0.2
v 0.1 0.5 -0.2
v 0.3 0.6 -0.2
v 0.2 0.6 -0.2
v 0.1 0.6 -0.2
v -0.4 0.6 -0.2
v -0.5 0.6 -0.2
v -0.6 0.6 -0.2
v -0.4 0.7 -0.2
v -0.5 0.7 -0.2
v -0.6 0.7 -0.2
v 0.1 0.5 0
v 0 0.5 0
v 0.1 0.6 0
v 0 0.6 0
v 0 0.5 0.1
v -0.1 0.5 0.1
v 0 0.6 0.1
v -0.1 0.6 0.1
v -0.2 0.6 0.2
v -0.3 0.6 0.2
v -0.2 0.7 0.2
v -0.3 0.7 0.2
v 0.4 0.6 -0.4
v 0.3 0.6 -0.4
v 0.2 0.6 -0.4
v 0.1 0.6 -0.4
v -0.4 0.6 -0.4
v -0.5 0.6 -0.4
v -0.6 0.6 -0.4
v 0.4 0.7 -0.4
v 0.3 0.7 -0.4
v 0.2 0.7 -0.4
v 0.1 0.7 -0.4
v -0.4 0.7 -0.4
v -0.5 0.7 -0.4
v -0.6 0.7 -0.4
v -0.2 0.6 -0.2
v -0.3 0.6 -0.2
v -0.2 0.7 -0.2
v -0.3 0.7 -0.2
v 0 0.6 -0.1
v -0.1 0.6 -0.1
v -0.5 0.6 -0.1
v -0.6 0.6 -0.1
v 0 0.7 -0.1
v -0.1 0.7 -0.1
v -0.5 0.7 -0.1
v -0.6 0.7 -0.1
v 0.4 0.5 0
v 0.3 0.5 0
v 0.2 0.5 0
v 0.1 0.5 0
v 0.4 0.6 0
v 0.3 0.6 0
v 0.2 0.6 0
v 0.1 0.6 0
v 0 0.6 0
v -0.6 0.6 0
v -0.7 0.6 0
v 0.1 0.7 0
v 0 0.7 0
v -0.6 0.7 0
v -0.7 0.7 0
v -0.4 0.6 0.1
v -0.5 0.6 0.1
v -0.4 0.7 0.1
v -0.5 0.7 0.1
v 0 0.5 0.2
v -0.1 0.5 0.2
v 0 0.6 0.2
v -0.1 0.6 0.2
v -0.2 0.6 0.2
v -0.3 0.6 0.2
v -0.4 0.6 0.2
v -0.1 0.7 0.2
v -0.2 0.7 0.2
v -0.3 0.7 0.2
v -0.4 0.7 0.2
v 0.1 0.5 0.3
v 0 0.5 0.3
v 0.1 0.6 0.3
v 0 0.6 0.3
v -0.2 0.6 0.3
v -0.3 0.6 0.3
v -0.2 0.7 0.3
v -0.3 0.7 0.3
v 0.4 0.6 -0.7
v 0.4 0.7 -0.7
v 0.4 0.5 -0.4
v 0.4 0.6 -0.4
v 0.4 0.7 -0.4
v 0.4 0.5 0
v 0.4 0.6 0
v 0.1 0.6 -0.4
v 0.1 0.7 -0.4
v 0.1 0.6 -0.2
v 0.1 0.5 0
v 0.1 0.6 0
v 0.1 0.7 0
v 0.1 0.5 0.3
v 0.1 0.6 0.3
v -0.1 0.6 -0.1
v -0.1 0.7 -0.1
v -0.1 0.6 0.1
v -0.1 0.6 0.2
v -0.1 0.7 0.2
v -0.2 0.6 0.2
v -0.2 0.7 0.2
v -0.2 0.6 0.3
v -0.2 0.7 0.3
v -0.3 0.6 -0.2
v -0.3 0.7 -0.2
v -0.3 0.6 0.2
v -0.3 0.7 0.2
v -0.6 0.6 -0.4
v -0.6 0.7 -0.4
v -0.6 0.6 -0.2
v -0.6 0.7 -0.2
v -0.6 0.6 -0.1
v -0.6 0.7 -0.1
v -0.6 0.6 0
v -0.6 0.7 0
v 0.3 0.5 -0.4
v 0.3 0.6 -0.4
v 0.3 0.5 -0.2
v 0.3 0.6 -0.2
v 0.1 0.5 -0.2
v 0.1 0.6 -0.2
v 0.1 0.5 0
v 0.1 0.6 0
v 0 0.6 -0.1
v 0 0.7 -0.1
v 0 0.5 0
v 0 0.6 0
v 0 0.7 0
v 0 0.5 0.1
v 0 0.6 0.1
v 0 0.5 0.2
v 0 0.6 0.2
v 0 0.5 0.3
v 0 0.6 0.3
v -0.1 0.5 0.1
v -0.1 0.6 0.1
v -0.1 0.5 0.2
v -0.1 0.6 0.2
v -0.2 0.6 -0.2
v -0.2 0.7 -0.2
v -0.2 0.6 0.2
v -0.2 0.7 0.2
v -0.3 0.6 0.2
v -0.3 0.7 0.2
v -0.3 0.6 0.3
v -0.3 0.7 0.3
v -0.4 0.6 -0.4
v -0.4 0.7 -0.4
v -0.4 0.6 -0.2
v -0.4 0.7 -0.2
v -0.4 0.6 0.1
v -0.4 0.7 0.1
v -0.4 0.6 0.2
v -0.4 0.7 0.2
v -0.5 0.6 -0.1
v -0.5 0.7 -0.1
v -0.5 0.6 0.1
v -0.5 0.7 0.1
v -0.7 0.6 -0.7
v -0.7 0.7 -0.7
v -0.7 0.6 0
v -0.7 0.7 0

# faces
f 1/2/1 2/2/1 3/2/1
f 3/2/1 2/2/1 4/2/1
f 4/2/1 2/2/1 5/2/1
f 4/1/1 5/1/1 6/1/1
f 6/1/1 5/1/1 7/1/1
f 6/3/1 7/3/1 8/3/1
f 8/3/1 7/3/1 9/3/1
f 9/1/1 10/1/1 11/1/1
f 11/1/1 10/1/1 12/1/1
f 12/1/1 10/1/1 13/1/1
f 13/1/1 10/1/1 14/1/1
f 12/1/1 13/1/1 15/1/1
f 15/1/1 13/1/1 16/1/1
f 17/2/1 18/2/1 19/2/1
f 19/2/1 18/2/1 20/2/1
f 19/1/1 20/1/1 21/1/1
f 21/1/1 20/1/1 22/1/1
f 21/3/1 22/3/1 23/3/1
f 23/3/1 22/3/1 24/3/1
f 23/1/1 24/1/1 27/1/1
f 25/1/1 26/1/1 27/1/1
f 24/1/1 25/1/1 27/1/1
f 27/1/1 26/1/1 28/1/1
f 23/1/1 27/1/1 29/1/1
f 29/1/1 27/1/1 30/1/1
f 29/3/1 30/3/1 33/3/1
f 31/3/1 32/3/1 33/3/1
f 30/3/1 31/3/1 33/3/1
f 33/3/1 32/3/1 34/3/1
f 34/3/1 32/3/1 35/3/1
f 33/1/1 34/1/1 37/1/1
f 35/1/1 36/1/1 38/1/1
f 38/1/1 36/1/1 39/1/1
f 33/1/1 37/1/1 40/1/1
f 37/1/1 38/1/1 40/1/1
f 40/1/1 38/1/1 41/1/1
f 41/1/1 38/1/1 42/1/1
f 42/1/1 38/1/1 43/1/1
f 43/1/1 38/1/1 44/1/1
f 40/3/1 41/3/1 45/3/1
f 45/3/1 41/3/1 46/3/1
f 42/3/1 43/3/1 47/3/1
f 47/3/1 43/3/1 48/3/1
f 48/3/1 43/3/1 49/3/1
f 45/1/1 46/1/1 50/1/1
f 50/1/1 46/1/1 51/1/1
f 47/1/1 48/1/1 52/1/1
f 52/1/1 48/1/1 53/1/1
f 50/2/1 51/2/1 55/2/1
f 53/2/1 54/2/1 55/2/1
f 52/2/1 53/2/1 55/2/1
f 51/2/1 52/2/1 55/2/1
f 55/2/1 54/2/1 56/2/1
f 59/2/2 58/2/2 57/2/2
f 60/2/2 58/2/2 59/2/2
f 61/2/2 58/2/2 60/2/2
f 62/1/2 61/1/2 60/1/2
f 63/1/2 61/1/2 62/1/2
f 64/3/2 63/3/2 62/3/2
f 65/3/2 63/3/2 64/3/2
f 67/1/2 66/1/2 65/1/2
f 68/1/2 66/1/2 67/1/2
f 69/1/2 66/1/2 68/1/2
f 70/1/2 66/1/2 69/1/2
f 71/1/2 69/1/2 68/1/2
f 72/1/2 69/1/2 71/1/2
f 75/2/2 74/2/2 73/2/2
f 76/2/2 74/2/2 75/2/2
f 77/1/2 76/1/2 75/1/2
f 78/1/2 76/1/2 77/1/2
f 79/3/2 78/3/2 77/3/2
f 80/3/2 78/3/2 79/3/2
f 82/1/2 80/1/2 79/1/2
f 82/1/2 81/1/2 80/1/2
f 83/1/2 81/1/2 82/1/2
f 84/1/2 82/1/2 79/1/2
f 85/1/2 82/1/2 84/1/2
f 87/3/2 85/3/2 84/3/2
f 87/3/2 86/3/2 85/3/2
f 88/3/2 86/3/2 87/3/2
f 89/3/2 86/3/2 88/3/2
f 91/1/2 88/1/2 87/1/2
f 92/1/2 90/1/2 89/1/2
f 93/1/2 90/1/2 92/1/2
f 94/1/2 91/1/2 87/1/2
f 94/1/2 92/1/2 91/1/2
f 95/1/2 92/1/2 94/1/2
f 96/1/2 92/1/2 95/1/2
f 97/1/2 92/1/2 96/1/2
f 98/1/2 92/1/2 97/1/2
f 99/3/2 95/3/2 94/3/2
f 100/3/2 95/3/2 99/3/2
f 101/3/2 97/3/2 96/3/2
f 102/3/2 97/3/2 101/3/2
f 103/3/2 97/3/2 102/3/2
f 104/1/2 100/1/2 99/1/2
f 105/1/2 100/1/2 104/1/2
f 106/1/2 102/1/2 101/1/2
f 107/1/2 102/1/2 106/1/2
f 109/2/2 105/2/2 104/2/2
f 109/2/2 108/2/2 107/2/2
f 109/2/2 107/2/2 106/2/2
f 109/2/2 106/2/2 105/2/2
f 110/2/2 108/2/2 109/2/2
f 111/2/3 112/2/3 121/2/3
f 112/1/3 113/1/3 122/1/3
f 121/2/3 112/2/3 122/2/3
f 113/3/3 114/3/3 123/3/3
f 122/1/3 113/1/3 123/1/3
f 114/1/3 115/1/3 124/1/3
f 123/3/3 114/3/3 124/3/3
f 115/3/3 116/3/3 125/3/3
f 124/1/3 115/1/3 125/1/3
f 116/1/3 117/1/3 126/1/3
f 125/3/3 116/3/3 126/3/3
f 117/3/3 118/3/3 127/3/3
f 126/1/3 117/1/3 127/1/3
f 118/1/3 119/1/3 128/1/3
f 127/3/3 118/3/3 128/3/3
f 119/2/3 120/2/3 129/2/3
f 128/1/3 119/1/3 129/1/3
f 129/2/3 120/2/3 130/2/3
f 131/2/3 132/2/3 133/2/3
f 133/2/3 132/2/3 134/2/3
f 135/1/3 136/1/3 138/1/3
f 136/3/3 137/3/3 139/3/3
f 138/1/3 136/1/3 139/1/3
f 139/3/3 137/3/3 140/3/3
f 141/3/3 142/3/3 144/3/3
f 142/1/3 143/1/3 145/1/3
f 144/3/3 142/3/3 145/3/3
f 145/1/3 143/1/3 146/1/3
f 147/1/3 148/1/3 149/1/3
f 149/1/3 148/1/3 150/1/3
f 151/1/3 152/1/3 153/1/3
f 153/1/3 152/1/3 154/1/3
f 155/1/3 156/1/3 157/1/3
f 157/1/3 156/1/3 158/1/3
f 166/2/4 160/2/4 159/2/4
f 167/1/4 161/1/4 160/1/4
f 167/2/4 160/2/4 166/2/4
f 168/3/4 162/3/4 161/3/4
f 168/1/4 161/1/4 167/1/4
f 169/3/4 162/3/4 168/3/4
f 170/3/4 164/3/4 163/3/4
f 171/1/4 165/1/4 164/1/4
f 171/3/4 164/3/4 170/3/4
f 172/1/4 165/1/4 171/1/4
f 175/1/4 174/1/4 173/1/4
f 176/1/4 174/1/4 175/1/4
f 181/1/4 178/1/4 177/1/4
f 182/1/4 178/1/4 181/1/4
f 183/1/4 180/1/4 179/1/4
f 184/1/4 180/1/4 183/1/4
f 189/2/4 186/2/4 185/2/4
f 190/1/4 187/1/4 186/1/4
f 190/2/4 186/2/4 189/2/4
f 191/3/4 188/3/4 187/3/4
f 191/1/4 187/1/4 190/1/4
f 192/3/4 188/3/4 191/3/4
f 196/1/4 193/1/4 192/1/4
f 197/1/4 193/1/4 196/1/4
f 198/2/4 195/2/4 194/2/4
f 199/2/4 195/2/4 198/2/4
f 202/3/4 201/3/4 200/3/4
f 203/3/4 201/3/4 202/3/4
f 206/1/4 205/1/4 204/1/4
f 207/1/4 205/1/4 206/1/4
f 211/3/4 208/3/4 207/3/4
f 212/3/4 208/3/4 211/3/4
f 213/1/4 210/1/4 209/1/4
f 214/1/4 210/1/4 213/1/4
f 217/1/4 216/1/4 215/1/4
f 218/1/4 216/1/4 217/1/4
f 221/1/4 220/1/4 219/1/4
f 222/1/4 220/1/4 221/1/4
f 223/2/5 224/2/5 226/2/5
f 226/2/5 224/2/5 227/2/5
f 225/2/5 226/2/5 228/2/5
f 228/2/5 226/2/5 229/2/5
f 230/1/5 231/1/5 232/1/5
f 232/1/5 231/1/5 234/1/5
f 234/1/5 231/1/5 235/1/5
f 233/1/5 234/1/5 236/1/5
f 236/1/5 234/1/5 237/1/5
f 238/3/5 239/3/5 240/3/5
f 240/3/5 239/3/5 241/3/5
f 241/3/5 239/3/5 242/3/5
f 243/1/5 244/1/5 245/1/5
f 245/1/5 244/1/5 246/1/5
f 247/1/5 248/1/5 249/1/5
f 249/1/5 248/1/5 250/1/5
f 251/2/5 252/2/5 253/2/5
f 253/2/5 252/2/5 254/2/5
f 255/2/5 256/2/5 257/2/5
f 257/2/5 256/2/5 258/2/5
f 261/2/6 260/2/6 259/2/6
f 262/2/6 260/2/6 261/2/6
f 265/3/6 264/3/6 263/3/6
f 266/3/6 264/3/6 265/3/6
f 270/1/6 268/1/6 267/1/6
f 271/1/6 268/1/6 270/1/6
f 272/1/6 270/1/6 269/1/6
f 273/1/6 270/1/6 272/1/6
f 276/1/6 275/1/6 274/1/6
f 277/1/6 275/1/6 276/1/6
f 280/1/6 279/1/6 278/1/6
f 281/1/6 279/1/6 280/1/6
f 284/3/6 283/3/6 282/3/6
f 285/3/6 283/3/6 284/3/6
f 288/1/6 287/1/6 286/1/6
f 289/1/6 287/1/6 288/1/6
f 292/1/6 291/1/6 290/1/6
f 293/1/6 291/1/6 292/1/6
f 296/1/6 295/1/6 294/1/6
f 297/1/6 295/1/6 296/1/6
f 300/3/6 299/3/6 298/3/6
f 301/3/6 299/3/6 300/3/6
f 304/2/6 303/2/6 302/2/6
f 305/2/6 303/2/6 304/2/6
