# MagicaVoxel @ Ephtracy

# group
o 

# material
mtllib stairs_shard-1.mtl
usemtl palette

# normals
vn 0 -1 0
vn 0 1 0
vn 0 0 -1
vn 0 0 1
vn 1 0 0
vn -1 0 0

# texcoords
vt 0.505859 0.5
vt 0.673828 0.5
vt 0.982422 0.5

# verts
v 0.2 0.5 0.5
v 0.2 0.5 0.6
v 0.1 0.5 0.3
v 0.1 0.5 0.5
v 0.1 0.5 0.6
v 0 0.5 0.5
v 0 0.5 0.6
v -0.1 0.5 0.3
v -0.1 0.5 0.5
v -0.2 0.5 0.3
v -0.2 0.5 0.4
v -0.2 0.5 0.5
v -0.3 0.5 -0.3
v -0.3 0.5 0
v -0.4 0.5 -0.3
v -0.4 0.5 0
v -0.4 0.5 0.3
v -0.4 0.5 0.4
v -0.5 0.5 -0.3
v -0.5 0.5 -0.1
v -0.5 0.5 0
v -0.6 0.5 -0.4
v -0.6 0.5 -0.3
v -0.6 0.5 -0.1
v -0.7 0.5 -0.4
v -0.7 0.5 -0.1
v 0.4 0.6 -0.7
v 0.4 0.6 0.9
v 0.3 0.6 -0.7
v 0.3 0.6 0.8
v 0.2 0.6 -0.7
v 0.2 0.6 0.5
v 0.2 0.6 0.6
v 0.2 0.6 0.8
v 0.2 0.6 0.9
v 0.1 0.6 -0.7
v 0.1 0.6 0.3
v 0.1 0.6 0.5
v -0.1 0.6 -0.7
v -0.1 0.6 0.3
v -0.2 0.6 -0.7
v -0.2 0.6 0.3
v -0.3 0.6 -0.3
v -0.3 0.6 0
v -0.4 0.6 -0.7
v -0.4 0.6 -0.3
v -0.4 0.6 0
v -0.4 0.6 0.3
v -0.5 0.6 -0.7
v -0.5 0.6 -0.3
v -0.6 0.6 -0.7
v -0.6 0.6 -0.4
v -0.6 0.6 -0.3
v -0.7 0.6 -0.7
v -0.7 0.6 -0.4
v 0.2 0.6 0.5
v 0.2 0.6 0.6
v 0.1 0.6 0.3
v 0.1 0.6 0.5
v 0.1 0.6 0.6
v 0 0.6 0.5
v 0 0.6 0.6
v -0.1 0.6 0.3
v -0.1 0.6 0.5
v -0.2 0.6 0.3
v -0.2 0.6 0.4
v -0.2 0.6 0.5
v -0.3 0.6 -0.3
v -0.3 0.6 0
v -0.4 0.6 -0.3
v -0.4 0.6 0
v -0.4 0.6 0.3
v -0.4 0.6 0.4
v -0.5 0.6 -0.3
v -0.5 0.6 -0.1
v -0.5 0.6 0
v -0.6 0.6 -0.4
v -0.6 0.6 -0.3
v -0.6 0.6 -0.1
v -0.7 0.6 -0.4
v -0.7 0.6 -0.1
v 0.4 0.7 -0.7
v 0.4 0.7 0.9
v 0.3 0.7 -0.7
v 0.3 0.7 0.8
v 0.2 0.7 -0.7
v 0.2 0.7 0.5
v 0.2 0.7 0.8
v 0.2 0.7 0.9
v 0.1 0.7 -0.7
v 0.1 0.7 0.3
v 0.1 0.7 0.5
v -0.1 0.7 -0.7
v -0.1 0.7 0.3
v -0.2 0.7 -0.7
v -0.2 0.7 0.3
v -0.3 0.7 -0.3
v -0.3 0.7 0
v -0.4 0.7 -0.7
v -0.4 0.7 -0.3
v -0.4 0.7 0
v -0.4 0.7 0.3
v -0.5 0.7 -0.7
v -0.5 0.7 -0.3
v -0.6 0.7 -0.7
v -0.6 0.7 -0.4
v -0.6 0.7 -0.3
v -0.7 0.7 -0.7
v -0.7 0.7 -0.4
v 0.4 0.6 -0.7
v 0.3 0.6 -0.7
v 0.2 0.6 -0.7
v 0.1 0.6 -0.7
v -0.1 0.6 -0.7
v -0.2 0.6 -0.7
v -0.4 0.6 -0.7
v -0.5 0.6 -0.7
v -0.6 0.6 -0.7
v -0.7 0.6 -0.7
v 0.4 0.7 -0.7
v 0.3 0.7 -0.7
v 0.2 0.7 -0.7
v 0.1 0.7 -0.7
v -0.1 0.7 -0.7
v -0.2 0.7 -0.7
v -0.4 0.7 -0.7
v -0.5 0.7 -0.7
v -0.6 0.7 -0.7
v -0.7 0.7 -0.7
v -0.6 0.5 -0.4
v -0.7 0.5 -0.4
v -0.6 0.6 -0.4
v -0.7 0.6 -0.4
v -0.3 0.5 -0.3
v -0.4 0.5 -0.3
v -0.5 0.5 -0.3
v -0.6 0.5 -0.3
v -0.3 0.6 -0.3
v -0.4 0.6 -0.3
v -0.5 0.6 -0.3
v -0.6 0.6 -0.3
v -0.3 0.6 0
v -0.4 0.6 0
v -0.3 0.7 0
v -0.4 0.7 0
v 0.1 0.5 0.3
v -0.1 0.5 0.3
v -0.2 0.5 0.3
v -0.4 0.5 0.3
v 0.1 0.6 0.3
v -0.1 0.6 0.3
v -0.2 0.6 0.3
v -0.4 0.6 0.3
v 0.2 0.5 0.5
v 0.1 0.5 0.5
v 0.2 0.6 0.5
v 0.1 0.6 0.5
v -0.6 0.6 -0.4
v -0.7 0.6 -0.4
v -0.6 0.7 -0.4
v -0.7 0.7 -0.4
v -0.3 0.6 -0.3
v -0.4 0.6 -0.3
v -0.5 0.6 -0.3
v -0.6 0.6 -0.3
v -0.3 0.7 -0.3
v -0.4 0.7 -0.3
v -0.5 0.7 -0.3
v -0.6 0.7 -0.3
v -0.5 0.5 -0.1
v -0.6 0.5 -0.1
v -0.7 0.5 -0.1
v -0.5 0.6 -0.1
v -0.6 0.6 -0.1
v -0.7 0.6 -0.1
v -0.3 0.5 0
v -0.4 0.5 0
v -0.5 0.5 0
v -0.3 0.6 0
v -0.4 0.6 0
v -0.5 0.6 0
v 0.1 0.6 0.3
v -0.1 0.6 0.3
v -0.2 0.6 0.3
v -0.4 0.6 0.3
v 0.1 0.7 0.3
v -0.1 0.7 0.3
v -0.2 0.7 0.3
v -0.4 0.7 0.3
v -0.2 0.5 0.4
v -0.4 0.5 0.4
v -0.2 0.6 0.4
v -0.4 0.6 0.4
v 0 0.5 0.5
v -0.1 0.5 0.5
v -0.2 0.5 0.5
v 0.2 0.6 0.5
v 0.1 0.6 0.5
v 0 0.6 0.5
v -0.1 0.6 0.5
v -0.2 0.6 0.5
v 0.2 0.7 0.5
v 0.1 0.7 0.5
v 0.2 0.5 0.6
v 0.1 0.5 0.6
v 0 0.5 0.6
v 0.2 0.6 0.6
v 0.1 0.6 0.6
v 0 0.6 0.6
v 0.4 0.6 0.9
v 0.2 0.6 0.9
v 0.4 0.7 0.9
v 0.2 0.7 0.9
v 0.4 0.6 -0.7
v 0.4 0.7 -0.7
v 0.4 0.6 0.9
v 0.4 0.7 0.9
v 0.2 0.5 0.5
v 0.2 0.6 0.5
v 0.2 0.5 0.6
v 0.2 0.6 0.6
v 0.1 0.5 0.3
v 0.1 0.6 0.3
v 0.1 0.5 0.5
v 0.1 0.6 0.5
v -0.3 0.5 -0.3
v -0.3 0.6 -0.3
v -0.3 0.5 0
v -0.3 0.6 0
v -0.6 0.5 -0.4
v -0.6 0.6 -0.4
v -0.6 0.5 -0.3
v -0.6 0.6 -0.3
v 0.2 0.6 0.5
v 0.2 0.7 0.5
v 0.2 0.6 0.6
v 0.2 0.6 0.8
v 0.2 0.7 0.8
v 0.2 0.6 0.9
v 0.2 0.7 0.9
v 0.1 0.6 0.3
v 0.1 0.7 0.3
v 0.1 0.6 0.5
v 0.1 0.7 0.5
v 0 0.5 0.5
v 0 0.6 0.5
v 0 0.5 0.6
v 0 0.6 0.6
v -0.2 0.5 0.4
v -0.2 0.6 0.4
v -0.2 0.5 0.5
v -0.2 0.6 0.5
v -0.3 0.6 -0.3
v -0.3 0.7 -0.3
v -0.3 0.6 0
v -0.3 0.7 0
v -0.4 0.6 0
v -0.4 0.7 0
v -0.4 0.5 0.3
v -0.4 0.6 0.3
v -0.4 0.7 0.3
v -0.4 0.5 0.4
v -0.4 0.6 0.4
v -0.5 0.5 -0.1
v -0.5 0.6 -0.1
v -0.5 0.5 0
v -0.5 0.6 0
v -0.6 0.6 -0.4
v -0.6 0.7 -0.4
v -0.6 0.6 -0.3
v -0.6 0.7 -0.3
v -0.7 0.6 -0.7
v -0.7 0.7 -0.7
v -0.7 0.5 -0.4
v -0.7 0.6 -0.4
v -0.7 0.7 -0.4
v -0.7 0.5 -0.1
v -0.7 0.6 -0.1

# faces
f 1/3/1 2/3/1 4/3/1
f 4/3/1 2/3/1 5/3/1
f 3/1/1 4/1/1 6/1/1
f 4/1/1 5/1/1 6/1/1
f 6/1/1 5/1/1 7/1/1
f 3/1/1 6/1/1 8/1/1
f 8/1/1 6/1/1 9/1/1
f 8/3/1 9/3/1 10/3/1
f 10/3/1 9/3/1 11/3/1
f 11/3/1 9/3/1 12/3/1
f 13/1/1 14/1/1 15/1/1
f 15/1/1 14/1/1 16/1/1
f 10/1/1 11/1/1 17/1/1
f 17/1/1 11/1/1 18/1/1
f 15/3/1 16/3/1 19/3/1
f 19/3/1 16/3/1 20/3/1
f 20/3/1 16/3/1 21/3/1
f 19/1/1 20/1/1 23/1/1
f 23/1/1 20/1/1 24/1/1
f 22/2/1 23/2/1 25/2/1
f 23/2/1 24/2/1 25/2/1
f 25/2/1 24/2/1 26/2/1
f 27/2/1 28/2/1 29/2/1
f 29/2/1 28/2/1 30/2/1
f 29/1/1 30/1/1 31/1/1
f 31/1/1 30/1/1 32/1/1
f 32/1/1 30/1/1 33/1/1
f 30/2/1 28/2/1 34/2/1
f 33/1/1 30/1/1 34/1/1
f 34/2/1 28/2/1 35/2/1
f 31/3/1 32/3/1 36/3/1
f 36/3/1 32/3/1 37/3/1
f 37/3/1 32/3/1 38/3/1
f 36/1/1 37/1/1 39/1/1
f 39/1/1 37/1/1 40/1/1
f 39/3/1 40/3/1 41/3/1
f 41/3/1 40/3/1 42/3/1
f 41/1/1 42/1/1 43/1/1
f 43/1/1 42/1/1 44/1/1
f 41/1/1 43/1/1 45/1/1
f 45/1/1 43/1/1 46/1/1
f 44/1/1 42/1/1 47/1/1
f 47/1/1 42/1/1 48/1/1
f 45/3/1 46/3/1 49/3/1
f 49/3/1 46/3/1 50/3/1
f 49/1/1 50/1/1 51/1/1
f 51/1/1 50/1/1 52/1/1
f 52/1/1 50/1/1 53/1/1
f 51/2/1 52/2/1 54/2/1
f 54/2/1 52/2/1 55/2/1
f 59/3/2 57/3/2 56/3/2
f 60/3/2 57/3/2 59/3/2
f 61/1/2 59/1/2 58/1/2
f 61/1/2 60/1/2 59/1/2
f 62/1/2 60/1/2 61/1/2
f 63/1/2 61/1/2 58/1/2
f 64/1/2 61/1/2 63/1/2
f 65/3/2 64/3/2 63/3/2
f 66/3/2 64/3/2 65/3/2
f 67/3/2 64/3/2 66/3/2
f 70/1/2 69/1/2 68/1/2
f 71/1/2 69/1/2 70/1/2
f 72/1/2 66/1/2 65/1/2
f 73/1/2 66/1/2 72/1/2
f 74/3/2 71/3/2 70/3/2
f 75/3/2 71/3/2 74/3/2
f 76/3/2 71/3/2 75/3/2
f 78/1/2 75/1/2 74/1/2
f 79/1/2 75/1/2 78/1/2
f 80/2/2 78/2/2 77/2/2
f 80/2/2 79/2/2 78/2/2
f 81/2/2 79/2/2 80/2/2
f 84/2/2 83/2/2 82/2/2
f 85/2/2 83/2/2 84/2/2
f 86/1/2 85/1/2 84/1/2
f 87/1/2 85/1/2 86/1/2
f 88/2/2 83/2/2 85/2/2
f 88/1/2 85/1/2 87/1/2
f 89/2/2 83/2/2 88/2/2
f 90/3/2 87/3/2 86/3/2
f 91/3/2 87/3/2 90/3/2
f 92/3/2 87/3/2 91/3/2
f 93/1/2 91/1/2 90/1/2
f 94/1/2 91/1/2 93/1/2
f 95/3/2 94/3/2 93/3/2
f 96/3/2 94/3/2 95/3/2
f 97/1/2 96/1/2 95/1/2
f 98/1/2 96/1/2 97/1/2
f 99/1/2 97/1/2 95/1/2
f 100/1/2 97/1/2 99/1/2
f 101/1/2 96/1/2 98/1/2
f 102/1/2 96/1/2 101/1/2
f 103/3/2 100/3/2 99/3/2
f 104/3/2 100/3/2 103/3/2
f 105/1/2 104/1/2 103/1/2
f 106/1/2 104/1/2 105/1/2
f 107/1/2 104/1/2 106/1/2
f 108/2/2 106/2/2 105/2/2
f 109/2/2 106/2/2 108/2/2
f 110/2/3 111/2/3 120/2/3
f 111/1/3 112/1/3 121/1/3
f 120/2/3 111/2/3 121/2/3
f 112/3/3 113/3/3 122/3/3
f 121/1/3 112/1/3 122/1/3
f 113/1/3 114/1/3 123/1/3
f 122/3/3 113/3/3 123/3/3
f 114/3/3 115/3/3 124/3/3
f 123/1/3 114/1/3 124/1/3
f 115/1/3 116/1/3 125/1/3
f 124/3/3 115/3/3 125/3/3
f 116/3/3 117/3/3 126/3/3
f 125/1/3 116/1/3 126/1/3
f 117/1/3 118/1/3 127/1/3
f 126/3/3 117/3/3 127/3/3
f 118/2/3 119/2/3 128/2/3
f 127/1/3 118/1/3 128/1/3
f 128/2/3 119/2/3 129/2/3
f 130/2/3 131/2/3 132/2/3
f 132/2/3 131/2/3 133/2/3
f 134/1/3 135/1/3 138/1/3
f 135/3/3 136/3/3 139/3/3
f 138/1/3 135/1/3 139/1/3
f 136/1/3 137/1/3 140/1/3
f 139/3/3 136/3/3 140/3/3
f 140/1/3 137/1/3 141/1/3
f 142/1/3 143/1/3 144/1/3
f 144/1/3 143/1/3 145/1/3
f 146/1/3 147/1/3 150/1/3
f 147/3/3 148/3/3 151/3/3
f 150/1/3 147/1/3 151/1/3
f 148/1/3 149/1/3 152/1/3
f 151/3/3 148/3/3 152/3/3
f 152/1/3 149/1/3 153/1/3
f 154/3/3 155/3/3 156/3/3
f 156/3/3 155/3/3 157/3/3
f 160/2/4 159/2/4 158/2/4
f 161/2/4 159/2/4 160/2/4
f 166/1/4 163/1/4 162/1/4
f 167/3/4 164/3/4 163/3/4
f 167/1/4 163/1/4 166/1/4
f 168/1/4 165/1/4 164/1/4
f 168/3/4 164/3/4 167/3/4
f 169/1/4 165/1/4 168/1/4
f 173/1/4 171/1/4 170/1/4
f 174/2/4 172/2/4 171/2/4
f 174/1/4 171/1/4 173/1/4
f 175/2/4 172/2/4 174/2/4
f 179/1/4 177/1/4 176/1/4
f 180/3/4 178/3/4 177/3/4
f 180/1/4 177/1/4 179/1/4
f 181/3/4 178/3/4 180/3/4
f 186/1/4 183/1/4 182/1/4
f 187/3/4 184/3/4 183/3/4
f 187/1/4 183/1/4 186/1/4
f 188/1/4 185/1/4 184/1/4
f 188/3/4 184/3/4 187/3/4
f 189/1/4 185/1/4 188/1/4
f 192/1/4 191/1/4 190/1/4
f 193/1/4 191/1/4 192/1/4
f 199/1/4 195/1/4 194/1/4
f 200/3/4 196/3/4 195/3/4
f 200/1/4 195/1/4 199/1/4
f 201/3/4 196/3/4 200/3/4
f 202/3/4 198/3/4 197/3/4
f 203/3/4 198/3/4 202/3/4
f 207/3/4 205/3/4 204/3/4
f 208/1/4 206/1/4 205/1/4
f 208/3/4 205/3/4 207/3/4
f 209/1/4 206/1/4 208/1/4
f 212/2/4 211/2/4 210/2/4
f 213/2/4 211/2/4 212/2/4
f 214/2/5 215/2/5 216/2/5
f 216/2/5 215/2/5 217/2/5
f 218/3/5 219/3/5 220/3/5
f 220/3/5 219/3/5 221/3/5
f 222/1/5 223/1/5 224/1/5
f 224/1/5 223/1/5 225/1/5
f 226/1/5 227/1/5 228/1/5
f 228/1/5 227/1/5 229/1/5
f 230/2/5 231/2/5 232/2/5
f 232/2/5 231/2/5 233/2/5
f 236/1/6 235/1/6 234/1/6
f 237/1/6 235/1/6 236/1/6
f 238/1/6 235/1/6 237/1/6
f 239/2/6 238/2/6 237/2/6
f 240/2/6 238/2/6 239/2/6
f 243/3/6 242/3/6 241/3/6
f 244/3/6 242/3/6 243/3/6
f 247/1/6 246/1/6 245/1/6
f 248/1/6 246/1/6 247/1/6
f 251/3/6 250/3/6 249/3/6
f 252/3/6 250/3/6 251/3/6
f 255/1/6 254/1/6 253/1/6
f 256/1/6 254/1/6 255/1/6
f 260/1/6 258/1/6 257/1/6
f 261/1/6 258/1/6 260/1/6
f 262/1/6 260/1/6 259/1/6
f 263/1/6 260/1/6 262/1/6
f 266/3/6 265/3/6 264/3/6
f 267/3/6 265/3/6 266/3/6
f 270/1/6 269/1/6 268/1/6
f 271/1/6 269/1/6 270/1/6
f 275/2/6 273/2/6 272/2/6
f 276/2/6 273/2/6 275/2/6
f 277/2/6 275/2/6 274/2/6
f 278/2/6 275/2/6 277/2/6
