# MagicaVoxel @ Ephtracy

# group
o 

# material
mtllib lampa2.mtl
usemtl palette

# normals
vn -1 0 0
vn 1 0 0
vn 0 0 1
vn 0 0 -1
vn 0 -1 0
vn 0 1 0

# texcoords
vt 0.00195313 0.5
vt 0.958984 0.5
vt 0.982422 0.5

# verts
v -1.6 0 1.6
v -1.6 0 -1.6
v -1.6 0.1 1.6
v -1.6 0.1 -1.6
v -1.5 -0.1 1.5
v -1.5 -0.1 -1.5
v -1.5 0 1.5
v -1.5 0 -1.5
v 1.5 -0.1 1.5
v 1.5 -0.1 -1.5
v 1.5 0 1.5
v 1.5 0 -1.5
v 1.6 0 1.6
v 1.6 0 -1.6
v 1.6 0.1 1.6
v 1.6 0.1 -1.6
v -1.6 0 1.6
v -1.6 0.1 1.6
v 1.6 0 1.6
v 1.6 0.1 1.6
v -1.5 -0.1 1.5
v -1.5 0 1.5
v 1.5 -0.1 1.5
v 1.5 0 1.5
v -1.5 -0.1 -1.5
v -1.5 0 -1.5
v 1.5 -0.1 -1.5
v 1.5 0 -1.5
v -1.6 0 -1.6
v -1.6 0.1 -1.6
v 1.6 0 -1.6
v 1.6 0.1 -1.6
v -1.5 -0.1 1.5
v 1.5 -0.1 1.5
v -1.4 -0.1 1.4
v 1.4 -0.1 1.4
v -1.4 -0.1 -1.4
v 1.4 -0.1 -1.4
v -1.5 -0.1 -1.5
v 1.5 -0.1 -1.5
v -1.6 0 1.6
v 1.6 0 1.6
v -1.5 0 1.5
v 1.5 0 1.5
v -1.5 0 -1.5
v 1.5 0 -1.5
v -1.6 0 -1.6
v 1.6 0 -1.6
v -1.6 0.1 1.6
v 1.6 0.1 1.6
v -1.5 0.1 1.5
v 1.5 0.1 1.5
v -1.5 0.1 -1.5
v 1.5 0.1 -1.5
v -1.6 0.1 -1.6
v 1.6 0.1 -1.6

# faces
f 3/3/1 2/3/1 1/3/1
f 4/3/1 2/3/1 3/3/1
f 7/2/1 6/2/1 5/2/1
f 8/2/1 6/2/1 7/2/1
f 9/2/2 10/2/2 11/2/2
f 11/2/2 10/2/2 12/2/2
f 13/3/2 14/3/2 15/3/2
f 15/3/2 14/3/2 16/3/2
f 19/3/3 18/3/3 17/3/3
f 20/3/3 18/3/3 19/3/3
f 23/2/3 22/2/3 21/2/3
f 24/2/3 22/2/3 23/2/3
f 25/2/4 26/2/4 27/2/4
f 27/2/4 26/2/4 28/2/4
f 29/3/4 30/3/4 31/3/4
f 31/3/4 30/3/4 32/3/4
f 35/2/5 34/2/5 33/2/5
f 36/2/5 34/2/5 35/2/5
f 37/2/5 35/2/5 33/2/5
f 37/1/5 36/1/5 35/1/5
f 38/2/5 34/2/5 36/2/5
f 38/1/5 36/1/5 37/1/5
f 39/2/5 37/2/5 33/2/5
f 39/2/5 38/2/5 37/2/5
f 40/2/5 34/2/5 38/2/5
f 40/2/5 38/2/5 39/2/5
f 43/3/5 42/3/5 41/3/5
f 44/3/5 42/3/5 43/3/5
f 45/3/5 43/3/5 41/3/5
f 46/3/5 42/3/5 44/3/5
f 47/3/5 45/3/5 41/3/5
f 47/3/5 46/3/5 45/3/5
f 48/3/5 42/3/5 46/3/5
f 48/3/5 46/3/5 47/3/5
f 49/3/6 50/3/6 51/3/6
f 51/3/6 50/3/6 52/3/6
f 49/3/6 51/3/6 53/3/6
f 51/1/6 52/1/6 53/1/6
f 52/3/6 50/3/6 54/3/6
f 53/1/6 52/1/6 54/1/6
f 49/3/6 53/3/6 55/3/6
f 53/3/6 54/3/6 55/3/6
f 54/3/6 50/3/6 56/3/6
f 55/3/6 54/3/6 56/3/6
