# MagicaVoxel @ Ephtracy

# group
o 

# material
mtllib wall.mtl
usemtl palette

# normals
vn -1 0 0
vn 1 0 0
vn 0 0 1
vn 0 0 -1
vn 0 -1 0
vn 0 1 0

# texcoords
vt 0.146484 0.5
vt 0.533203 0.5
vt 0.849609 0.5

# verts
v -0.15 -1.1 1.85
v -0.15 -1.1 -1.85
v -0.15 -0.6 1.85
v -0.15 -0.6 -1.85
v -0.15 -0.5 1.85
v -0.15 -0.5 -1.85
v -0.15 -0.2 1.85
v -0.15 -0.2 -1.85
v -0.15 -0.1 1.85
v -0.15 -0.1 -1.85
v -0.15 1.1 1.85
v -0.15 1.1 -1.85
v 0.15 -1.1 1.85
v 0.15 -1.1 -1.85
v 0.15 1.1 1.85
v 0.15 1.1 -1.85
v -0.15 -1.1 1.85
v -0.15 -0.6 1.85
v -0.15 -0.5 1.85
v -0.15 -0.2 1.85
v -0.15 -0.1 1.85
v -0.15 1.1 1.85
v -0.05 -0.6 1.85
v -0.05 -0.5 1.85
v -0.05 -0.2 1.85
v -0.05 -0.1 1.85
v 0.15 -1.1 1.85
v 0.15 1.1 1.85
v -0.15 -1.1 -1.85
v -0.15 -0.6 -1.85
v -0.15 -0.5 -1.85
v -0.15 -0.2 -1.85
v -0.15 -0.1 -1.85
v -0.15 1.1 -1.85
v -0.05 -0.6 -1.85
v -0.05 -0.5 -1.85
v -0.05 -0.2 -1.85
v -0.05 -0.1 -1.85
v 0.15 -1.1 -1.85
v 0.15 1.1 -1.85
v -0.15 -1.1 1.85
v 0.15 -1.1 1.85
v -0.15 -1.1 -1.85
v 0.15 -1.1 -1.85
v -0.15 1.1 1.85
v 0.15 1.1 1.85
v -0.15 1.1 -1.85
v 0.15 1.1 -1.85

# faces
f 3/2/1 2/2/1 1/2/1
f 4/2/1 2/2/1 3/2/1
f 5/1/1 4/1/1 3/1/1
f 6/1/1 4/1/1 5/1/1
f 7/3/1 6/3/1 5/3/1
f 8/3/1 6/3/1 7/3/1
f 9/1/1 8/1/1 7/1/1
f 10/1/1 8/1/1 9/1/1
f 11/2/1 10/2/1 9/2/1
f 12/2/1 10/2/1 11/2/1
f 13/2/2 14/2/2 15/2/2
f 15/2/2 14/2/2 16/2/2
f 23/2/3 18/2/3 17/2/3
f 23/1/3 19/1/3 18/1/3
f 24/3/3 20/3/3 19/3/3
f 24/1/3 19/1/3 23/1/3
f 25/1/3 21/1/3 20/1/3
f 25/3/3 20/3/3 24/3/3
f 26/2/3 22/2/3 21/2/3
f 26/1/3 21/1/3 25/1/3
f 27/2/3 25/2/3 24/2/3
f 27/2/3 24/2/3 23/2/3
f 27/2/3 26/2/3 25/2/3
f 27/2/3 23/2/3 17/2/3
f 28/2/3 22/2/3 26/2/3
f 28/2/3 26/2/3 27/2/3
f 29/2/4 30/2/4 35/2/4
f 30/1/4 31/1/4 35/1/4
f 31/3/4 32/3/4 36/3/4
f 35/1/4 31/1/4 36/1/4
f 32/1/4 33/1/4 37/1/4
f 36/3/4 32/3/4 37/3/4
f 33/2/4 34/2/4 38/2/4
f 37/1/4 33/1/4 38/1/4
f 36/2/4 37/2/4 39/2/4
f 35/2/4 36/2/4 39/2/4
f 37/2/4 38/2/4 39/2/4
f 29/2/4 35/2/4 39/2/4
f 38/2/4 34/2/4 40/2/4
f 39/2/4 38/2/4 40/2/4
f 43/2/5 42/2/5 41/2/5
f 44/2/5 42/2/5 43/2/5
f 45/2/6 46/2/6 47/2/6
f 47/2/6 46/2/6 48/2/6
