# MagicaVoxel @ Ephtracy

# group
o 

# material
mtllib player-0.mtl
usemtl palette

# normals
vn -1 0 0
vn 1 0 0
vn 0 0 1
vn 0 0 -1
vn 0 -1 0
vn 0 1 0

# texcoords
vt 0.970703 0.5
vt 0.974609 0.5
vt 0.978516 0.5
vt 0.982422 0.5

# verts
v -0.5 0 0.2
v -0.5 0 -0.2
v -0.5 0.5 0.2
v -0.5 0.5 0.1
v -0.5 0.5 -0.1
v -0.5 0.5 -0.2
v -0.5 0.8 0.2
v -0.5 0.8 0.1
v -0.5 0.8 -0.1
v -0.5 0.8 -0.2
v -0.1 0 0.2
v -0.1 0 -0.2
v -0.1 0.5 0.2
v -0.1 0.5 0.1
v -0.1 0.5 -0.1
v -0.1 0.5 -0.2
v -0.1 0.8 0.2
v -0.1 0.8 0.1
v -0.1 0.8 -0.1
v -0.1 0.8 -0.2
v -0.5 0 0.2
v -0.5 0.5 0.2
v -0.5 0.8 0.2
v -0.4 0.1 0.2
v -0.4 0.4 0.2
v -0.4 0.5 0.2
v -0.4 0.8 0.2
v -0.2 0.1 0.2
v -0.2 0.4 0.2
v -0.2 0.5 0.2
v -0.2 0.8 0.2
v -0.1 0 0.2
v -0.1 0.5 0.2
v -0.1 0.8 0.2
v -0.5 0 -0.2
v -0.5 0.5 -0.2
v -0.5 0.8 -0.2
v -0.4 0.1 -0.2
v -0.4 0.4 -0.2
v -0.4 0.5 -0.2
v -0.4 0.8 -0.2
v -0.2 0.1 -0.2
v -0.2 0.4 -0.2
v -0.2 0.5 -0.2
v -0.2 0.8 -0.2
v -0.1 0 -0.2
v -0.1 0.5 -0.2
v -0.1 0.8 -0.2
v -0.5 0 0.2
v -0.1 0 0.2
v -0.5 0 -0.2
v -0.1 0 -0.2
v -0.5 0.8 0.2
v -0.4 0.8 0.2
v -0.2 0.8 0.2
v -0.1 0.8 0.2
v -0.5 0.8 0.1
v -0.4 0.8 0.1
v -0.2 0.8 0.1
v -0.1 0.8 0.1
v -0.5 0.8 -0.1
v -0.4 0.8 -0.1
v -0.2 0.8 -0.1
v -0.1 0.8 -0.1
v -0.5 0.8 -0.2
v -0.4 0.8 -0.2
v -0.2 0.8 -0.2
v -0.1 0.8 -0.2

# faces
f 3/1/1 2/1/1 1/1/1
f 4/1/1 2/1/1 3/1/1
f 5/1/1 2/1/1 4/1/1
f 6/1/1 2/1/1 5/1/1
f 7/4/1 4/4/1 3/4/1
f 8/3/1 5/3/1 4/3/1
f 8/4/1 4/4/1 7/4/1
f 9/4/1 6/4/1 5/4/1
f 9/3/1 5/3/1 8/3/1
f 10/4/1 6/4/1 9/4/1
f 11/1/2 12/1/2 13/1/2
f 13/1/2 12/1/2 14/1/2
f 14/1/2 12/1/2 15/1/2
f 15/1/2 12/1/2 16/1/2
f 13/4/2 14/4/2 17/4/2
f 14/3/2 15/3/2 18/3/2
f 17/4/2 14/4/2 18/4/2
f 15/4/2 16/4/2 19/4/2
f 18/3/2 15/3/2 19/3/2
f 19/4/2 16/4/2 20/4/2
f 24/1/3 22/1/3 21/1/3
f 25/1/3 22/1/3 24/1/3
f 26/4/3 23/4/3 22/4/3
f 26/1/3 22/1/3 25/1/3
f 27/4/3 23/4/3 26/4/3
f 28/2/3 25/2/3 24/2/3
f 28/1/3 24/1/3 21/1/3
f 29/1/3 26/1/3 25/1/3
f 29/2/3 25/2/3 28/2/3
f 30/3/3 27/3/3 26/3/3
f 30/1/3 26/1/3 29/1/3
f 31/3/3 27/3/3 30/3/3
f 32/1/3 29/1/3 28/1/3
f 32/1/3 28/1/3 21/1/3
f 32/1/3 30/1/3 29/1/3
f 33/4/3 31/4/3 30/4/3
f 33/1/3 30/1/3 32/1/3
f 34/4/3 31/4/3 33/4/3
f 35/1/4 36/1/4 38/1/4
f 38/1/4 36/1/4 39/1/4
f 36/4/4 37/4/4 40/4/4
f 39/1/4 36/1/4 40/1/4
f 40/4/4 37/4/4 41/4/4
f 38/2/4 39/2/4 42/2/4
f 35/1/4 38/1/4 42/1/4
f 39/1/4 40/1/4 43/1/4
f 42/2/4 39/2/4 43/2/4
f 40/3/4 41/3/4 44/3/4
f 43/1/4 40/1/4 44/1/4
f 44/3/4 41/3/4 45/3/4
f 42/1/4 43/1/4 46/1/4
f 35/1/4 42/1/4 46/1/4
f 43/1/4 44/1/4 46/1/4
f 44/4/4 45/4/4 47/4/4
f 46/1/4 44/1/4 47/1/4
f 47/4/4 45/4/4 48/4/4
f 51/1/5 50/1/5 49/1/5
f 52/1/5 50/1/5 51/1/5
f 53/4/6 54/4/6 57/4/6
f 54/3/6 55/3/6 58/3/6
f 57/4/6 54/4/6 58/4/6
f 55/4/6 56/4/6 59/4/6
f 58/3/6 55/3/6 59/3/6
f 59/4/6 56/4/6 60/4/6
f 57/3/6 58/3/6 61/3/6
f 58/3/6 59/3/6 61/3/6
f 59/3/6 60/3/6 61/3/6
f 61/3/6 60/3/6 62/3/6
f 62/3/6 60/3/6 63/3/6
f 63/3/6 60/3/6 64/3/6
f 61/4/6 62/4/6 65/4/6
f 62/3/6 63/3/6 66/3/6
f 65/4/6 62/4/6 66/4/6
f 63/4/6 64/4/6 67/4/6
f 66/3/6 63/3/6 67/3/6
f 67/4/6 64/4/6 68/4/6
