# MagicaVoxel @ Ephtracy

# group
o 

# material
mtllib player-2.mtl
usemtl palette

# normals
vn -1 0 0
vn 1 0 0
vn 0 0 1
vn 0 0 -1
vn 0 -1 0
vn 0 1 0

# texcoords
vt 0.939453 0.5
vt 0.978516 0.5
vt 0.994141 0.5

# verts
v -0.4 1.8 0.3
v -0.4 1.8 -0.4
v -0.4 1.9 -0.3
v -0.4 1.9 -0.4
v -0.4 2.3 -0.3
v -0.4 2.3 -0.4
v -0.4 2.5 0.3
v -0.4 2.5 -0.4
v 0.4 1.8 0.3
v 0.4 1.8 -0.4
v 0.4 1.9 -0.3
v 0.4 1.9 -0.4
v 0.4 2.3 -0.3
v 0.4 2.3 -0.4
v 0.4 2.5 0.3
v 0.4 2.5 -0.4
v -0.4 1.8 0.3
v -0.4 2.5 0.3
v 0.4 1.8 0.3
v 0.4 2.5 0.3
v -0.4 1.8 -0.4
v -0.4 1.9 -0.4
v -0.4 2.3 -0.4
v -0.4 2.5 -0.4
v -0.3 2 -0.4
v -0.3 2.1 -0.4
v -0.3 2.3 -0.4
v -0.3 2.4 -0.4
v -0.2 2 -0.4
v -0.2 2.1 -0.4
v 0 2.2 -0.4
v 0 2.3 -0.4
v 0.2 2.2 -0.4
v 0.2 2.3 -0.4
v 0.3 2.3 -0.4
v 0.3 2.4 -0.4
v 0.4 1.8 -0.4
v 0.4 1.9 -0.4
v 0.4 2.3 -0.4
v 0.4 2.5 -0.4
v -0.4 1.8 0.3
v 0.4 1.8 0.3
v -0.4 1.8 -0.4
v 0.4 1.8 -0.4
v -0.4 2.5 0.3
v 0.4 2.5 0.3
v -0.4 2.5 -0.4
v 0.4 2.5 -0.4

# faces
f 3/2/1 2/2/1 1/2/1
f 4/2/1 2/2/1 3/2/1
f 5/2/1 3/2/1 1/2/1
f 5/3/1 4/3/1 3/3/1
f 6/3/1 4/3/1 5/3/1
f 7/2/1 5/2/1 1/2/1
f 7/2/1 6/2/1 5/2/1
f 8/2/1 6/2/1 7/2/1
f 9/2/2 10/2/2 11/2/2
f 11/2/2 10/2/2 12/2/2
f 9/2/2 11/2/2 13/2/2
f 11/3/2 12/3/2 13/3/2
f 13/3/2 12/3/2 14/3/2
f 9/2/2 13/2/2 15/2/2
f 13/2/2 14/2/2 15/2/2
f 15/2/2 14/2/2 16/2/2
f 19/2/3 18/2/3 17/2/3
f 20/2/3 18/2/3 19/2/3
f 22/3/4 23/3/4 25/3/4
f 25/3/4 23/3/4 26/3/4
f 23/2/4 24/2/4 27/2/4
f 26/3/4 23/3/4 27/3/4
f 27/2/4 24/2/4 28/2/4
f 25/2/4 26/2/4 29/2/4
f 22/3/4 25/3/4 29/3/4
f 27/3/4 28/3/4 30/3/4
f 29/2/4 26/2/4 30/2/4
f 26/3/4 27/3/4 30/3/4
f 29/3/4 30/3/4 31/3/4
f 30/3/4 28/3/4 31/3/4
f 31/3/4 28/3/4 32/3/4
f 29/3/4 31/3/4 33/3/4
f 31/1/4 32/1/4 33/1/4
f 32/3/4 28/3/4 34/3/4
f 33/1/4 32/1/4 34/1/4
f 33/3/4 34/3/4 35/3/4
f 34/3/4 28/3/4 35/3/4
f 28/2/4 24/2/4 36/2/4
f 35/3/4 28/3/4 36/3/4
f 21/2/4 22/2/4 37/2/4
f 33/3/4 35/3/4 38/3/4
f 37/2/4 22/2/4 38/2/4
f 22/3/4 29/3/4 38/3/4
f 29/3/4 33/3/4 38/3/4
f 35/2/4 36/2/4 39/2/4
f 38/3/4 35/3/4 39/3/4
f 36/2/4 24/2/4 40/2/4
f 39/2/4 36/2/4 40/2/4
f 43/2/5 42/2/5 41/2/5
f 44/2/5 42/2/5 43/2/5
f 45/2/6 46/2/6 47/2/6
f 47/2/6 46/2/6 48/2/6
