# MagicaVoxel @ Ephtracy

# group
o 

# material
mtllib elevator.mtl
usemtl palette

# normals
vn -1 0 0
vn 1 0 0
vn 0 0 1
vn 0 0 -1
vn 0 -1 0
vn 0 1 0

# texcoords
vt 0.162109 0.5
vt 0.169922 0.5
vt 0.505859 0.5
vt 0.525391 0.5
vt 0.529297 0.5
vt 0.966797 0.5
vt 0.970703 0.5
vt 0.994141 0.5

# verts
v -2 -2.25 1.85
v -2 -2.25 1.65
v -2 -2.25 1.05
v -2 -2.25 0.45
v -2 -2.25 -0.15
v -2 -2.25 -0.75
v -2 -2.25 -1.35
v -2 -2.25 -1.65
v -2 -2.15 1.85
v -2 -2.15 1.65
v -2 -2.15 1.05
v -2 -2.15 0.45
v -2 -2.15 -0.15
v -2 -2.15 -0.75
v -2 -2.15 -1.35
v -2 -2.15 -1.65
v -2 2.25 1.85
v -2 2.25 -1.65
v -1.5 -2.15 -1.35
v -1.5 -2.15 -1.55
v -1.5 -2.15 -1.65
v -1.5 -2.15 -1.85
v -1.5 1.35 -1.35
v -1.5 1.35 -1.55
v -1.5 1.35 -1.65
v -1.5 1.35 -1.85
v -1 -0.75 1.75
v -1 -0.75 1.65
v -1 -0.65 1.75
v -1 -0.65 1.65
v -0.6 1.35 -1.45
v -0.6 1.35 -1.55
v -0.6 2.05 -1.45
v -0.6 2.05 -1.55
v 0.9 -0.75 1.75
v 0.9 -0.75 1.65
v 0.9 -0.65 1.75
v 0.9 -0.65 1.65
v 1.3 -2.15 -1.35
v 1.3 -2.15 -1.65
v 1.3 -2.15 -1.85
v 1.3 1.05 -1.35
v 1.3 1.05 -1.85
v 1.9 -2.15 1.75
v 1.9 -2.15 1.65
v 1.9 -2.15 1.05
v 1.9 -2.15 0.45
v 1.9 -2.15 -0.15
v 1.9 -2.15 -0.75
v 1.9 -2.15 -1.35
v 1.9 -2.15 -1.55
v 1.9 -0.75 1.65
v 1.9 -0.75 1.55
v 1.9 -0.65 1.65
v 1.9 -0.65 1.55
v 1.9 2.15 1.75
v 1.9 2.15 -1.55
v -1.9 -2.15 1.75
v -1.9 -2.15 1.65
v -1.9 -2.15 1.05
v -1.9 -2.15 0.45
v -1.9 -2.15 -0.15
v -1.9 -2.15 -0.75
v -1.9 -2.15 -1.35
v -1.9 -2.15 -1.55
v -1.9 -0.75 1.65
v -1.9 -0.75 1.55
v -1.9 -0.65 1.65
v -1.9 -0.65 1.55
v -1.9 2.15 1.75
v -1.9 2.15 -1.55
v -1.3 -2.15 -1.35
v -1.3 -2.15 -1.65
v -1.3 -2.15 -1.85
v -1.3 1.05 -1.35
v -1.3 1.05 -1.85
v -0.9 -0.75 1.75
v -0.9 -0.75 1.65
v -0.9 -0.65 1.75
v -0.9 -0.65 1.65
v 0.6 1.35 -1.45
v 0.6 1.35 -1.55
v 0.6 2.05 -1.45
v 0.6 2.05 -1.55
v 1 -0.75 1.75
v 1 -0.75 1.65
v 1 -0.65 1.75
v 1 -0.65 1.65
v 1.5 -2.15 -1.35
v 1.5 -2.15 -1.55
v 1.5 -2.15 -1.65
v 1.5 -2.15 -1.85
v 1.5 1.35 -1.35
v 1.5 1.35 -1.55
v 1.5 1.35 -1.65
v 1.5 1.35 -1.85
v 2 -2.25 1.85
v 2 -2.25 1.65
v 2 -2.25 1.05
v 2 -2.25 0.45
v 2 -2.25 -0.15
v 2 -2.25 -0.75
v 2 -2.25 -1.35
v 2 -2.25 -1.65
v 2 -2.15 1.85
v 2 -2.15 1.65
v 2 -2.15 1.05
v 2 -2.15 0.45
v 2 -2.15 -0.15
v 2 -2.15 -0.75
v 2 -2.15 -1.35
v 2 -2.15 -1.65
v 2 2.25 1.85
v 2 2.25 -1.65
v -2 -2.25 1.85
v -2 -2.15 1.85
v -2 2.25 1.85
v -1.8 -2.25 1.85
v -1.8 -2.15 1.85
v -1.2 -2.25 1.85
v -1.2 -2.15 1.85
v -0.6 -2.25 1.85
v -0.6 -2.15 1.85
v 0 -2.25 1.85
v 0 -2.15 1.85
v 0.6 -2.25 1.85
v 0.6 -2.15 1.85
v 1.2 -2.25 1.85
v 1.2 -2.15 1.85
v 1.8 -2.25 1.85
v 1.8 -2.15 1.85
v 2 -2.25 1.85
v 2 -2.15 1.85
v 2 2.25 1.85
v -1.9 -0.75 1.65
v -1.9 -0.65 1.65
v -1 -0.75 1.65
v -1 -0.65 1.65
v -0.9 -0.75 1.65
v -0.9 -0.65 1.65
v 0.9 -0.75 1.65
v 0.9 -0.65 1.65
v 1 -0.75 1.65
v 1 -0.65 1.65
v 1.9 -0.75 1.65
v 1.9 -0.65 1.65
v -1.5 -2.15 -1.35
v -1.5 1.35 -1.35
v -1.3 -2.15 -1.35
v -1.3 1.05 -1.35
v 1.3 -2.15 -1.35
v 1.3 1.05 -1.35
v 1.5 -2.15 -1.35
v 1.5 1.35 -1.35
v -0.6 1.35 -1.45
v -0.6 2.05 -1.45
v -0.5 1.45 -1.45
v -0.5 1.95 -1.45
v -0.3 1.55 -1.45
v -0.3 1.85 -1.45
v -0.2 1.45 -1.45
v -0.2 1.55 -1.45
v -0.2 1.85 -1.45
v -0.2 1.95 -1.45
v -0.1 1.45 -1.45
v -0.1 1.55 -1.45
v -0.1 1.85 -1.45
v -0.1 1.95 -1.45
v 0 1.55 -1.45
v 0 1.85 -1.45
v 0.0999999 1.55 -1.45
v 0.0999999 1.85 -1.45
v 0.2 1.45 -1.45
v 0.2 1.55 -1.45
v 0.2 1.85 -1.45
v 0.2 1.95 -1.45
v 0.3 1.45 -1.45
v 0.3 1.55 -1.45
v 0.3 1.85 -1.45
v 0.3 1.95 -1.45
v 0.4 1.55 -1.45
v 0.4 1.85 -1.45
v 0.5 1.45 -1.45
v 0.5 1.95 -1.45
v 0.6 1.35 -1.45
v 0.6 2.05 -1.45
v -1.9 -2.15 -1.55
v -1.9 2.15 -1.55
v -1.8 -2.15 -1.55
v -1.5 -2.15 -1.55
v -1.5 1.35 -1.55
v -0.6 1.35 -1.55
v -0.6 2.05 -1.55
v 0.6 1.35 -1.55
v 0.6 2.05 -1.55
v 1.5 -2.15 -1.55
v 1.5 1.35 -1.55
v 1.8 -2.15 -1.55
v 1.9 -2.15 -1.55
v 1.9 2.15 -1.55
v -1.9 -2.15 1.75
v -1.9 2.15 1.75
v -1.8 -2.15 1.75
v -1.2 -2.15 1.75
v -1 -0.75 1.75
v -1 -0.65 1.75
v -0.9 -0.75 1.75
v -0.9 -0.65 1.75
v -0.6 -2.15 1.75
v 0 -2.15 1.75
v 0.6 -2.15 1.75
v 0.9 -0.75 1.75
v 0.9 -0.65 1.75
v 1 -0.75 1.75
v 1 -0.65 1.75
v 1.2 -2.15 1.75
v 1.8 -2.15 1.75
v 1.9 -2.15 1.75
v 1.9 2.15 1.75
v -1.9 -0.75 1.55
v -1.9 -0.65 1.55
v 1.9 -0.75 1.55
v 1.9 -0.65 1.55
v -2 -2.25 -1.65
v -2 -2.15 -1.65
v -2 2.25 -1.65
v -1.8 -2.25 -1.65
v -1.8 -2.15 -1.65
v -1.5 -2.15 -1.65
v -1.5 1.35 -1.65
v -1.3 -2.15 -1.65
v -1.2 -2.25 -1.65
v -1.2 -2.15 -1.65
v -0.6 -2.25 -1.65
v -0.6 -2.15 -1.65
v 0 -2.25 -1.65
v 0 -2.15 -1.65
v 0.6 -2.25 -1.65
v 0.6 -2.15 -1.65
v 1.2 -2.25 -1.65
v 1.2 -2.15 -1.65
v 1.3 -2.15 -1.65
v 1.5 -2.15 -1.65
v 1.5 1.35 -1.65
v 1.8 -2.25 -1.65
v 1.8 -2.15 -1.65
v 2 -2.25 -1.65
v 2 -2.15 -1.65
v 2 2.25 -1.65
v -1.5 -2.15 -1.85
v -1.5 1.35 -1.85
v -1.3 -2.15 -1.85
v -1.3 1.05 -1.85
v 1.3 -2.15 -1.85
v 1.3 1.05 -1.85
v 1.5 -2.15 -1.85
v 1.5 1.35 -1.85
v -2 -2.25 1.85
v -1.8 -2.25 1.85
v -1.2 -2.25 1.85
v -0.6 -2.25 1.85
v 0 -2.25 1.85
v 0.6 -2.25 1.85
v 1.2 -2.25 1.85
v 1.8 -2.25 1.85
v 2 -2.25 1.85
v -2 -2.25 1.65
v -1.8 -2.25 1.65
v -1.2 -2.25 1.65
v -0.6 -2.25 1.65
v 0 -2.25 1.65
v 0.6 -2.25 1.65
v 1.2 -2.25 1.65
v 1.8 -2.25 1.65
v 2 -2.25 1.65
v -2 -2.25 1.05
v -1.8 -2.25 1.05
v -1.2 -2.25 1.05
v -0.6 -2.25 1.05
v 0 -2.25 1.05
v 0.6 -2.25 1.05
v 1.2 -2.25 1.05
v 1.8 -2.25 1.05
v 2 -2.25 1.05
v -2 -2.25 0.45
v -1.8 -2.25 0.45
v -1.2 -2.25 0.45
v -0.6 -2.25 0.45
v 0 -2.25 0.45
v 0.6 -2.25 0.45
v 1.2 -2.25 0.45
v 1.8 -2.25 0.45
v 2 -2.25 0.45
v -2 -2.25 -0.15
v -1.8 -2.25 -0.15
v -1.2 -2.25 -0.15
v -0.6 -2.25 -0.15
v 0 -2.25 -0.15
v 0.6 -2.25 -0.15
v 1.2 -2.25 -0.15
v 1.8 -2.25 -0.15
v 2 -2.25 -0.15
v -2 -2.25 -0.75
v -1.8 -2.25 -0.75
v -1.2 -2.25 -0.75
v -0.6 -2.25 -0.75
v 0 -2.25 -0.75
v 0.6 -2.25 -0.75
v 1.2 -2.25 -0.75
v 1.8 -2.25 -0.75
v 2 -2.25 -0.75
v -2 -2.25 -1.35
v -1.8 -2.25 -1.35
v -1.2 -2.25 -1.35
v -0.6 -2.25 -1.35
v 0 -2.25 -1.35
v 0.6 -2.25 -1.35
v 1.2 -2.25 -1.35
v 1.8 -2.25 -1.35
v 2 -2.25 -1.35
v -2 -2.25 -1.65
v -1.8 -2.25 -1.65
v -1.2 -2.25 -1.65
v -0.6 -2.25 -1.65
v 0 -2.25 -1.65
v 0.6 -2.25 -1.65
v 1.2 -2.25 -1.65
v 1.8 -2.25 -1.65
v 2 -2.25 -1.65
v -1.5 -2.15 -1.65
v -1.3 -2.15 -1.65
v 1.3 -2.15 -1.65
v 1.5 -2.15 -1.65
v -1.5 -2.15 -1.85
v -1.3 -2.15 -1.85
v 1.3 -2.15 -1.85
v 1.5 -2.15 -1.85
v -1 -0.75 1.75
v -0.9 -0.75 1.75
v 0.9 -0.75 1.75
v 1 -0.75 1.75
v -1.9 -0.75 1.65
v -1 -0.75 1.65
v -0.9 -0.75 1.65
v 0.9 -0.75 1.65
v 1 -0.75 1.65
v 1.9 -0.75 1.65
v -1.9 -0.75 1.55
v 1.9 -0.75 1.55
v -1.3 1.05 -1.35
v 1.3 1.05 -1.35
v -1.3 1.05 -1.85
v 1.3 1.05 -1.85
v -1.9 2.15 1.75
v 1.9 2.15 1.75
v -1.9 2.15 -1.55
v 1.9 2.15 -1.55
v -1.9 -2.15 1.75
v -1.8 -2.15 1.75
v -1.2 -2.15 1.75
v -0.6 -2.15 1.75
v 0 -2.15 1.75
v 0.6 -2.15 1.75
v 1.2 -2.15 1.75
v 1.8 -2.15 1.75
v 1.9 -2.15 1.75
v -1.9 -2.15 1.65
v -1.8 -2.15 1.65
v -1.2 -2.15 1.65
v -0.6 -2.15 1.65
v 0 -2.15 1.65
v 0.6 -2.15 1.65
v 1.2 -2.15 1.65
v 1.8 -2.15 1.65
v 1.9 -2.15 1.65
v -1.9 -2.15 1.05
v -1.8 -2.15 1.05
v -1.2 -2.15 1.05
v -0.6 -2.15 1.05
v 0 -2.15 1.05
v 0.6 -2.15 1.05
v 1.2 -2.15 1.05
v 1.8 -2.15 1.05
v 1.9 -2.15 1.05
v -1.9 -2.15 0.45
v -1.8 -2.15 0.45
v -1.2 -2.15 0.45
v -0.6 -2.15 0.45
v 0 -2.15 0.45
v 0.6 -2.15 0.45
v 1.2 -2.15 0.45
v 1.8 -2.15 0.45
v 1.9 -2.15 0.45
v -1.9 -2.15 -0.15
v -1.8 -2.15 -0.15
v -1.2 -2.15 -0.15
v -0.6 -2.15 -0.15
v 0 -2.15 -0.15
v 0.6 -2.15 -0.15
v 1.2 -2.15 -0.15
v 1.8 -2.15 -0.15
v 1.9 -2.15 -0.15
v -1.9 -2.15 -0.75
v -1.8 -2.15 -0.75
v -1.2 -2.15 -0.75
v -0.6 -2.15 -0.75
v 0 -2.15 -0.75
v 0.6 -2.15 -0.75
v 1.2 -2.15 -0.75
v 1.8 -2.15 -0.75
v 1.9 -2.15 -0.75
v -1.9 -2.15 -1.35
v -1.8 -2.15 -1.35
v -1.5 -2.15 -1.35
v -1.3 -2.15 -1.35
v -1.2 -2.15 -1.35
v -0.6 -2.15 -1.35
v 0 -2.15 -1.35
v 0.6 -2.15 -1.35
v 1.2 -2.15 -1.35
v 1.3 -2.15 -1.35
v 1.5 -2.15 -1.35
v 1.8 -2.15 -1.35
v 1.9 -2.15 -1.35
v -1.9 -2.15 -1.55
v -1.8 -2.15 -1.55
v -1.5 -2.15 -1.55
v 1.5 -2.15 -1.55
v 1.8 -2.15 -1.55
v 1.9 -2.15 -1.55
v -1.3 -2.15 -1.65
v -1.2 -2.15 -1.65
v -0.6 -2.15 -1.65
v 0 -2.15 -1.65
v 0.6 -2.15 -1.65
v 1.2 -2.15 -1.65
v 1.3 -2.15 -1.65
v -1 -0.65 1.75
v -0.9 -0.65 1.75
v 0.9 -0.65 1.75
v 1 -0.65 1.75
v -1.9 -0.65 1.65
v -1 -0.65 1.65
v -0.9 -0.65 1.65
v 0.9 -0.65 1.65
v 1 -0.65 1.65
v 1.9 -0.65 1.65
v -1.9 -0.65 1.55
v 1.9 -0.65 1.55
v -1.5 1.35 -1.35
v 1.5 1.35 -1.35
v -0.6 1.35 -1.45
v 0.6 1.35 -1.45
v -1.5 1.35 -1.55
v -0.6 1.35 -1.55
v 0.6 1.35 -1.55
v 1.5 1.35 -1.55
v -1.5 1.35 -1.65
v 1.5 1.35 -1.65
v -1.5 1.35 -1.85
v 1.5 1.35 -1.85
v -0.6 2.05 -1.45
v 0.6 2.05 -1.45
v -0.6 2.05 -1.55
v 0.6 2.05 -1.55
v -2 2.25 1.85
v 2 2.25 1.85
v -2 2.25 -1.65
v 2 2.25 -1.65

# faces
f 9/2/1 2/2/1 1/2/1
f 10/6/1 3/6/1 2/6/1
f 10/2/1 2/2/1 9/2/1
f 11/2/1 4/2/1 3/2/1
f 11/6/1 3/6/1 10/6/1
f 12/6/1 5/6/1 4/6/1
f 12/2/1 4/2/1 11/2/1
f 13/2/1 6/2/1 5/2/1
f 13/6/1 5/6/1 12/6/1
f 14/6/1 7/6/1 6/6/1
f 14/2/1 6/2/1 13/2/1
f 15/2/1 8/2/1 7/2/1
f 15/6/1 7/6/1 14/6/1
f 16/2/1 8/2/1 15/2/1
f 17/8/1 14/8/1 13/8/1
f 17/8/1 10/8/1 9/8/1
f 17/8/1 16/8/1 15/8/1
f 17/8/1 15/8/1 14/8/1
f 17/8/1 13/8/1 12/8/1
f 17/8/1 12/8/1 11/8/1
f 17/8/1 11/8/1 10/8/1
f 18/8/1 16/8/1 17/8/1
f 23/3/1 20/3/1 19/3/1
f 24/3/1 20/3/1 23/3/1
f 25/3/1 22/3/1 21/3/1
f 26/3/1 22/3/1 25/3/1
f 29/7/1 28/7/1 27/7/1
f 30/7/1 28/7/1 29/7/1
f 33/4/1 32/4/1 31/4/1
f 34/4/1 32/4/1 33/4/1
f 37/7/1 36/7/1 35/7/1
f 38/7/1 36/7/1 37/7/1
f 42/3/1 40/3/1 39/3/1
f 42/3/1 41/3/1 40/3/1
f 43/3/1 41/3/1 42/3/1
f 52/8/1 45/8/1 44/8/1
f 52/8/1 51/8/1 50/8/1
f 52/8/1 50/8/1 49/8/1
f 52/8/1 49/8/1 48/8/1
f 52/8/1 48/8/1 47/8/1
f 52/8/1 47/8/1 46/8/1
f 52/8/1 46/8/1 45/8/1
f 53/8/1 51/8/1 52/8/1
f 54/8/1 52/8/1 44/8/1
f 55/8/1 51/8/1 53/8/1
f 56/8/1 54/8/1 44/8/1
f 56/8/1 55/8/1 54/8/1
f 57/8/1 51/8/1 55/8/1
f 57/8/1 55/8/1 56/8/1
f 58/8/2 59/8/2 66/8/2
f 64/8/2 65/8/2 66/8/2
f 63/8/2 64/8/2 66/8/2
f 62/8/2 63/8/2 66/8/2
f 61/8/2 62/8/2 66/8/2
f 60/8/2 61/8/2 66/8/2
f 59/8/2 60/8/2 66/8/2
f 66/8/2 65/8/2 67/8/2
f 58/8/2 66/8/2 68/8/2
f 67/8/2 65/8/2 69/8/2
f 58/8/2 68/8/2 70/8/2
f 68/8/2 69/8/2 70/8/2
f 69/8/2 65/8/2 71/8/2
f 70/8/2 69/8/2 71/8/2
f 72/3/2 73/3/2 75/3/2
f 73/3/2 74/3/2 75/3/2
f 75/3/2 74/3/2 76/3/2
f 77/7/2 78/7/2 79/7/2
f 79/7/2 78/7/2 80/7/2
f 81/4/2 82/4/2 83/4/2
f 83/4/2 82/4/2 84/4/2
f 85/7/2 86/7/2 87/7/2
f 87/7/2 86/7/2 88/7/2
f 89/3/2 90/3/2 93/3/2
f 93/3/2 90/3/2 94/3/2
f 91/3/2 92/3/2 95/3/2
f 95/3/2 92/3/2 96/3/2
f 97/6/2 98/6/2 105/6/2
f 98/2/2 99/2/2 106/2/2
f 105/6/2 98/6/2 106/6/2
f 99/6/2 100/6/2 107/6/2
f 106/2/2 99/2/2 107/2/2
f 100/2/2 101/2/2 108/2/2
f 107/6/2 100/6/2 108/6/2
f 101/6/2 102/6/2 109/6/2
f 108/2/2 101/2/2 109/2/2
f 102/2/2 103/2/2 110/2/2
f 109/6/2 102/6/2 110/6/2
f 103/6/2 104/6/2 111/6/2
f 110/2/2 103/2/2 111/2/2
f 111/6/2 104/6/2 112/6/2
f 109/8/2 110/8/2 113/8/2
f 105/8/2 106/8/2 113/8/2
f 111/8/2 112/8/2 113/8/2
f 110/8/2 111/8/2 113/8/2
f 108/8/2 109/8/2 113/8/2
f 107/8/2 108/8/2 113/8/2
f 106/8/2 107/8/2 113/8/2
f 113/8/2 112/8/2 114/8/2
f 118/2/3 116/2/3 115/2/3
f 119/8/3 117/8/3 116/8/3
f 119/2/3 116/2/3 118/2/3
f 120/6/3 119/6/3 118/6/3
f 121/8/3 117/8/3 119/8/3
f 121/6/3 119/6/3 120/6/3
f 122/2/3 121/2/3 120/2/3
f 123/8/3 117/8/3 121/8/3
f 123/2/3 121/2/3 122/2/3
f 124/6/3 123/6/3 122/6/3
f 125/8/3 117/8/3 123/8/3
f 125/6/3 123/6/3 124/6/3
f 126/2/3 125/2/3 124/2/3
f 127/8/3 117/8/3 125/8/3
f 127/2/3 125/2/3 126/2/3
f 128/6/3 127/6/3 126/6/3
f 129/8/3 117/8/3 127/8/3
f 129/6/3 127/6/3 128/6/3
f 130/2/3 129/2/3 128/2/3
f 131/8/3 117/8/3 129/8/3
f 131/2/3 129/2/3 130/2/3
f 132/6/3 131/6/3 130/6/3
f 133/8/3 117/8/3 131/8/3
f 133/6/3 131/6/3 132/6/3
f 134/8/3 117/8/3 133/8/3
f 137/7/3 136/7/3 135/7/3
f 138/7/3 136/7/3 137/7/3
f 141/7/3 140/7/3 139/7/3
f 142/7/3 140/7/3 141/7/3
f 145/7/3 144/7/3 143/7/3
f 146/7/3 144/7/3 145/7/3
f 149/3/3 148/3/3 147/3/3
f 150/3/3 148/3/3 149/3/3
f 152/3/3 148/3/3 150/3/3
f 153/3/3 152/3/3 151/3/3
f 154/3/3 148/3/3 152/3/3
f 154/3/3 152/3/3 153/3/3
f 157/4/3 156/4/3 155/4/3
f 158/4/3 156/4/3 157/4/3
f 159/5/3 158/5/3 157/5/3
f 160/5/3 158/5/3 159/5/3
f 161/4/3 157/4/3 155/4/3
f 161/5/3 159/5/3 157/5/3
f 162/1/3 160/1/3 159/1/3
f 162/5/3 159/5/3 161/5/3
f 163/5/3 158/5/3 160/5/3
f 163/1/3 160/1/3 162/1/3
f 164/4/3 156/4/3 158/4/3
f 164/5/3 158/5/3 163/5/3
f 165/1/3 162/1/3 161/1/3
f 165/4/3 161/4/3 155/4/3
f 166/5/3 163/5/3 162/5/3
f 166/1/3 162/1/3 165/1/3
f 167/1/3 164/1/3 163/1/3
f 167/5/3 163/5/3 166/5/3
f 168/4/3 156/4/3 164/4/3
f 168/1/3 164/1/3 167/1/3
f 169/1/3 167/1/3 166/1/3
f 169/5/3 166/5/3 165/5/3
f 170/5/3 168/5/3 167/5/3
f 170/1/3 167/1/3 169/1/3
f 171/5/3 169/5/3 165/5/3
f 171/5/3 170/5/3 169/5/3
f 172/5/3 168/5/3 170/5/3
f 172/5/3 170/5/3 171/5/3
f 173/4/3 165/4/3 155/4/3
f 173/5/3 171/5/3 165/5/3
f 174/1/3 172/1/3 171/1/3
f 174/5/3 171/5/3 173/5/3
f 175/5/3 168/5/3 172/5/3
f 175/1/3 172/1/3 174/1/3
f 176/4/3 156/4/3 168/4/3
f 176/5/3 168/5/3 175/5/3
f 177/1/3 174/1/3 173/1/3
f 177/4/3 173/4/3 155/4/3
f 178/5/3 175/5/3 174/5/3
f 178/1/3 174/1/3 177/1/3
f 179/1/3 176/1/3 175/1/3
f 179/5/3 175/5/3 178/5/3
f 180/4/3 156/4/3 176/4/3
f 180/1/3 176/1/3 179/1/3
f 181/1/3 179/1/3 178/1/3
f 181/5/3 178/5/3 177/5/3
f 182/5/3 180/5/3 179/5/3
f 182/1/3 179/1/3 181/1/3
f 183/4/3 177/4/3 155/4/3
f 183/5/3 181/5/3 177/5/3
f 183/5/3 182/5/3 181/5/3
f 184/5/3 180/5/3 182/5/3
f 184/5/3 182/5/3 183/5/3
f 184/4/3 156/4/3 180/4/3
f 185/4/3 183/4/3 155/4/3
f 185/4/3 184/4/3 183/4/3
f 186/4/3 156/4/3 184/4/3
f 186/4/3 184/4/3 185/4/3
f 189/8/3 188/8/3 187/8/3
f 190/8/3 188/8/3 189/8/3
f 191/8/3 188/8/3 190/8/3
f 192/8/3 188/8/3 191/8/3
f 193/8/3 188/8/3 192/8/3
f 195/8/3 188/8/3 193/8/3
f 197/8/3 195/8/3 194/8/3
f 198/8/3 197/8/3 196/8/3
f 199/8/3 197/8/3 198/8/3
f 200/8/3 188/8/3 195/8/3
f 200/8/3 197/8/3 199/8/3
f 200/8/3 195/8/3 197/8/3
f 201/8/4 202/8/4 203/8/4
f 203/8/4 202/8/4 204/8/4
f 204/8/4 202/8/4 205/8/4
f 205/8/4 202/8/4 206/8/4
f 204/8/4 205/8/4 207/8/4
f 206/8/4 202/8/4 208/8/4
f 204/8/4 207/8/4 209/8/4
f 207/8/4 208/8/4 209/8/4
f 209/8/4 208/8/4 210/8/4
f 210/8/4 208/8/4 211/8/4
f 211/8/4 208/8/4 212/8/4
f 208/8/4 202/8/4 213/8/4
f 212/8/4 208/8/4 213/8/4
f 211/8/4 212/8/4 214/8/4
f 213/8/4 202/8/4 215/8/4
f 211/8/4 214/8/4 216/8/4
f 214/8/4 215/8/4 216/8/4
f 216/8/4 215/8/4 217/8/4
f 217/8/4 215/8/4 218/8/4
f 215/8/4 202/8/4 219/8/4
f 218/8/4 215/8/4 219/8/4
f 220/7/4 221/7/4 222/7/4
f 222/7/4 221/7/4 223/7/4
f 224/2/4 225/2/4 227/2/4
f 225/8/4 226/8/4 228/8/4
f 227/2/4 225/2/4 228/2/4
f 227/6/4 228/6/4 229/6/4
f 228/8/4 226/8/4 229/8/4
f 229/8/4 226/8/4 230/8/4
f 227/6/4 229/6/4 231/6/4
f 227/6/4 231/6/4 232/6/4
f 232/6/4 231/6/4 233/6/4
f 232/2/4 233/2/4 234/2/4
f 234/2/4 233/2/4 235/2/4
f 234/6/4 235/6/4 236/6/4
f 236/6/4 235/6/4 237/6/4
f 236/2/4 237/2/4 238/2/4
f 238/2/4 237/2/4 239/2/4
f 238/6/4 239/6/4 240/6/4
f 240/6/4 239/6/4 241/6/4
f 240/2/4 241/2/4 242/2/4
f 240/2/4 242/2/4 243/2/4
f 230/8/4 226/8/4 244/8/4
f 240/2/4 243/2/4 245/2/4
f 243/8/4 244/8/4 246/8/4
f 245/2/4 243/2/4 246/2/4
f 245/6/4 246/6/4 247/6/4
f 246/8/4 244/8/4 248/8/4
f 247/6/4 246/6/4 248/6/4
f 244/8/4 226/8/4 249/8/4
f 248/8/4 244/8/4 249/8/4
f 250/3/4 251/3/4 252/3/4
f 252/3/4 251/3/4 253/3/4
f 253/3/4 251/3/4 255/3/4
f 254/3/4 255/3/4 256/3/4
f 255/3/4 251/3/4 257/3/4
f 256/3/4 255/3/4 257/3/4
f 267/2/5 259/2/5 258/2/5
f 268/6/5 260/6/5 259/6/5
f 268/2/5 259/2/5 267/2/5
f 269/2/5 261/2/5 260/2/5
f 269/6/5 260/6/5 268/6/5
f 270/6/5 262/6/5 261/6/5
f 270/2/5 261/2/5 269/2/5
f 271/2/5 263/2/5 262/2/5
f 271/6/5 262/6/5 270/6/5
f 272/6/5 264/6/5 263/6/5
f 272/2/5 263/2/5 271/2/5
f 273/2/5 265/2/5 264/2/5
f 273/6/5 264/6/5 272/6/5
f 274/6/5 266/6/5 265/6/5
f 274/2/5 265/2/5 273/2/5
f 275/6/5 266/6/5 274/6/5
f 276/6/5 268/6/5 267/6/5
f 277/2/5 269/2/5 268/2/5
f 277/6/5 268/6/5 276/6/5
f 278/6/5 270/6/5 269/6/5
f 278/2/5 269/2/5 277/2/5
f 279/2/5 271/2/5 270/2/5
f 279/6/5 270/6/5 278/6/5
f 280/6/5 272/6/5 271/6/5
f 280/2/5 271/2/5 279/2/5
f 281/2/5 273/2/5 272/2/5
f 281/6/5 272/6/5 280/6/5
f 282/6/5 274/6/5 273/6/5
f 282/2/5 273/2/5 281/2/5
f 283/2/5 275/2/5 274/2/5
f 283/6/5 274/6/5 282/6/5
f 284/2/5 275/2/5 283/2/5
f 285/2/5 277/2/5 276/2/5
f 286/6/5 278/6/5 277/6/5
f 286/2/5 277/2/5 285/2/5
f 287/2/5 279/2/5 278/2/5
f 287/6/5 278/6/5 286/6/5
f 288/6/5 280/6/5 279/6/5
f 288/2/5 279/2/5 287/2/5
f 289/2/5 281/2/5 280/2/5
f 289/6/5 280/6/5 288/6/5
f 290/6/5 282/6/5 281/6/5
f 290/2/5 281/2/5 289/2/5
f 291/2/5 283/2/5 282/2/5
f 291/6/5 282/6/5 290/6/5
f 292/6/5 284/6/5 283/6/5
f 292/2/5 283/2/5 291/2/5
f 293/6/5 284/6/5 292/6/5
f 294/6/5 286/6/5 285/6/5
f 295/2/5 287/2/5 286/2/5
f 295/6/5 286/6/5 294/6/5
f 296/6/5 288/6/5 287/6/5
f 296/2/5 287/2/5 295/2/5
f 297/2/5 289/2/5 288/2/5
f 297/6/5 288/6/5 296/6/5
f 298/6/5 290/6/5 289/6/5
f 298/2/5 289/2/5 297/2/5
f 299/2/5 291/2/5 290/2/5
f 299/6/5 290/6/5 298/6/5
f 300/6/5 292/6/5 291/6/5
f 300/2/5 291/2/5 299/2/5
f 301/2/5 293/2/5 292/2/5
f 301/6/5 292/6/5 300/6/5
f 302/2/5 293/2/5 301/2/5
f 303/2/5 295/2/5 294/2/5
f 304/6/5 296/6/5 295/6/5
f 304/2/5 295/2/5 303/2/5
f 305/2/5 297/2/5 296/2/5
f 305/6/5 296/6/5 304/6/5
f 306/6/5 298/6/5 297/6/5
f 306/2/5 297/2/5 305/2/5
f 307/2/5 299/2/5 298/2/5
f 307/6/5 298/6/5 306/6/5
f 308/6/5 300/6/5 299/6/5
f 308/2/5 299/2/5 307/2/5
f 309/2/5 301/2/5 300/2/5
f 309/6/5 300/6/5 308/6/5
f 310/6/5 302/6/5 301/6/5
f 310/2/5 301/2/5 309/2/5
f 311/6/5 302/6/5 310/6/5
f 312/6/5 304/6/5 303/6/5
f 313/2/5 305/2/5 304/2/5
f 313/6/5 304/6/5 312/6/5
f 314/6/5 306/6/5 305/6/5
f 314/2/5 305/2/5 313/2/5
f 315/2/5 307/2/5 306/2/5
f 315/6/5 306/6/5 314/6/5
f 316/6/5 308/6/5 307/6/5
f 316/2/5 307/2/5 315/2/5
f 317/2/5 309/2/5 308/2/5
f 317/6/5 308/6/5 316/6/5
f 318/6/5 310/6/5 309/6/5
f 318/2/5 309/2/5 317/2/5
f 319/2/5 311/2/5 310/2/5
f 319/6/5 310/6/5 318/6/5
f 320/2/5 311/2/5 319/2/5
f 321/2/5 313/2/5 312/2/5
f 322/6/5 314/6/5 313/6/5
f 322/2/5 313/2/5 321/2/5
f 323/2/5 315/2/5 314/2/5
f 323/6/5 314/6/5 322/6/5
f 324/6/5 316/6/5 315/6/5
f 324/2/5 315/2/5 323/2/5
f 325/2/5 317/2/5 316/2/5
f 325/6/5 316/6/5 324/6/5
f 326/6/5 318/6/5 317/6/5
f 326/2/5 317/2/5 325/2/5
f 327/2/5 319/2/5 318/2/5
f 327/6/5 318/6/5 326/6/5
f 328/6/5 320/6/5 319/6/5
f 328/2/5 319/2/5 327/2/5
f 329/6/5 320/6/5 328/6/5
f 334/3/5 331/3/5 330/3/5
f 335/3/5 331/3/5 334/3/5
f 336/3/5 333/3/5 332/3/5
f 337/3/5 333/3/5 336/3/5
f 343/7/5 339/7/5 338/7/5
f 344/7/5 339/7/5 343/7/5
f 345/7/5 341/7/5 340/7/5
f 346/7/5 341/7/5 345/7/5
f 348/7/5 344/7/5 343/7/5
f 348/7/5 347/7/5 346/7/5
f 348/7/5 346/7/5 345/7/5
f 348/7/5 345/7/5 344/7/5
f 348/7/5 343/7/5 342/7/5
f 349/7/5 347/7/5 348/7/5
f 352/3/5 351/3/5 350/3/5
f 353/3/5 351/3/5 352/3/5
f 356/8/5 355/8/5 354/8/5
f 357/8/5 355/8/5 356/8/5
f 358/2/6 359/2/6 367/2/6
f 359/6/6 360/6/6 368/6/6
f 367/2/6 359/2/6 368/2/6
f 360/2/6 361/2/6 369/2/6
f 368/6/6 360/6/6 369/6/6
f 361/6/6 362/6/6 370/6/6
f 369/2/6 361/2/6 370/2/6
f 362/2/6 363/2/6 371/2/6
f 370/6/6 362/6/6 371/6/6
f 363/6/6 364/6/6 372/6/6
f 371/2/6 363/2/6 372/2/6
f 364/2/6 365/2/6 373/2/6
f 372/6/6 364/6/6 373/6/6
f 365/6/6 366/6/6 374/6/6
f 373/2/6 365/2/6 374/2/6
f 374/6/6 366/6/6 375/6/6
f 367/6/6 368/6/6 376/6/6
f 368/2/6 369/2/6 377/2/6
f 376/6/6 368/6/6 377/6/6
f 369/6/6 370/6/6 378/6/6
f 377/2/6 369/2/6 378/2/6
f 370/2/6 371/2/6 379/2/6
f 378/6/6 370/6/6 379/6/6
f 371/6/6 372/6/6 380/6/6
f 379/2/6 371/2/6 380/2/6
f 372/2/6 373/2/6 381/2/6
f 380/6/6 372/6/6 381/6/6
f 373/6/6 374/6/6 382/6/6
f 381/2/6 373/2/6 382/2/6
f 374/2/6 375/2/6 383/2/6
f 382/6/6 374/6/6 383/6/6
f 383/2/6 375/2/6 384/2/6
f 376/2/6 377/2/6 385/2/6
f 377/6/6 378/6/6 386/6/6
f 385/2/6 377/2/6 386/2/6
f 378/2/6 379/2/6 387/2/6
f 386/6/6 378/6/6 387/6/6
f 379/6/6 380/6/6 388/6/6
f 387/2/6 379/2/6 388/2/6
f 380/2/6 381/2/6 389/2/6
f 388/6/6 380/6/6 389/6/6
f 381/6/6 382/6/6 390/6/6
f 389/2/6 381/2/6 390/2/6
f 382/2/6 383/2/6 391/2/6
f 390/6/6 382/6/6 391/6/6
f 383/6/6 384/6/6 392/6/6
f 391/2/6 383/2/6 392/2/6
f 392/6/6 384/6/6 393/6/6
f 385/6/6 386/6/6 394/6/6
f 386/2/6 387/2/6 395/2/6
f 394/6/6 386/6/6 395/6/6
f 387/6/6 388/6/6 396/6/6
f 395/2/6 387/2/6 396/2/6
f 388/2/6 389/2/6 397/2/6
f 396/6/6 388/6/6 397/6/6
f 389/6/6 390/6/6 398/6/6
f 397/2/6 389/2/6 398/2/6
f 390/2/6 391/2/6 399/2/6
f 398/6/6 390/6/6 399/6/6
f 391/6/6 392/6/6 400/6/6
f 399/2/6 391/2/6 400/2/6
f 392/2/6 393/2/6 401/2/6
f 400/6/6 392/6/6 401/6/6
f 401/2/6 393/2/6 402/2/6
f 394/2/6 395/2/6 403/2/6
f 395/6/6 396/6/6 404/6/6
f 403/2/6 395/2/6 404/2/6
f 396/2/6 397/2/6 405/2/6
f 404/6/6 396/6/6 405/6/6
f 397/6/6 398/6/6 406/6/6
f 405/2/6 397/2/6 406/2/6
f 398/2/6 399/2/6 407/2/6
f 406/6/6 398/6/6 407/6/6
f 399/6/6 400/6/6 408/6/6
f 407/2/6 399/2/6 408/2/6
f 400/2/6 401/2/6 409/2/6
f 408/6/6 400/6/6 409/6/6
f 401/6/6 402/6/6 410/6/6
f 409/2/6 401/2/6 410/2/6
f 410/6/6 402/6/6 411/6/6
f 403/6/6 404/6/6 412/6/6
f 404/2/6 405/2/6 413/2/6
f 412/6/6 404/6/6 413/6/6
f 413/2/6 405/2/6 414/2/6
f 414/2/6 405/2/6 415/2/6
f 405/6/6 406/6/6 416/6/6
f 415/2/6 405/2/6 416/2/6
f 406/2/6 407/2/6 417/2/6
f 416/6/6 406/6/6 417/6/6
f 407/6/6 408/6/6 418/6/6
f 417/2/6 407/2/6 418/2/6
f 408/2/6 409/2/6 419/2/6
f 418/6/6 408/6/6 419/6/6
f 409/6/6 410/6/6 420/6/6
f 419/2/6 409/2/6 420/2/6
f 420/6/6 410/6/6 421/6/6
f 421/6/6 410/6/6 422/6/6
f 410/2/6 411/2/6 423/2/6
f 422/6/6 410/6/6 423/6/6
f 423/2/6 411/2/6 424/2/6
f 412/2/6 413/2/6 425/2/6
f 413/6/6 414/6/6 426/6/6
f 425/2/6 413/2/6 426/2/6
f 426/6/6 414/6/6 427/6/6
f 422/2/6 423/2/6 428/2/6
f 423/6/6 424/6/6 429/6/6
f 428/2/6 423/2/6 429/2/6
f 429/6/6 424/6/6 430/6/6
f 415/6/6 416/6/6 431/6/6
f 416/2/6 417/2/6 432/2/6
f 431/6/6 416/6/6 432/6/6
f 417/6/6 418/6/6 433/6/6
f 432/2/6 417/2/6 433/2/6
f 418/2/6 419/2/6 434/2/6
f 433/6/6 418/6/6 434/6/6
f 419/6/6 420/6/6 435/6/6
f 434/2/6 419/2/6 435/2/6
f 420/2/6 421/2/6 436/2/6
f 435/6/6 420/6/6 436/6/6
f 436/2/6 421/2/6 437/2/6
f 438/7/6 439/7/6 443/7/6
f 443/7/6 439/7/6 444/7/6
f 440/7/6 441/7/6 445/7/6
f 445/7/6 441/7/6 446/7/6
f 443/7/6 444/7/6 448/7/6
f 446/7/6 447/7/6 448/7/6
f 445/7/6 446/7/6 448/7/6
f 444/7/6 445/7/6 448/7/6
f 442/7/6 443/7/6 448/7/6
f 448/7/6 447/7/6 449/7/6
f 450/3/6 451/3/6 452/3/6
f 452/3/6 451/3/6 453/3/6
f 450/3/6 452/3/6 454/3/6
f 454/3/6 452/3/6 455/3/6
f 453/3/6 451/3/6 456/3/6
f 456/3/6 451/3/6 457/3/6
f 458/3/6 459/3/6 460/3/6
f 460/3/6 459/3/6 461/3/6
f 462/4/6 463/4/6 464/4/6
f 464/4/6 463/4/6 465/4/6
f 466/8/6 467/8/6 468/8/6
f 468/8/6 467/8/6 469/8/6
